<?xml version="1.0" encoding="utf-8" standalone="yes"?>
<!DOCTYPE svg PUBLIC "-//W3C//DTD SVG 1.1//EN" "http://www.w3.org/Graphics/SVG/1.1/DTD/svg11.dtd">
<svg width="770" height="350" viewBox="0 0 770 350" style="fill:none;stroke:none;fill-rule:evenodd;clip-rule:evenodd;stroke-linecap:round;stroke-linejoin:round;stroke-miterlimit:1.5;" version="1.1" xmlns="http://www.w3.org/2000/svg" xmlns:xlink="http://www.w3.org/1999/xlink"><g id="blend" style="mix-blend-mode:multiply"><g id="g-root-ro_qqx3781r0ugay-fill" data-item-order="-22680" data-item-id="ro_qqx3781r0ugay" data-item-class="Shape Stroke Fill" data-item-index="none" data-renderer-id="0" transform="translate(363, 9)"><g id="ro_qqx3781r0ugay-fill" stroke="none" fill="#606060"><g xmlns="http://www.w3.org/2000/svg"><path d="M 34 10L 166 10C 166 10 190 10 190 34L 190 112C 190 112 190 136 166 136L 34 136C 34 136 10 136 10 112L 10 34C 10 34 10 10 34 10"></path></g></g></g><g id="g-root-ro_1qf3dys1r0x8n7-fill" data-item-order="-11016" data-item-id="ro_1qf3dys1r0x8n7" data-item-class="Shape Stroke Fill" data-item-index="none" data-renderer-id="0" transform="translate(111, -9)"><g id="ro_1qf3dys1r0x8n7-fill" stroke="none" fill="#2b503e"><g xmlns="http://www.w3.org/2000/svg"><path d="M 22 10L 202 10C 202 10 214 10 214 22L 214 52C 214 52 214 64 202 64L 22 64C 22 64 10 64 10 52L 10 22C 10 22 10 10 22 10"></path></g></g></g><g id="g-root-ro_qp1nxw1r0x8uk-fill" data-item-order="-11016" data-item-id="ro_qp1nxw1r0x8uk" data-item-class="Shape Stroke Fill" data-item-index="none" data-renderer-id="0" transform="translate(351, 177)"><g id="ro_qp1nxw1r0x8uk-fill" stroke="none" fill="#562d69"><g xmlns="http://www.w3.org/2000/svg"><path d="M 22 10L 202 10C 202 10 214 10 214 22L 214 52C 214 52 214 64 202 64L 22 64C 22 64 10 64 10 52L 10 22C 10 22 10 10 22 10"></path></g></g></g><g id="g-root-ro_1hgc0ac1r0vuva-fill" data-item-order="-9072" data-item-id="ro_1hgc0ac1r0vuva" data-item-class="Shape Stroke Fill" data-item-index="none" data-renderer-id="0" transform="translate(591, -9)"><g id="ro_1hgc0ac1r0vuva-fill" stroke="none" fill="#293f64"><g xmlns="http://www.w3.org/2000/svg"><path d="M 22 10L 166 10C 166 10 178 10 178 22L 178 52C 178 52 178 64 166 64L 22 64C 22 64 10 64 10 52L 10 22C 10 22 10 10 22 10"></path></g></g></g><g id="g-root-4_1ursino1r0vtad-fill" data-item-order="0" data-item-id="4_1ursino1r0vtad" data-item-class="Icon Stroke" data-item-index="none" data-renderer-id="0" transform="translate(603, 3)"></g><g id="g-root-tx_entwickl_5vhpw1r0vvv0-fill" data-item-order="0" data-item-id="tx_entwickl_5vhpw1r0vvv0" data-item-class="Label Stroke" data-item-index="none" data-renderer-id="0" transform="translate(639, 6)"></g><g id="g-root-scru_142dlkk1r0ueq1-fill" data-item-order="0" data-item-id="scru_142dlkk1r0ueq1" data-item-class="Icon Stroke" data-item-index="none" data-renderer-id="0" transform="translate(429, 33)"></g><g id="g-root-tx_definier_m985tg1r0x9mt-fill" data-item-order="0" data-item-id="tx_definier_m985tg1r0x9mt" data-item-class="Label Stroke" data-item-index="none" data-renderer-id="0" transform="translate(39, 57)"></g><g id="g-root-tx_coachtda_qqx3781r0x7v1-fill" data-item-order="0" data-item-id="tx_coachtda_qqx3781r0x7v1" data-item-class="Label Stroke" data-item-index="none" data-renderer-id="0" transform="translate(399, 315)"></g><g id="g-root-tx_entwirft_1q8860k1r0xa80-fill" data-item-order="0" data-item-id="tx_entwirft_1q8860k1r0xa80" data-item-class="Label Stroke" data-item-index="none" data-renderer-id="0" transform="translate(639, 57)"></g><g id="g-root-tx_priorisi_8ye4j81r0x81y-fill" data-item-order="0" data-item-id="tx_priorisi_8ye4j81r0x81y" data-item-class="Label Stroke" data-item-index="none" data-renderer-id="0" transform="translate(87, 93)"></g><g id="g-root-tx_scrumtea_1hd7mus1r0ugaw-fill" data-item-order="0" data-item-id="tx_scrumtea_1hd7mus1r0ugaw" data-item-class="Label Stroke" data-item-index="none" data-renderer-id="0" transform="translate(387, 87)"></g><g id="g-root-tx_entwicke_1q8860k1r0xa81-fill" data-item-order="0" data-item-id="tx_entwicke_1q8860k1r0xa81" data-item-class="Label Stroke" data-item-index="none" data-renderer-id="0" transform="translate(639, 93)"></g><g id="g-root-tx_stakehol_2r4ac1r0x8un-fill" data-item-order="0" data-item-id="tx_stakehol_2r4ac1r0x8un" data-item-class="Label Stroke" data-item-index="none" data-renderer-id="0" transform="translate(-9, 129)"></g><g id="g-root-tx_testet_1hd7mus1r0x7uy-fill" data-item-order="0" data-item-id="tx_testet_1hd7mus1r0x7uy" data-item-class="Label Stroke" data-item-index="none" data-renderer-id="0" transform="translate(639, 129)"></g><g id="g-root-tx_producto_4otd9w1r0xaf5-fill" data-item-order="0" data-item-id="tx_producto_4otd9w1r0xaf5" data-item-class="Label Stroke" data-item-index="none" data-renderer-id="0" transform="translate(123, 6)"></g><g id="g-root-targ_zkoo6s1r0x81v-fill" data-item-order="0" data-item-id="targ_zkoo6s1r0x81v" data-item-class="Icon Stroke" data-item-index="none" data-renderer-id="0" transform="translate(363, 189)"></g><g id="g-root-tx_scrummas_1cviph01r0x9mq-fill" data-item-order="0" data-item-id="tx_scrummas_1cviph01r0x9mq" data-item-class="Label Stroke" data-item-index="none" data-renderer-id="0" transform="translate(399, 192)"></g><g id="g-root-tx_moderier_1cxe4qc1r0x8n7-fill" data-item-order="0" data-item-id="tx_moderier_1cxe4qc1r0x8n7" data-item-class="Label Stroke" data-item-index="none" data-renderer-id="0" transform="translate(399, 243)"></g><g id="g-root-tx_beseitig_zlxmd01r0xa84-fill" data-item-order="0" data-item-id="tx_beseitig_zlxmd01r0xa84" data-item-class="Label Stroke" data-item-index="none" data-renderer-id="0" transform="translate(399, 279)"></g><g id="g-root-mana_1uuww381r0x7uy-fill" data-item-order="0" data-item-id="mana_1uuww381r0x7uy" data-item-class="Icon Stroke" data-item-index="none" data-renderer-id="0" transform="translate(273, 3)"></g><g id="g-root-ro_qqx3781r0ugay-stroke" data-item-order="-22680" data-item-id="ro_qqx3781r0ugay" data-item-class="Shape Stroke Fill" data-item-index="none" data-renderer-id="0" transform="translate(363, 9)"><g id="ro_qqx3781r0ugay-stroke" fill="none" stroke-linecap="round" stroke-linejoin="round" stroke-miterlimit="1.5" stroke="#CCCCCC" stroke-width="2"><g xmlns="http://www.w3.org/2000/svg"><path d="M 34 10L 166 10C 166 10 190 10 190 34L 190 112C 190 112 190 136 166 136L 34 136C 34 136 10 136 10 112L 10 34C 10 34 10 10 34 10"></path></g></g></g><g id="g-root-ro_1qf3dys1r0x8n7-stroke" data-item-order="-11016" data-item-id="ro_1qf3dys1r0x8n7" data-item-class="Shape Stroke Fill" data-item-index="none" data-renderer-id="0" transform="translate(111, -9)"><g id="ro_1qf3dys1r0x8n7-stroke" fill="none" stroke-linecap="round" stroke-linejoin="round" stroke-miterlimit="1.5" stroke="#44E095" stroke-width="2"><g xmlns="http://www.w3.org/2000/svg"><path d="M 22 10L 202 10C 202 10 214 10 214 22L 214 52C 214 52 214 64 202 64L 22 64C 22 64 10 64 10 52L 10 22C 10 22 10 10 22 10"></path></g></g></g><g id="g-root-ro_qp1nxw1r0x8uk-stroke" data-item-order="-11016" data-item-id="ro_qp1nxw1r0x8uk" data-item-class="Shape Stroke Fill" data-item-index="none" data-renderer-id="0" transform="translate(351, 177)"><g id="ro_qp1nxw1r0x8uk-stroke" fill="none" stroke-linecap="round" stroke-linejoin="round" stroke-miterlimit="1.5" stroke="#CD6AFB" stroke-width="2"><g xmlns="http://www.w3.org/2000/svg"><path d="M 22 10L 202 10C 202 10 214 10 214 22L 214 52C 214 52 214 64 202 64L 22 64C 22 64 10 64 10 52L 10 22C 10 22 10 10 22 10"></path></g></g></g><g id="g-root-ro_1hgc0ac1r0vuva-stroke" data-item-order="-9072" data-item-id="ro_1hgc0ac1r0vuva" data-item-class="Shape Stroke Fill" data-item-index="none" data-renderer-id="0" transform="translate(591, -9)"><g id="ro_1hgc0ac1r0vuva-stroke" fill="none" stroke-linecap="round" stroke-linejoin="round" stroke-miterlimit="1.5" stroke="#4F92FF" stroke-width="2"><g xmlns="http://www.w3.org/2000/svg"><path d="M 22 10L 166 10C 166 10 178 10 178 22L 178 52C 178 52 178 64 166 64L 22 64C 22 64 10 64 10 52L 10 22C 10 22 10 10 22 10"></path></g></g></g><g id="g-root-4_1ursino1r0vtad-stroke" data-item-order="0" data-item-id="4_1ursino1r0vtad" data-item-class="Icon Stroke" data-item-index="none" data-renderer-id="0" transform="translate(603, 3)"><g id="4_1ursino1r0vtad-stroke" fill="none" stroke-linecap="round" stroke-linejoin="round" stroke-miterlimit="1.5" stroke="#4F92FF" stroke-width="2"><g xmlns="http://www.w3.org/2000/svg"><path d="M 16.767 16.875L 22.6 24.116C 23.088 24.604 23.088 25.396 22.6 25.884L 16.767 33.125M 39.009 24.116C 39.497 24.604 39.497 25.396 39.009 25.884L 32.759 32.759C 32.524 32.993 32.206 33.125 31.875 33.125L 24.898 33.125L 32.139 25.884C 32.627 25.396 32.627 24.604 32.139 24.116L 24.898 16.875L 31.875 16.875C 32.206 16.875 32.524 17.007 32.759 17.241ZM 21.875 16.875L 16.767 16.875M 21.875 33.125L 16.767 33.125M 13.75 16.875L 10.625 16.875M 13.75 33.125L 10.625 33.125"></path></g></g></g><path id="cu_1hjgdpw1r0x9fw" d="M73 58 L 70 58 L 69.9 58 A18.7 26 -35.1 0 1 56.6 53.4 A7.9 23.3 -13.8 0 1 49 41.5 A7.9 23.3 -13.8 0 0 41.4 29.6 A18.7 26 -35.1 0 0 28.1 25 L 28 25 L 25 25" transform="translate(300, 3)" style="fill:none;stroke-linecap:round;stroke-linejoin:round;stroke-miterlimit:1.5;stroke:#434343;stroke-width:2;stroke-dasharray:5, 7"></path><path id="cu_13ymr1w1r0ymfj" d="M25 58 L 28 58 L 28.1 58 A18.7 26 35.1 0 0 41.4 53.4 A7.9 23.3 13.8 0 0 49 41.5 A7.9 23.3 13.8 0 1 56.6 29.6 A18.7 26 35.1 0 1 69.9 25 L 70 25 L 73 25" transform="translate(528, 3)" style="fill:none;stroke-linecap:round;stroke-linejoin:round;stroke-miterlimit:1.5;stroke:#434343;stroke-width:2;stroke-dasharray:5, 7"></path><g id="g-root-tx_entwickl_5vhpw1r0vvv0-stroke" data-item-order="0" data-item-id="tx_entwickl_5vhpw1r0vvv0" data-item-class="Label Stroke" data-item-index="none" data-renderer-id="0" transform="translate(639, 6)"><g id="tx_entwickl_5vhpw1r0vvv0-stroke" fill="none" stroke-linecap="square" stroke-linejoin="miter" stroke-miterlimit="4" stroke="#4F92FF" stroke-width="2"><g xmlns="http://www.w3.org/2000/svg"><path d="M 26.178 28.137L 18.614 28.142L 18.614 14.95C 19.562 14.95 24.736 14.95 26.136 14.95M 25.124 21.297L 19.078 21.297M 30.219 18.78L 30.219 28.128M 37.053 28.128L 37.053 22.074C 37.053 21.362 37.149 18.79 34.766 18.587C 33.008 18.437 31.319 19.562 30.543 20.956M 44.799 28.326C 43.39 28.465 42.532 27.732 42.532 26.387L 42.532 16.081M 44.682 18.642L 42.918 18.642M 40.422 18.642L 42.155 18.642M 47.908 18.69L 50.623 28.119L 51.001 28.119L 53.943 18.782L 54.378 18.782L 57.384 28.119L 57.734 28.119L 60.451 18.69M 64.648 14.971L 64.672 14.971M 64.632 18.804L 64.632 28.145M 76.372 26.254C 76 27.649 74.432 28.339 72.963 28.339C 70.826 28.339 69.06 27.028 69.06 23.456C 69.06 19.884 70.929 18.573 73.067 18.573C 74.574 18.573 76.224 19.41 76.457 20.915M 80.535 14.125L 80.535 28.126M 86.458 18.61L 80.922 24.462M 87.119 28.284L 83.002 22.785M 91.336 14.125L 91.336 28.126M 102.897 27.218C 101.924 28.155 100.899 28.339 99.714 28.339C 97.645 28.339 95.781 27.028 95.781 23.456C 95.781 19.884 97.591 18.573 99.66 18.573C 101.728 18.573 103.332 19.63 103.332 23.201L 96.112 23.201M 110.985 18.609C 109.604 18.419 108.356 19.319 107.714 20.619M 107.359 18.773L 107.359 28.123"></path></g></g></g><path id="cu_zit8xg1r0yn7x" d="M43 25 L 43 37 L 43 49 L 34 49 L 25 49" transform="translate(258, 30)" style="fill:none;stroke-linecap:round;stroke-linejoin:round;stroke-miterlimit:1.5;stroke:#434343;stroke-width:2;stroke-dasharray:5, 7"></path><path id="cu_hs5pis1r0ymfc" d="M43 25 L 43 55 L 43 85 L 34 85 L 25 85" transform="translate(258, 30)" style="fill:none;stroke-linecap:round;stroke-linejoin:round;stroke-miterlimit:1.5;stroke:#434343;stroke-width:2;stroke-dasharray:5, 7"></path><path id="cu_dcc7ec1r0yn7m" d="M43 25 L 43 37 L 43 109 A12 12 61 0 1 31 121 L 30.9 121 L 25 121" transform="translate(258, 30)" style="fill:none;stroke-linecap:round;stroke-linejoin:round;stroke-miterlimit:1.5;stroke:#434343;stroke-width:2;stroke-dasharray:5, 7"></path><g id="g-root-scru_142dlkk1r0ueq1-stroke" data-item-order="0" data-item-id="scru_142dlkk1r0ueq1" data-item-class="Icon Stroke" data-item-index="none" data-renderer-id="0" transform="translate(429, 33)"><g id="scru_142dlkk1r0ueq1-stroke" fill="none" stroke-linecap="round" stroke-linejoin="round" stroke-miterlimit="1.5" stroke="#CCCCCC" stroke-width="2"><g xmlns="http://www.w3.org/2000/svg"><path d="M 11.512 53.934L 56.488 53.934M 52.4 50.866L 56.488 53.934L 52.4 57M 17.942 42.158C 17.942 35.654 23.215 30.382 29.719 30.382C 36.223 30.382 41.495 35.655 41.494 42.159C 41.493 48.663 36.22 53.935 29.716 53.934M 14.578 40.476L 17.942 43.84L 21.306 40.476M 44.856 21.092C 44.855 16.1 41.205 11.858 36.268 11.113C 31.332 10.368 26.592 13.343 25.118 18.113C 23.644 22.883 25.878 28.014 30.374 30.184M 47.738 19.65L 44.856 22.534L 41.972 19.65"></path></g></g></g><g id="g-root-tx_definier_m985tg1r0x9mt-stroke" data-item-order="0" data-item-id="tx_definier_m985tg1r0x9mt" data-item-class="Label Stroke" data-item-index="none" data-renderer-id="0" transform="translate(39, 57)"><g id="tx_definier_m985tg1r0x9mt-stroke" fill="none" stroke-linecap="square" stroke-linejoin="miter" stroke-miterlimit="4" stroke="#CCCCCC" stroke-width="2"><g xmlns="http://www.w3.org/2000/svg"><path d="M 24.247 28.18L 20.238 28.183L 20.238 14.948C 21.185 14.948 22.464 14.946 23.864 14.946C 25.317 14.91 29.097 16.173 29.097 21.511C 29.097 26.848 25.572 28.18 24.247 28.18ZM 40.317 27.218C 39.344 28.155 38.319 28.339 37.134 28.339C 35.065 28.339 33.201 27.028 33.201 23.456C 33.201 19.884 35.011 18.573 37.08 18.573C 39.148 18.573 40.752 19.63 40.752 23.201L 33.532 23.201M 48.914 13.926C 48.746 13.908 48.465 13.907 48.337 13.907C 46.758 13.907 45.76 15.035 45.76 16.425L 45.76 28.129M 48.185 18.664L 46.096 18.664M 43.908 18.664L 45.434 18.664M 52.058 14.971L 52.082 14.971M 52.042 18.804L 52.042 28.145M 56.969 18.78L 56.969 28.128M 63.803 28.128L 63.803 22.074C 63.803 21.362 63.899 18.79 61.516 18.587C 59.758 18.437 58.069 19.562 57.293 20.956M 68.758 14.971L 68.782 14.971M 68.742 18.804L 68.742 28.145M 80.317 27.218C 79.344 28.155 78.319 28.339 77.134 28.339C 75.065 28.339 73.202 27.028 73.202 23.456C 73.202 19.884 75.011 18.573 77.08 18.573C 79.148 18.573 80.752 19.63 80.752 23.201L 73.532 23.201M 88.405 18.609C 87.024 18.419 85.776 19.319 85.134 20.619M 84.779 18.773L 84.779 28.123M 94.879 28.326C 93.47 28.465 92.612 27.732 92.612 26.387L 92.612 16.081M 94.762 18.642L 92.998 18.642M 90.502 18.642L 92.235 18.642M 105.151 28.131L 105.151 14.944L 110.43 14.928C 111.528 14.967 113.913 15.749 113.913 18.572C 113.913 21.394 111.528 22.254 110.43 22.331L 105.679 22.345M 121.635 18.609C 120.254 18.419 119.006 19.319 118.364 20.619M 118.009 18.773L 118.009 28.123M 132.937 23.457C 132.937 26.522 131.066 28.34 128.758 28.34C 126.45 28.34 124.579 26.522 124.579 23.457C 124.579 20.392 126.45 18.573 128.758 18.573C 131.066 18.573 132.937 20.392 132.937 23.457ZM 144.13 28.124L 144.13 14.123M 143.77 26.773C 142.908 27.871 141.81 28.34 140.5 28.34C 138.319 28.34 136.667 27.029 136.667 23.458C 136.667 19.886 138.424 18.575 140.606 18.575C 141.875 18.575 143.085 19.114 143.77 20.175M 155.787 28.115L 155.786 18.767M 148.952 18.767L 148.952 24.821C 148.952 25.533 148.857 28.096 151.239 28.308C 153.33 28.493 154.603 27.653 155.305 26.47M 160.585 14.125L 160.585 28.126M 166.508 18.61L 160.972 24.462M 167.169 28.284L 163.052 22.785M 174.219 28.326C 172.81 28.465 171.952 27.732 171.952 26.387L 171.952 16.081M 174.102 18.642L 172.338 18.642M 169.842 18.642L 171.575 18.642M 184.283 18.691L 180.913 28.119L 180.712 28.119L 177.308 18.691M 188.458 14.971L 188.482 14.971M 188.442 18.804L 188.442 28.145M 199.528 20.381C 199.232 19.404 198.078 18.584 196.468 18.584C 194.58 18.584 193.36 19.447 193.269 20.751C 193.164 22.246 194.398 22.822 196.328 23.339C 198.022 23.797 199.965 24.277 199.811 26.122C 199.712 27.31 198.735 28.346 196.378 28.346C 194.472 28.346 193.395 27.53 193.06 26.424M 204.358 14.971L 204.382 14.971M 204.342 18.804L 204.342 28.145M 217.067 23.457C 217.067 26.522 215.196 28.34 212.888 28.34C 210.58 28.34 208.709 26.522 208.709 23.457C 208.709 20.392 210.58 18.573 212.888 18.573C 215.196 18.573 217.067 20.392 217.067 23.457ZM 221.259 18.78L 221.259 28.128M 228.093 28.128L 228.093 22.074C 228.093 21.362 228.189 18.79 225.806 18.587C 224.048 18.437 222.359 19.562 221.583 20.956"></path></g></g></g><path id="cu_dcc7ec1r0yn7o" d="M25 25 L 25 37 L 25 49 L 34 49 L 43 49" transform="translate(600, 30)" style="fill:none;stroke-linecap:round;stroke-linejoin:round;stroke-miterlimit:1.5;stroke:#434343;stroke-width:2;stroke-dasharray:5, 7"></path><path id="cu_4gp75g1r0yo0f" d="M25 25 L 25 55 L 25 85 L 34 85 L 43 85" transform="translate(600, 30)" style="fill:none;stroke-linecap:round;stroke-linejoin:round;stroke-miterlimit:1.5;stroke:#434343;stroke-width:2;stroke-dasharray:5, 7"></path><path id="cu_vp101r0yosp" d="M25 25 L 25 37 L 25 109 A12 12 45 0 0 37 121 L 37.1 121 L 43 121" transform="translate(600, 30)" style="fill:none;stroke-linecap:round;stroke-linejoin:round;stroke-miterlimit:1.5;stroke:#434343;stroke-width:2;stroke-dasharray:5, 7"></path><g id="g-root-tx_coachtda_qqx3781r0x7v1-stroke" data-item-order="0" data-item-id="tx_coachtda_qqx3781r0x7v1" data-item-class="Label Stroke" data-item-index="none" data-renderer-id="0" transform="translate(399, 315)"><g id="tx_coachtda_qqx3781r0x7v1-stroke" fill="none" stroke-linecap="square" stroke-linejoin="miter" stroke-miterlimit="4" stroke="#CCCCCC" stroke-width="2"><g xmlns="http://www.w3.org/2000/svg"><path d="M 28.527 25.13C 27.866 27.034 26.078 28.398 23.975 28.398C 21.31 28.398 19.149 26.207 19.149 23.504L 19.149 19.621C 19.149 16.918 21.31 14.727 23.975 14.727C 26.078 14.727 27.866 16.091 28.527 17.995M 40.767 23.457C 40.767 26.522 38.896 28.34 36.588 28.34C 34.28 28.34 32.409 26.522 32.409 23.457C 32.409 20.392 34.28 18.573 36.588 18.573C 38.896 18.573 40.767 20.392 40.767 23.457ZM 45.078 20.246C 45.442 19.28 46.858 18.567 48.198 18.567C 50.052 18.567 51.554 19.88 51.554 21.499L 51.56 22.957L 51.56 25.571C 51.56 26.614 51.535 27.353 51.836 28.278M 51.18 22.957L 48.452 22.957C 45.949 22.957 44.649 24.343 44.649 25.837C 44.649 27.331 45.887 28.341 47.503 28.341C 49.485 28.341 51.111 26.888 51.511 25.732M 63.202 26.254C 62.83 27.649 61.262 28.339 59.793 28.339C 57.656 28.339 55.89 27.028 55.89 23.456C 55.89 19.884 57.759 18.573 59.897 18.573C 61.404 18.573 63.054 19.41 63.287 20.915M 67.358 14.086L 67.358 28.128M 74.222 28.128L 74.222 22.074C 74.222 21.362 74.318 18.791 71.925 18.587C 70.171 18.439 68.486 19.547 67.699 20.928M 81.909 28.326C 80.5 28.465 79.642 27.732 79.642 26.387L 79.642 16.081M 81.792 18.642L 80.028 18.642M 77.532 18.642L 79.265 18.642M 98.82 28.124L 98.82 14.123M 98.46 26.773C 97.598 27.871 96.5 28.34 95.19 28.34C 93.009 28.34 91.357 27.029 91.357 23.458C 91.357 19.886 93.114 18.575 95.296 18.575C 96.565 18.575 97.775 19.114 98.46 20.175M 103.788 20.246C 104.152 19.28 105.568 18.567 106.908 18.567C 108.762 18.567 110.264 19.88 110.264 21.499L 110.27 22.957L 110.27 25.571C 110.27 26.614 110.245 27.353 110.546 28.278M 109.89 22.957L 107.162 22.957C 104.659 22.957 103.359 24.343 103.359 25.837C 103.359 27.331 104.597 28.341 106.213 28.341C 108.195 28.341 109.821 26.888 110.221 25.732M 121.258 20.381C 120.962 19.404 119.808 18.584 118.198 18.584C 116.31 18.584 115.09 19.447 114.999 20.751C 114.894 22.246 116.128 22.822 118.058 23.339C 119.752 23.797 121.695 24.277 121.541 26.122C 121.442 27.31 120.465 28.346 118.108 28.346C 116.202 28.346 115.125 27.53 114.79 26.424M 140.703 14.945C 137.44 14.945 134.177 14.95 130.914 14.95M 135.8 28.124L 135.8 15.456M 151.107 27.218C 150.134 28.155 149.109 28.339 147.924 28.339C 145.855 28.339 143.991 27.028 143.991 23.456C 143.991 19.884 145.801 18.573 147.87 18.573C 149.938 18.573 151.542 19.63 151.542 23.201L 144.322 23.201M 155.708 20.246C 156.072 19.28 157.488 18.567 158.828 18.567C 160.682 18.567 162.184 19.88 162.184 21.499L 162.19 22.957L 162.19 25.571C 162.19 26.614 162.165 27.353 162.466 28.278M 161.81 22.957L 159.082 22.957C 156.579 22.957 155.279 24.343 155.279 25.837C 155.279 27.331 156.517 28.341 158.133 28.341C 160.115 28.341 161.741 26.888 162.141 25.732M 167.04 18.814L 167.04 28.162M 173.874 28.162L 173.863 21.47C 173.799 20.526 173.432 19.078 171.558 18.649C 169.618 18.205 168.138 19.248 167.402 20.595M 180.709 28.162L 180.709 22.108C 180.709 21.396 180.824 19.206 178.393 18.649C 176.364 18.184 174.829 19.347 174.129 20.783"></path></g></g></g><g id="g-root-tx_entwirft_1q8860k1r0xa80-stroke" data-item-order="0" data-item-id="tx_entwirft_1q8860k1r0xa80" data-item-class="Label Stroke" data-item-index="none" data-renderer-id="0" transform="translate(639, 57)"><g id="tx_entwirft_1q8860k1r0xa80-stroke" fill="none" stroke-linecap="square" stroke-linejoin="miter" stroke-miterlimit="4" stroke="#CCCCCC" stroke-width="2"><g xmlns="http://www.w3.org/2000/svg"><path d="M 26.108 28.137L 18.544 28.142L 18.544 14.95C 19.492 14.95 24.666 14.95 26.066 14.95M 25.054 21.297L 19.008 21.297M 30.149 18.78L 30.149 28.128M 36.983 28.128L 36.983 22.074C 36.983 21.362 37.079 18.79 34.696 18.587C 32.938 18.437 31.249 19.562 30.473 20.956M 44.729 28.326C 43.32 28.465 42.462 27.732 42.462 26.387L 42.462 16.081M 44.612 18.642L 42.848 18.642M 40.352 18.642L 42.085 18.642M 47.838 18.69L 50.553 28.119L 50.931 28.119L 53.873 18.782L 54.308 18.782L 57.314 28.119L 57.664 28.119L 60.381 18.69M 64.578 14.971L 64.602 14.971M 64.562 18.804L 64.562 28.145M 73.095 18.609C 71.714 18.419 70.466 19.319 69.824 20.619M 69.469 18.773L 69.469 28.123M 80.714 13.926C 80.546 13.908 80.265 13.907 80.137 13.907C 78.558 13.907 77.56 15.035 77.56 16.425L 77.56 28.129M 79.985 18.664L 77.896 18.664M 75.708 18.664L 77.234 18.664M 86.649 28.326C 85.24 28.465 84.382 27.732 84.382 26.387L 84.382 16.081M 86.532 18.642L 84.768 18.642M 82.272 18.642L 84.005 18.642"></path></g></g></g><g id="g-root-tx_priorisi_8ye4j81r0x81y-stroke" data-item-order="0" data-item-id="tx_priorisi_8ye4j81r0x81y" data-item-class="Label Stroke" data-item-index="none" data-renderer-id="0" transform="translate(87, 93)"><g id="tx_priorisi_8ye4j81r0x81y-stroke" fill="none" stroke-linecap="square" stroke-linejoin="miter" stroke-miterlimit="4" stroke="#CCCCCC" stroke-width="2"><g xmlns="http://www.w3.org/2000/svg"><path d="M 16.951 28.131L 16.951 14.944L 22.23 14.928C 23.328 14.967 25.713 15.749 25.713 18.572C 25.713 21.394 23.328 22.254 22.23 22.331L 17.479 22.345M 33.435 18.609C 32.054 18.419 30.806 19.319 30.164 20.619M 29.809 18.773L 29.809 28.123M 37.118 14.971L 37.142 14.971M 37.102 18.804L 37.102 28.145M 49.827 23.457C 49.827 26.522 47.956 28.34 45.648 28.34C 43.34 28.34 41.469 26.522 41.469 23.457C 41.469 20.392 43.34 18.573 45.648 18.573C 47.956 18.573 49.827 20.392 49.827 23.457ZM 57.625 18.609C 56.244 18.419 54.996 19.319 54.354 20.619M 53.999 18.773L 53.999 28.123M 61.308 14.971L 61.332 14.971M 61.292 18.804L 61.292 28.145M 72.378 20.381C 72.082 19.404 70.928 18.584 69.318 18.584C 67.43 18.584 66.21 19.447 66.119 20.751C 66.014 22.246 67.248 22.822 69.178 23.339C 70.872 23.797 72.815 24.277 72.661 26.122C 72.562 27.31 71.585 28.346 69.228 28.346C 67.322 28.346 66.245 27.53 65.91 26.424M 77.208 14.971L 77.232 14.971M 77.192 18.804L 77.192 28.145M 88.767 27.218C 87.794 28.155 86.769 28.339 85.583 28.339C 83.515 28.339 81.651 27.028 81.651 23.456C 81.651 19.884 83.461 18.573 85.53 18.573C 87.598 18.573 89.202 19.63 89.202 23.201L 81.982 23.201M 96.855 18.609C 95.474 18.419 94.226 19.319 93.584 20.619M 93.229 18.773L 93.229 28.123M 103.329 28.326C 101.92 28.465 101.062 27.732 101.062 26.387L 101.062 16.081M 103.212 18.642L 101.448 18.642M 98.952 18.642L 100.685 18.642M 113.594 28.18L 113.594 14.945M 114.037 21.18L 118.241 21.18M 114.037 14.945L 118.187 14.945C 119.937 14.945 121.25 15.602 121.25 18.008C 121.25 19.933 119.463 20.924 118.57 21.18C 119.609 21.253 121.687 22.066 121.687 24.734C 121.687 27.403 119.609 28.143 118.57 28.18L 114.037 28.18M 126.408 20.246C 126.772 19.28 128.188 18.567 129.528 18.567C 131.382 18.567 132.884 19.88 132.884 21.499L 132.89 22.957L 132.89 25.571C 132.89 26.614 132.865 27.353 133.166 28.278M 132.51 22.957L 129.782 22.957C 127.279 22.957 125.979 24.343 125.979 25.837C 125.979 27.331 127.217 28.341 128.833 28.341C 130.815 28.341 132.441 26.888 132.841 25.732M 144.532 26.254C 144.16 27.649 142.592 28.339 141.123 28.339C 138.986 28.339 137.22 27.028 137.22 23.456C 137.22 19.884 139.089 18.573 141.227 18.573C 142.734 18.573 144.384 19.41 144.617 20.915M 148.695 14.125L 148.695 28.126M 154.618 18.61L 149.082 24.462M 155.279 28.284L 151.162 22.785M 159.496 14.125L 159.496 28.126M 172.207 23.457C 172.207 26.522 170.336 28.34 168.028 28.34C 165.72 28.34 163.849 26.522 163.849 23.457C 163.849 20.392 165.72 18.573 168.028 18.573C 170.336 18.573 172.207 20.392 172.207 23.457ZM 183.409 18.652L 183.409 28.654C 183.409 33.351 178.116 33.001 176.681 31.47M 183.075 26.573C 182.395 27.661 181.171 28.214 179.885 28.214C 177.704 28.214 175.947 26.903 175.947 23.331C 175.947 19.76 177.598 18.449 179.78 18.449C 181.048 18.449 182.353 19.129 183.075 20.502"></path></g></g></g><g id="g-root-tx_scrumtea_1hd7mus1r0ugaw-stroke" data-item-order="0" data-item-id="tx_scrumtea_1hd7mus1r0ugaw" data-item-class="Label Stroke" data-item-index="none" data-renderer-id="0" transform="translate(387, 87)"><g id="tx_scrumtea_1hd7mus1r0ugaw-stroke" fill="none" stroke-linecap="square" stroke-linejoin="miter" stroke-miterlimit="4" stroke="#CCCCCC" stroke-width="2"><g xmlns="http://www.w3.org/2000/svg"><path d="M 26.571 17.457C 26.14 15.893 24.52 14.732 22.431 14.732C 19.983 14.732 18.282 15.931 18.282 17.754C 18.282 19.724 19.746 20.685 22.251 21.406C 24.448 22.045 26.685 22.813 26.685 25.288C 26.685 26.951 25.372 28.346 22.315 28.346C 19.843 28.346 18.262 27.106 17.898 25.483M 37.657 26.254C 37.285 27.649 35.717 28.339 34.248 28.339C 32.111 28.339 30.345 27.028 30.345 23.456C 30.345 19.884 32.214 18.573 34.352 18.573C 35.859 18.573 37.509 19.41 37.742 20.915M 45.43 18.609C 44.049 18.419 42.801 19.319 42.159 20.619M 41.804 18.773L 41.804 28.123M 55.742 28.115L 55.741 18.767M 48.907 18.767L 48.907 24.821C 48.907 25.533 48.812 28.096 51.194 28.308C 53.285 28.493 54.558 27.653 55.26 26.47M 60.565 18.814L 60.565 28.162M 67.399 28.162L 67.388 21.47C 67.324 20.526 66.957 19.078 65.083 18.649C 63.143 18.205 61.663 19.248 60.927 20.595M 74.234 28.162L 74.234 22.108C 74.234 21.396 74.349 19.206 71.918 18.649C 69.889 18.184 68.354 19.347 67.654 20.783M 77.896 22.65L 81.151 22.65M 93.618 14.945C 90.355 14.945 87.092 14.95 83.829 14.95M 88.715 28.124L 88.715 15.456M 104.022 27.218C 103.049 28.155 102.024 28.339 100.839 28.339C 98.77 28.339 96.907 27.028 96.907 23.456C 96.907 19.884 98.716 18.573 100.785 18.573C 102.853 18.573 104.457 19.63 104.457 23.201L 97.237 23.201M 108.623 20.246C 108.987 19.28 110.403 18.567 111.743 18.567C 113.597 18.567 115.099 19.88 115.099 21.499L 115.105 22.957L 115.105 25.571C 115.105 26.614 115.08 27.353 115.382 28.278M 114.725 22.957L 111.997 22.957C 109.494 22.957 108.194 24.343 108.194 25.837C 108.194 27.331 109.432 28.341 111.048 28.341C 113.03 28.341 114.656 26.888 115.056 25.732M 119.955 18.814L 119.955 28.162M 126.789 28.162L 126.778 21.47C 126.714 20.526 126.347 19.078 124.473 18.649C 122.533 18.205 121.053 19.248 120.317 20.595M 133.624 28.162L 133.624 22.108C 133.624 21.396 133.739 19.206 131.308 18.649C 129.279 18.184 127.744 19.347 127.044 20.783"></path></g></g></g><g id="g-root-tx_entwicke_1q8860k1r0xa81-stroke" data-item-order="0" data-item-id="tx_entwicke_1q8860k1r0xa81" data-item-class="Label Stroke" data-item-index="none" data-renderer-id="0" transform="translate(639, 93)"><g id="tx_entwicke_1q8860k1r0xa81-stroke" fill="none" stroke-linecap="square" stroke-linejoin="miter" stroke-miterlimit="4" stroke="#CCCCCC" stroke-width="2"><g xmlns="http://www.w3.org/2000/svg"><path d="M 26.293 28.137L 18.729 28.142L 18.729 14.95C 19.677 14.95 24.851 14.95 26.251 14.95M 25.239 21.297L 19.193 21.297M 30.334 18.78L 30.334 28.128M 37.168 28.128L 37.168 22.074C 37.168 21.362 37.264 18.79 34.881 18.587C 33.123 18.437 31.434 19.562 30.658 20.956M 44.914 28.326C 43.505 28.465 42.647 27.732 42.647 26.387L 42.647 16.081M 44.797 18.642L 43.033 18.642M 40.537 18.642L 42.27 18.642M 48.023 18.69L 50.738 28.119L 51.116 28.119L 54.058 18.782L 54.493 18.782L 57.499 28.119L 57.849 28.119L 60.566 18.69M 64.763 14.971L 64.787 14.971M 64.747 18.804L 64.747 28.145M 76.487 26.254C 76.115 27.649 74.547 28.339 73.078 28.339C 70.941 28.339 69.175 27.028 69.175 23.456C 69.175 19.884 71.044 18.573 73.182 18.573C 74.689 18.573 76.339 19.41 76.572 20.915M 80.65 14.125L 80.65 28.126M 86.573 18.61L 81.037 24.462M 87.234 28.284L 83.117 22.785M 97.962 27.218C 96.989 28.155 95.964 28.339 94.779 28.339C 92.71 28.339 90.846 27.028 90.846 23.456C 90.846 19.884 92.656 18.573 94.725 18.573C 96.793 18.573 98.397 19.63 98.397 23.201L 91.177 23.201M 102.581 14.125L 102.581 28.126M 110.464 28.326C 109.055 28.465 108.197 27.732 108.197 26.387L 108.197 16.081M 110.347 18.642L 108.583 18.642M 106.087 18.642L 107.82 18.642"></path></g></g></g><g id="g-root-tx_stakehol_2r4ac1r0x8un-stroke" data-item-order="0" data-item-id="tx_stakehol_2r4ac1r0x8un" data-item-class="Label Stroke" data-item-index="none" data-renderer-id="0" transform="translate(-9, 129)"><g id="tx_stakehol_2r4ac1r0x8un-stroke" fill="none" stroke-linecap="square" stroke-linejoin="miter" stroke-miterlimit="4" stroke="#CCCCCC" stroke-width="2"><g xmlns="http://www.w3.org/2000/svg"><path d="M 26.001 17.457C 25.57 15.893 23.95 14.732 21.861 14.732C 19.413 14.732 17.712 15.931 17.712 17.754C 17.712 19.724 19.176 20.685 21.68 21.406C 23.878 22.045 26.115 22.813 26.115 25.288C 26.115 26.951 24.802 28.346 21.745 28.346C 19.273 28.346 17.692 27.106 17.328 25.483M 33.244 28.326C 31.835 28.465 30.977 27.732 30.977 26.387L 30.977 16.081M 33.127 18.642L 31.363 18.642M 28.867 18.642L 30.6 18.642M 37.273 20.246C 37.637 19.28 39.053 18.567 40.393 18.567C 42.247 18.567 43.749 19.88 43.749 21.499L 43.755 22.957L 43.755 25.571C 43.755 26.614 43.73 27.353 44.031 28.278M 43.375 22.957L 40.647 22.957C 38.144 22.957 36.844 24.343 36.844 25.837C 36.844 27.331 38.082 28.341 39.698 28.341C 41.68 28.341 43.306 26.888 43.706 25.732M 48.58 14.125L 48.58 28.126M 54.503 18.61L 48.967 24.462M 55.164 28.284L 51.047 22.785M 65.892 27.218C 64.919 28.155 63.894 28.339 62.709 28.339C 60.64 28.339 58.776 27.028 58.776 23.456C 58.776 19.884 60.586 18.573 62.655 18.573C 64.723 18.573 66.327 19.63 66.327 23.201L 59.107 23.201M 70.363 14.086L 70.363 28.128M 77.227 28.128L 77.227 22.074C 77.227 21.362 77.323 18.791 74.93 18.587C 73.176 18.439 71.491 19.547 70.704 20.928M 89.742 23.457C 89.742 26.522 87.871 28.34 85.563 28.34C 83.255 28.34 81.384 26.522 81.384 23.457C 81.384 20.392 83.255 18.573 85.563 18.573C 87.871 18.573 89.742 20.392 89.742 23.457ZM 94.071 14.125L 94.071 28.126M 105.985 28.124L 105.985 14.123M 105.625 26.773C 104.763 27.871 103.665 28.34 102.355 28.34C 100.174 28.34 98.522 27.029 98.522 23.458C 98.522 19.886 100.279 18.575 102.461 18.575C 103.73 18.575 104.94 19.114 105.625 20.175M 117.482 27.218C 116.509 28.155 115.484 28.339 114.299 28.339C 112.23 28.339 110.367 27.028 110.367 23.456C 110.367 19.884 112.176 18.573 114.245 18.573C 116.313 18.573 117.917 19.63 117.917 23.201L 110.697 23.201M 125.57 18.609C 124.189 18.419 122.941 19.319 122.299 20.619M 121.944 18.773L 121.944 28.123M 127.956 22.65L 131.211 22.65M 135.22 14.945L 135.22 28.122M 143.494 14.675L 135.574 23.44M 143.993 28.331L 138.4 20.92M 155.872 23.457C 155.872 26.522 154.001 28.34 151.693 28.34C 149.385 28.34 147.514 26.522 147.514 23.457C 147.514 20.392 149.385 18.573 151.693 18.573C 154.001 18.573 155.872 20.392 155.872 23.457ZM 160.085 18.814L 160.085 28.162M 166.919 28.162L 166.908 21.47C 166.844 20.526 166.477 19.078 164.603 18.649C 162.663 18.205 161.183 19.248 160.447 20.595M 173.754 28.162L 173.754 22.108C 173.754 21.396 173.869 19.206 171.438 18.649C 169.409 18.184 167.874 19.347 167.174 20.783M 178.555 18.814L 178.555 28.162M 185.389 28.162L 185.378 21.47C 185.314 20.526 184.947 19.078 183.073 18.649C 181.133 18.205 179.653 19.248 178.917 20.595M 192.224 28.162L 192.224 22.108C 192.224 21.396 192.339 19.206 189.908 18.649C 187.879 18.184 186.344 19.347 185.644 20.783M 203.812 28.115L 203.811 18.767M 196.977 18.767L 196.977 24.821C 196.977 25.533 196.882 28.096 199.264 28.308C 201.355 28.493 202.628 27.653 203.33 26.47M 208.614 18.78L 208.614 28.128M 215.448 28.128L 215.448 22.074C 215.448 21.362 215.544 18.79 213.161 18.587C 211.403 18.437 209.714 19.562 208.938 20.956M 220.403 14.971L 220.427 14.971M 220.387 18.804L 220.387 28.145M 225.31 14.125L 225.31 28.126M 231.233 18.61L 225.697 24.462M 231.894 28.284L 227.777 22.785M 236.093 20.246C 236.457 19.28 237.873 18.567 239.213 18.567C 241.067 18.567 242.569 19.88 242.569 21.499L 242.575 22.957L 242.575 25.571C 242.575 26.614 242.55 27.353 242.852 28.278M 242.195 22.957L 239.467 22.957C 236.964 22.957 235.664 24.343 235.664 25.837C 235.664 27.331 236.902 28.341 238.518 28.341C 240.5 28.341 242.126 26.888 242.526 25.732M 250.374 28.326C 248.965 28.465 248.107 27.732 248.107 26.387L 248.107 16.081M 250.257 18.642L 248.493 18.642M 245.997 18.642L 247.73 18.642M 254.463 14.971L 254.487 14.971M 254.447 18.804L 254.447 28.145M 267.172 23.457C 267.172 26.522 265.301 28.34 262.993 28.34C 260.685 28.34 258.814 26.522 258.814 23.457C 258.814 20.392 260.685 18.573 262.993 18.573C 265.301 18.573 267.172 20.392 267.172 23.457ZM 271.364 18.78L 271.364 28.128M 278.198 28.128L 278.198 22.074C 278.198 21.362 278.294 18.79 275.911 18.587C 274.153 18.437 272.464 19.562 271.688 20.956"></path></g></g></g><path id="cu_18eg96c1r0ymf6" d="M25 25 L 25 46 L 25 67" transform="translate(438, 120)" style="fill:none;stroke-linecap:round;stroke-linejoin:round;stroke-miterlimit:1.5;stroke:#434343;stroke-width:2;stroke-dasharray:5, 7"></path><g id="g-root-tx_testet_1hd7mus1r0x7uy-stroke" data-item-order="0" data-item-id="tx_testet_1hd7mus1r0x7uy" data-item-class="Label Stroke" data-item-index="none" data-renderer-id="0" transform="translate(639, 129)"><g id="tx_testet_1hd7mus1r0x7uy-stroke" fill="none" stroke-linecap="square" stroke-linejoin="miter" stroke-miterlimit="4" stroke="#CCCCCC" stroke-width="2"><g xmlns="http://www.w3.org/2000/svg"><path d="M 27.483 14.945C 24.22 14.945 20.957 14.95 17.694 14.95M 22.58 28.124L 22.58 15.456M 37.887 27.218C 36.914 28.155 35.889 28.339 34.704 28.339C 32.635 28.339 30.771 27.028 30.771 23.456C 30.771 19.884 32.581 18.573 34.65 18.573C 36.718 18.573 38.322 19.63 38.322 23.201L 31.102 23.201M 48.528 20.381C 48.232 19.404 47.078 18.584 45.468 18.584C 43.58 18.584 42.36 19.447 42.269 20.751C 42.164 22.246 43.398 22.822 45.328 23.339C 47.022 23.797 48.965 24.277 48.811 26.122C 48.712 27.31 47.735 28.346 45.378 28.346C 43.472 28.346 42.395 27.53 42.06 26.424M 56.149 28.326C 54.74 28.465 53.882 27.732 53.882 26.387L 53.882 16.081M 56.032 18.642L 54.268 18.642M 51.772 18.642L 53.505 18.642M 66.707 27.218C 65.734 28.155 64.709 28.339 63.524 28.339C 61.455 28.339 59.591 27.028 59.591 23.456C 59.591 19.884 61.401 18.573 63.47 18.573C 65.538 18.573 67.142 19.63 67.142 23.201L 59.922 23.201M 74.159 28.326C 72.75 28.465 71.892 27.732 71.892 26.387L 71.892 16.081M 74.042 18.642L 72.278 18.642M 69.782 18.642L 71.515 18.642"></path></g></g></g><g id="g-root-tx_producto_4otd9w1r0xaf5-stroke" data-item-order="0" data-item-id="tx_producto_4otd9w1r0xaf5" data-item-class="Label Stroke" data-item-index="none" data-renderer-id="0" transform="translate(123, 6)"><g id="tx_producto_4otd9w1r0xaf5-stroke" fill="none" stroke-linecap="square" stroke-linejoin="miter" stroke-miterlimit="4" stroke="#44E095" stroke-width="2"><g xmlns="http://www.w3.org/2000/svg"><path d="M 14.881 28.131L 14.881 14.944L 20.16 14.928C 21.258 14.967 23.643 15.749 23.643 18.572C 23.643 21.394 21.258 22.254 20.16 22.331L 15.409 22.345M 31.365 18.609C 29.984 18.419 28.736 19.319 28.094 20.619M 27.739 18.773L 27.739 28.123M 42.667 23.457C 42.667 26.522 40.796 28.34 38.488 28.34C 36.18 28.34 34.309 26.522 34.309 23.457C 34.309 20.392 36.18 18.573 38.488 18.573C 40.796 18.573 42.667 20.392 42.667 23.457ZM 53.86 28.124L 53.86 14.123M 53.5 26.773C 52.638 27.871 51.54 28.34 50.23 28.34C 48.049 28.34 46.397 27.029 46.397 23.458C 46.397 19.886 48.154 18.575 50.336 18.575C 51.605 18.575 52.815 19.114 53.5 20.175M 65.517 28.115L 65.516 18.767M 58.682 18.767L 58.682 24.821C 58.682 25.533 58.587 28.096 60.969 28.308C 63.06 28.493 64.333 27.653 65.035 26.47M 77.132 26.254C 76.76 27.649 75.192 28.339 73.723 28.339C 71.586 28.339 69.82 27.028 69.82 23.456C 69.82 19.884 71.689 18.573 73.827 18.573C 75.334 18.573 76.984 19.41 77.217 20.915M 84.269 28.326C 82.86 28.465 82.002 27.732 82.002 26.387L 82.002 16.081M 84.152 18.642L 82.388 18.642M 79.892 18.642L 81.625 18.642M 93.983 21.438C 93.983 26.143 96.03 28.326 99.038 28.326C 102.047 28.326 104.093 26.143 104.093 21.438C 104.093 16.733 101.877 14.721 99.038 14.721C 96.2 14.721 93.983 16.733 93.983 21.438ZM 107.828 18.69L 110.543 28.119L 110.921 28.119L 113.863 18.782L 114.298 18.782L 117.304 28.119L 117.654 28.119L 120.371 18.69M 124.389 18.78L 124.389 28.128M 131.223 28.128L 131.223 22.074C 131.223 21.362 131.319 18.79 128.936 18.587C 127.178 18.437 125.489 19.562 124.713 20.956M 142.647 27.218C 141.674 28.155 140.649 28.339 139.464 28.339C 137.395 28.339 135.531 27.028 135.531 23.456C 135.531 19.884 137.341 18.573 139.41 18.573C 141.478 18.573 143.082 19.63 143.082 23.201L 135.862 23.201M 150.735 18.609C 149.354 18.419 148.106 19.319 147.464 20.619M 147.109 18.773L 147.109 28.123"></path></g></g></g><g id="g-root-targ_zkoo6s1r0x81v-stroke" data-item-order="0" data-item-id="targ_zkoo6s1r0x81v" data-item-class="Icon Stroke" data-item-index="none" data-renderer-id="0" transform="translate(363, 189)"><g id="targ_zkoo6s1r0x81v-stroke" fill="none" stroke-linecap="round" stroke-linejoin="round" stroke-miterlimit="1.5" stroke="#CD6AFB" stroke-width="2"><g xmlns="http://www.w3.org/2000/svg"><path d="M 25 10.625L 25 15.029M 10.625 25L 15.029 25M 25 39.375L 25 34.971M 39.375 25L 34.971 25M 13.125 25C 13.125 31.558 18.442 36.875 25 36.875C 31.558 36.875 36.875 31.558 36.875 25C 36.875 18.442 31.558 13.125 25 13.125C 18.442 13.125 13.125 18.442 13.125 25M 31.542 21.394L 27.5 25.439C 28.312 27.509 27.56 29.865 25.699 31.083C 23.838 32.3 21.378 32.046 19.806 30.473C 18.234 28.9 17.981 26.44 19.199 24.58C 20.418 22.719 22.774 21.969 24.844 22.781L 28.886 18.737L 31.572 18.737ZM 22.579 27.151C 22.579 27.455 22.825 27.701 23.129 27.701C 23.433 27.701 23.679 27.455 23.679 27.151C 23.679 26.847 23.433 26.601 23.129 26.601C 22.825 26.601 22.579 26.847 22.579 27.151"></path></g></g></g><g id="g-root-tx_scrummas_1cviph01r0x9mq-stroke" data-item-order="0" data-item-id="tx_scrummas_1cviph01r0x9mq" data-item-class="Label Stroke" data-item-index="none" data-renderer-id="0" transform="translate(399, 192)"><g id="tx_scrummas_1cviph01r0x9mq-stroke" fill="none" stroke-linecap="square" stroke-linejoin="miter" stroke-miterlimit="4" stroke="#CD6AFB" stroke-width="2"><g xmlns="http://www.w3.org/2000/svg"><path d="M 26.421 17.457C 25.99 15.893 24.37 14.732 22.281 14.732C 19.833 14.732 18.132 15.931 18.132 17.754C 18.132 19.724 19.596 20.685 22.101 21.406C 24.298 22.045 26.535 22.813 26.535 25.288C 26.535 26.951 25.222 28.346 22.165 28.346C 19.693 28.346 18.112 27.106 17.748 25.483M 37.507 26.254C 37.135 27.649 35.567 28.339 34.098 28.339C 31.961 28.339 30.195 27.028 30.195 23.456C 30.195 19.884 32.064 18.573 34.202 18.573C 35.709 18.573 37.359 19.41 37.592 20.915M 45.28 18.609C 43.899 18.419 42.651 19.319 42.009 20.619M 41.654 18.773L 41.654 28.123M 55.592 28.115L 55.591 18.767M 48.757 18.767L 48.757 24.821C 48.757 25.533 48.662 28.096 51.044 28.308C 53.135 28.493 54.408 27.653 55.11 26.47M 60.415 18.814L 60.415 28.162M 67.249 28.162L 67.238 21.47C 67.174 20.526 66.807 19.078 64.933 18.649C 62.993 18.205 61.513 19.248 60.777 20.595M 74.084 28.162L 74.084 22.108C 74.084 21.396 74.199 19.206 71.768 18.649C 69.739 18.184 68.205 19.347 67.504 20.783M 85.216 28.117L 85.224 14.978L 86.193 14.978L 91.496 28.115L 91.812 28.115L 97.131 14.978L 98.101 14.978L 98.095 28.117M 103.313 20.246C 103.677 19.28 105.093 18.567 106.433 18.567C 108.287 18.567 109.789 19.88 109.789 21.499L 109.795 22.957L 109.795 25.571C 109.795 26.614 109.77 27.353 110.072 28.278M 109.415 22.957L 106.687 22.957C 104.184 22.957 102.884 24.343 102.884 25.837C 102.884 27.331 104.122 28.341 105.738 28.341C 107.72 28.341 109.346 26.888 109.746 25.732M 120.783 20.381C 120.487 19.404 119.333 18.584 117.723 18.584C 115.835 18.584 114.615 19.447 114.524 20.751C 114.419 22.246 115.653 22.822 117.583 23.339C 119.277 23.797 121.22 24.277 121.066 26.122C 120.967 27.31 119.99 28.346 117.633 28.346C 115.727 28.346 114.65 27.53 114.315 26.424M 128.404 28.326C 126.995 28.465 126.137 27.732 126.137 26.387L 126.137 16.081M 128.287 18.642L 126.523 18.642M 124.027 18.642L 125.76 18.642M 138.962 27.218C 137.989 28.155 136.964 28.339 135.779 28.339C 133.71 28.339 131.846 27.028 131.846 23.456C 131.846 19.884 133.656 18.573 135.725 18.573C 137.793 18.573 139.397 19.63 139.397 23.201L 132.177 23.201M 147.05 18.609C 145.669 18.419 144.421 19.319 143.779 20.619M 143.424 18.773L 143.424 28.123"></path></g></g></g><path id="cu_vp101r0yosr" d="M25 25 L 25 37 L 25 49 L 34 49 L 43 49" transform="translate(360, 216)" style="fill:none;stroke-linecap:round;stroke-linejoin:round;stroke-miterlimit:1.5;stroke:#434343;stroke-width:2;stroke-dasharray:5, 7"></path><path id="cu_1umspys1r0ym86" d="M25 25 L 25 55 L 25 85 L 34 85 L 43 85" transform="translate(360, 216)" style="fill:none;stroke-linecap:round;stroke-linejoin:round;stroke-miterlimit:1.5;stroke:#434343;stroke-width:2;stroke-dasharray:5, 7"></path><path id="cu_1q6z7uc1r0yn0g" d="M25 25 L 25 37 L 25 109 A12 12 45 0 0 37 121 L 37.1 121 L 43 121" transform="translate(360, 216)" style="fill:none;stroke-linecap:round;stroke-linejoin:round;stroke-miterlimit:1.5;stroke:#434343;stroke-width:2;stroke-dasharray:5, 7"></path><g id="g-root-tx_moderier_1cxe4qc1r0x8n7-stroke" data-item-order="0" data-item-id="tx_moderier_1cxe4qc1r0x8n7" data-item-class="Label Stroke" data-item-index="none" data-renderer-id="0" transform="translate(399, 243)"><g id="tx_moderier_1cxe4qc1r0x8n7-stroke" fill="none" stroke-linecap="square" stroke-linejoin="miter" stroke-miterlimit="4" stroke="#CCCCCC" stroke-width="2"><g xmlns="http://www.w3.org/2000/svg"><path d="M 19.921 28.117L 19.929 14.978L 20.898 14.978L 26.201 28.115L 26.517 28.115L 31.836 14.978L 32.806 14.978L 32.8 28.117M 45.697 23.457C 45.697 26.522 43.826 28.34 41.518 28.34C 39.21 28.34 37.339 26.522 37.339 23.457C 37.339 20.392 39.21 18.573 41.518 18.573C 43.826 18.573 45.697 20.392 45.697 23.457ZM 56.89 28.124L 56.89 14.123M 56.53 26.773C 55.668 27.871 54.57 28.34 53.26 28.34C 51.079 28.34 49.427 27.029 49.427 23.458C 49.427 19.886 51.184 18.575 53.366 18.575C 54.635 18.575 55.845 19.114 56.53 20.175M 68.387 27.218C 67.414 28.155 66.389 28.339 65.204 28.339C 63.135 28.339 61.271 27.028 61.271 23.456C 61.271 19.884 63.081 18.573 65.15 18.573C 67.218 18.573 68.822 19.63 68.822 23.201L 61.602 23.201M 76.475 18.609C 75.094 18.419 73.846 19.319 73.204 20.619M 72.849 18.773L 72.849 28.123M 80.158 14.971L 80.182 14.971M 80.142 18.804L 80.142 28.145M 91.717 27.218C 90.744 28.155 89.719 28.339 88.534 28.339C 86.465 28.339 84.602 27.028 84.602 23.456C 84.602 19.884 86.411 18.573 88.48 18.573C 90.548 18.573 92.152 19.63 92.152 23.201L 84.932 23.201M 99.805 18.609C 98.424 18.419 97.176 19.319 96.534 20.619M 96.179 18.773L 96.179 28.123M 106.279 28.326C 104.87 28.465 104.012 27.732 104.012 26.387L 104.012 16.081M 106.162 18.642L 104.398 18.642M 101.902 18.642L 103.635 18.642M 124.406 17.457C 123.975 15.893 122.355 14.732 120.266 14.732C 117.818 14.732 116.117 15.931 116.117 17.754C 116.117 19.724 117.581 20.685 120.085 21.406C 122.283 22.045 124.52 22.813 124.52 25.288C 124.52 26.951 123.207 28.346 120.15 28.346C 117.678 28.346 116.097 27.106 115.733 25.483M 135.492 26.254C 135.12 27.649 133.552 28.339 132.083 28.339C 129.946 28.339 128.18 27.028 128.18 23.456C 128.18 19.884 130.049 18.573 132.187 18.573C 133.694 18.573 135.344 19.41 135.577 20.915M 143.265 18.609C 141.884 18.419 140.636 19.319 139.994 20.619M 139.639 18.773L 139.639 28.123M 153.577 28.115L 153.576 18.767M 146.742 18.767L 146.742 24.821C 146.742 25.533 146.647 28.096 149.029 28.308C 151.12 28.493 152.393 27.653 153.095 26.47M 158.4 18.814L 158.4 28.162M 165.234 28.162L 165.223 21.47C 165.159 20.526 164.792 19.078 162.918 18.649C 160.978 18.205 159.498 19.248 158.762 20.595M 172.069 28.162L 172.069 22.108C 172.069 21.396 172.184 19.206 169.753 18.649C 167.724 18.184 166.189 19.347 165.489 20.783M 175.731 22.65L 178.986 22.65M 190.568 28.137L 183.004 28.142L 183.004 14.95C 183.952 14.95 189.126 14.95 190.526 14.95M 189.514 21.297L 183.468 21.297M 200.763 18.691L 197.393 28.119L 197.192 28.119L 193.788 18.691M 211.407 27.218C 210.434 28.155 209.409 28.339 208.224 28.339C 206.155 28.339 204.291 27.028 204.291 23.456C 204.291 19.884 206.101 18.573 208.17 18.573C 210.238 18.573 211.842 19.63 211.842 23.201L 204.622 23.201M 215.889 18.78L 215.889 28.128M 222.723 28.128L 222.723 22.074C 222.723 21.362 222.819 18.79 220.436 18.587C 218.678 18.437 216.989 19.562 216.213 20.956M 230.469 28.326C 229.06 28.465 228.202 27.732 228.202 26.387L 228.202 16.081M 230.352 18.642L 228.588 18.642M 226.092 18.642L 227.825 18.642M 240.538 20.381C 240.242 19.404 239.088 18.584 237.478 18.584C 235.59 18.584 234.37 19.447 234.279 20.751C 234.174 22.246 235.408 22.822 237.338 23.339C 239.032 23.797 240.975 24.277 240.821 26.122C 240.722 27.31 239.745 28.346 237.388 28.346C 235.482 28.346 234.405 27.53 234.07 26.424"></path></g></g></g><g id="g-root-tx_beseitig_zlxmd01r0xa84-stroke" data-item-order="0" data-item-id="tx_beseitig_zlxmd01r0xa84" data-item-class="Label Stroke" data-item-index="none" data-renderer-id="0" transform="translate(399, 279)"><g id="tx_beseitig_zlxmd01r0xa84-stroke" fill="none" stroke-linecap="square" stroke-linejoin="miter" stroke-miterlimit="4" stroke="#CCCCCC" stroke-width="2"><g xmlns="http://www.w3.org/2000/svg"><path d="M 15.209 28.18L 15.209 14.945M 15.652 21.18L 19.856 21.18M 15.652 14.945L 19.802 14.945C 21.552 14.945 22.865 15.602 22.865 18.008C 22.865 19.933 21.078 20.924 20.185 21.18C 21.224 21.253 23.302 22.066 23.302 24.734C 23.302 27.403 21.224 28.143 20.185 28.18L 15.652 28.18M 34.552 27.218C 33.579 28.155 32.554 28.339 31.369 28.339C 29.3 28.339 27.437 27.028 27.437 23.456C 27.437 19.884 29.246 18.573 31.315 18.573C 33.383 18.573 34.987 19.63 34.987 23.201L 27.767 23.201M 45.193 20.381C 44.897 19.404 43.743 18.584 42.133 18.584C 40.245 18.584 39.025 19.447 38.934 20.751C 38.829 22.246 40.063 22.822 41.993 23.339C 43.687 23.797 45.63 24.277 45.476 26.122C 45.377 27.31 44.4 28.346 42.043 28.346C 40.137 28.346 39.06 27.53 38.725 26.424M 56.492 27.218C 55.519 28.155 54.494 28.339 53.309 28.339C 51.24 28.339 49.376 27.028 49.376 23.456C 49.376 19.884 51.186 18.573 53.255 18.573C 55.323 18.573 56.927 19.63 56.927 23.201L 49.707 23.201M 61.153 14.971L 61.177 14.971M 61.137 18.804L 61.137 28.145M 69.034 28.326C 67.625 28.465 66.767 27.732 66.767 26.387L 66.767 16.081M 68.917 18.642L 67.153 18.642M 64.657 18.642L 66.39 18.642M 73.123 14.971L 73.147 14.971M 73.107 18.804L 73.107 28.145M 85.044 18.652L 85.044 28.654C 85.044 33.351 79.751 33.001 78.316 31.47M 84.71 26.573C 84.03 27.661 82.806 28.214 81.52 28.214C 79.339 28.214 77.582 26.903 77.582 23.331C 77.582 19.76 79.233 18.449 81.415 18.449C 82.683 18.449 83.988 19.129 84.71 20.502M 92.774 28.326C 91.365 28.465 90.507 27.732 90.507 26.387L 90.507 16.081M 92.657 18.642L 90.893 18.642M 88.397 18.642L 90.13 18.642M 103.009 14.938L 103.009 28.128M 112.522 14.938L 112.522 28.128M 103.517 21.313L 112.042 21.313M 117.843 14.971L 117.867 14.971M 117.827 18.804L 117.827 28.145M 122.754 18.78L 122.754 28.128M 129.588 28.128L 129.588 22.074C 129.588 21.362 129.684 18.79 127.301 18.587C 125.543 18.437 123.854 19.562 123.078 20.956M 141.365 28.124L 141.365 14.123M 141.005 26.773C 140.143 27.871 139.045 28.34 137.735 28.34C 135.554 28.34 133.902 27.029 133.902 23.458C 133.902 19.886 135.659 18.575 137.841 18.575C 139.11 18.575 140.32 19.114 141.005 20.175M 152.862 27.218C 151.889 28.155 150.864 28.339 149.679 28.339C 147.61 28.339 145.746 27.028 145.746 23.456C 145.746 19.884 147.556 18.573 149.625 18.573C 151.693 18.573 153.297 19.63 153.297 23.201L 146.077 23.201M 160.95 18.609C 159.569 18.419 158.321 19.319 157.679 20.619M 157.324 18.773L 157.324 28.123M 164.454 18.78L 164.454 28.128M 171.288 28.128L 171.288 22.074C 171.288 21.362 171.384 18.79 169.001 18.587C 167.243 18.437 165.554 19.562 164.778 20.956M 176.243 14.971L 176.267 14.971M 176.227 18.804L 176.227 28.145M 187.313 20.381C 187.017 19.404 185.863 18.584 184.253 18.584C 182.365 18.584 181.145 19.447 181.054 20.751C 180.949 22.246 182.183 22.822 184.113 23.339C 185.807 23.797 187.75 24.277 187.596 26.122C 187.497 27.31 186.52 28.346 184.163 28.346C 182.257 28.346 181.18 27.53 180.845 26.424M 198.123 20.381C 197.827 19.404 196.673 18.584 195.063 18.584C 193.175 18.584 191.955 19.447 191.864 20.751C 191.759 22.246 192.993 22.822 194.923 23.339C 196.617 23.797 198.56 24.277 198.406 26.122C 198.307 27.31 197.33 28.346 194.973 28.346C 193.067 28.346 191.99 27.53 191.655 26.424M 209.422 27.218C 208.449 28.155 207.424 28.339 206.239 28.339C 204.17 28.339 202.306 27.028 202.306 23.456C 202.306 19.884 204.116 18.573 206.185 18.573C 208.253 18.573 209.857 19.63 209.857 23.201L 202.637 23.201"></path></g></g></g><g id="g-root-mana_1uuww381r0x7uy-stroke" data-item-order="0" data-item-id="mana_1uuww381r0x7uy" data-item-class="Icon Stroke" data-item-index="none" data-renderer-id="0" transform="translate(273, 3)"><g id="mana_1uuww381r0x7uy-stroke" fill="none" stroke-linecap="round" stroke-linejoin="round" stroke-miterlimit="1.5" stroke="#44E095" stroke-width="2"><g xmlns="http://www.w3.org/2000/svg"><path d="M 20.847 28.64L 29.153 28.64L 29.153 39.375L 20.847 39.375ZM 17.166 19.569L 20.847 25.319L 29.153 25.319L 32.834 19.569L 17.166 19.569ZM 34.978 16.314L 39.375 10.625L 10.625 10.625L 15.023 16.314L 34.978 16.314Z"></path></g></g></g></g></svg>