<?xml version="1.0" encoding="utf-8" standalone="yes"?>
<!DOCTYPE svg PUBLIC "-//W3C//DTD SVG 1.1//EN" "http://www.w3.org/Graphics/SVG/1.1/DTD/svg11.dtd">
<svg width="1034" height="254" viewBox="0 0 1034 254" style="fill:none;stroke:none;fill-rule:evenodd;clip-rule:evenodd;stroke-linecap:round;stroke-linejoin:round;stroke-miterlimit:1.5;" version="1.1" xmlns="http://www.w3.org/2000/svg" xmlns:xlink="http://www.w3.org/1999/xlink"><g id="blend" style="mix-blend-mode:multiply"><g id="g-root-ro_1cuwesk1tixrlx-fill" data-item-order="-37800" data-item-id="ro_1cuwesk1tixrlx" data-item-class="Shape Stroke Fill" data-item-index="none" data-renderer-id="0" transform="translate(387, 42)"><g id="ro_1cuwesk1tixrlx-fill" stroke="none" fill="#606060"><g xmlns="http://www.w3.org/2000/svg"><path d="M 34 10L 238 10C 238 10 262 10 262 34L 262 136C 262 136 262 160 238 160L 34 160C 34 160 10 160 10 136L 10 34C 10 34 10 10 34 10"></path></g></g></g><g id="g-root-ro_1cxeeas1tj20i3-fill" data-item-order="-11016" data-item-id="ro_1cxeeas1tj20i3" data-item-class="Shape Stroke Fill" data-item-index="none" data-renderer-id="0" transform="translate(135, 129)"><g id="ro_1cxeeas1tj20i3-fill" stroke="none" fill="#562d69"><g xmlns="http://www.w3.org/2000/svg"><path d="M 22 10L 202 10C 202 10 214 10 214 22L 214 52C 214 52 214 64 202 64L 22 64C 22 64 10 64 10 52L 10 22C 10 22 10 10 22 10"></path></g></g></g><g id="g-root-ro_1qdupd01timlu7-fill" data-item-order="-11016" data-item-id="ro_1qdupd01timlu7" data-item-class="Shape Stroke Fill" data-item-index="none" data-renderer-id="0" transform="translate(687, 3)"><g id="ro_1qdupd01timlu7-fill" stroke="none" fill="#2b503e"><g xmlns="http://www.w3.org/2000/svg"><path d="M 22 10L 202 10C 202 10 214 10 214 22L 214 52C 214 52 214 64 202 64L 22 64C 22 64 10 64 10 52L 10 22C 10 22 10 10 22 10"></path></g></g></g><g id="g-root-ro_1hf3bok1tixukl-fill" data-item-order="-10368" data-item-id="ro_1hf3bok1tixukl" data-item-class="Shape Stroke Fill" data-item-index="none" data-renderer-id="0" transform="translate(147, -9)"><g id="ro_1hf3bok1tixukl-fill" stroke="none" fill="#293f64"><g xmlns="http://www.w3.org/2000/svg"><path d="M 22 10L 190 10C 190 10 202 10 202 22L 202 52C 202 52 202 64 190 64L 22 64C 22 64 10 64 10 52L 10 22C 10 22 10 10 22 10"></path></g></g></g><g id="g-root-ro_hvacis1tiqsy5-fill" data-item-order="-9072" data-item-id="ro_hvacis1tiqsy5" data-item-class="Shape Stroke Fill" data-item-index="none" data-renderer-id="0" transform="translate(687, 141)"><g id="ro_hvacis1tiqsy5-fill" stroke="none" fill="#5a3f27"><g xmlns="http://www.w3.org/2000/svg"><path d="M 22 10L 166 10C 166 10 178 10 178 22L 178 52C 178 52 178 64 166 64L 22 64C 22 64 10 64 10 52L 10 22C 10 22 10 10 22 10"></path></g></g></g><g id="g-root-bag_8dnms1timl8m-fill" data-item-order="0" data-item-id="bag_8dnms1timl8m" data-item-class="Icon Stroke" data-item-index="none" data-renderer-id="0" transform="translate(699, 15)"></g><g id="g-root-tx_erstellu_1hjgnac1titkhy-fill" data-item-order="0" data-item-id="tx_erstellu_1hjgnac1titkhy" data-item-class="Label Stroke" data-item-index="none" data-renderer-id="0" transform="translate(735, 207)"></g><g id="g-root-tx_erstellu_904pw1titlho-fill" data-item-order="0" data-item-id="tx_erstellu_904pw1titlho" data-item-class="Label Stroke" data-item-index="none" data-renderer-id="0" transform="translate(27, 57)"></g><g id="g-root-scru_1ha3ftw1tixtzg-fill" data-item-order="0" data-item-id="scru_1ha3ftw1tixtzg" data-item-class="Icon Stroke" data-item-index="none" data-renderer-id="0" transform="translate(489, 66)"></g><g id="g-root-tx_maximier_1uuaokk1titm2t-fill" data-item-order="0" data-item-id="tx_maximier_1uuaokk1titm2t" data-item-class="Label Stroke" data-item-index="none" data-renderer-id="0" transform="translate(735, 69)"></g><g id="g-root-tx_scrumver_1uljy781tixsej-fill" data-item-order="0" data-item-id="tx_scrumver_1uljy781tixsej" data-item-class="Label Stroke" data-item-index="none" data-renderer-id="0" transform="translate(411, 120)"></g><g id="g-root-tx_scrummas_1q88fl01tj222x-fill" data-item-order="0" data-item-id="tx_scrummas_1q88fl01tj222x" data-item-class="Label Stroke" data-item-index="none" data-renderer-id="0" transform="translate(147, 144)"></g><g id="g-root-arro_1lt1ejo1tj1zpe-fill" data-item-order="0" data-item-id="arro_1lt1ejo1tj1zpe" data-item-class="Icon Stroke" data-item-index="none" data-renderer-id="0" transform="translate(297, 141)"></g><g id="g-root-assi_1uqju1w1tixszo-fill" data-item-order="0" data-item-id="assi_1uqju1w1tixszo" data-item-class="Icon Stroke" data-item-index="none" data-renderer-id="0" transform="translate(297, 3)"></g><g id="g-root-4_qqxcro1tiqs5g-fill" data-item-order="0" data-item-id="4_qqxcro1tiqs5g" data-item-class="Icon Stroke" data-item-index="none" data-renderer-id="0" transform="translate(699, 153)"></g><g id="g-root-tx_entwickl_v6quw41tiqrd7-fill" data-item-order="0" data-item-id="tx_entwickl_v6quw41tiqrd7" data-item-class="Label Stroke" data-item-index="none" data-renderer-id="0" transform="translate(735, 156)"></g><g id="g-root-tx_wirksamk_18ntn1g1titlan-fill" data-item-order="0" data-item-id="tx_wirksamk_18ntn1g1titlan" data-item-class="Label Stroke" data-item-index="none" data-renderer-id="0" transform="translate(-9, 195)"></g><g id="g-root-tx_scrumtea_59a781tixsej-fill" data-item-order="0" data-item-id="tx_scrumtea_59a781tixsej" data-item-class="Label Stroke" data-item-index="none" data-renderer-id="0" transform="translate(159, 6)"></g><g id="g-root-tx_producto_4o75r81timkgd-fill" data-item-order="0" data-item-id="tx_producto_4o75r81timkgd" data-item-class="Label Stroke" data-item-index="none" data-renderer-id="0" transform="translate(735, 18)"></g><g id="g-root-ro_1cuwesk1tixrlx-stroke" data-item-order="-37800" data-item-id="ro_1cuwesk1tixrlx" data-item-class="Shape Stroke Fill" data-item-index="none" data-renderer-id="0" transform="translate(387, 42)"><g id="ro_1cuwesk1tixrlx-stroke" fill="none" stroke-linecap="round" stroke-linejoin="round" stroke-miterlimit="1.5" stroke="#CCCCCC" stroke-width="2"><g xmlns="http://www.w3.org/2000/svg"><path d="M 34 10L 238 10C 238 10 262 10 262 34L 262 136C 262 136 262 160 238 160L 34 160C 34 160 10 160 10 136L 10 34C 10 34 10 10 34 10"></path></g></g></g><g id="g-root-ro_1cxeeas1tj20i3-stroke" data-item-order="-11016" data-item-id="ro_1cxeeas1tj20i3" data-item-class="Shape Stroke Fill" data-item-index="none" data-renderer-id="0" transform="translate(135, 129)"><g id="ro_1cxeeas1tj20i3-stroke" fill="none" stroke-linecap="round" stroke-linejoin="round" stroke-miterlimit="1.5" stroke="#CD6AFB" stroke-width="2"><g xmlns="http://www.w3.org/2000/svg"><path d="M 22 10L 202 10C 202 10 214 10 214 22L 214 52C 214 52 214 64 202 64L 22 64C 22 64 10 64 10 52L 10 22C 10 22 10 10 22 10"></path></g></g></g><g id="g-root-ro_1qdupd01timlu7-stroke" data-item-order="-11016" data-item-id="ro_1qdupd01timlu7" data-item-class="Shape Stroke Fill" data-item-index="none" data-renderer-id="0" transform="translate(687, 3)"><g id="ro_1qdupd01timlu7-stroke" fill="none" stroke-linecap="round" stroke-linejoin="round" stroke-miterlimit="1.5" stroke="#44E095" stroke-width="2"><g xmlns="http://www.w3.org/2000/svg"><path d="M 22 10L 202 10C 202 10 214 10 214 22L 214 52C 214 52 214 64 202 64L 22 64C 22 64 10 64 10 52L 10 22C 10 22 10 10 22 10"></path></g></g></g><g id="g-root-ro_1hf3bok1tixukl-stroke" data-item-order="-10368" data-item-id="ro_1hf3bok1tixukl" data-item-class="Shape Stroke Fill" data-item-index="none" data-renderer-id="0" transform="translate(147, -9)"><g id="ro_1hf3bok1tixukl-stroke" fill="none" stroke-linecap="round" stroke-linejoin="round" stroke-miterlimit="1.5" stroke="#4F92FF" stroke-width="2"><g xmlns="http://www.w3.org/2000/svg"><path d="M 22 10L 190 10C 190 10 202 10 202 22L 202 52C 202 52 202 64 190 64L 22 64C 22 64 10 64 10 52L 10 22C 10 22 10 10 22 10"></path></g></g></g><g id="g-root-ro_hvacis1tiqsy5-stroke" data-item-order="-9072" data-item-id="ro_hvacis1tiqsy5" data-item-class="Shape Stroke Fill" data-item-index="none" data-renderer-id="0" transform="translate(687, 141)"><g id="ro_hvacis1tiqsy5-stroke" fill="none" stroke-linecap="round" stroke-linejoin="round" stroke-miterlimit="1.5" stroke="#F99539" stroke-width="2"><g xmlns="http://www.w3.org/2000/svg"><path d="M 22 10L 166 10C 166 10 178 10 178 22L 178 52C 178 52 178 64 166 64L 22 64C 22 64 10 64 10 52L 10 22C 10 22 10 10 22 10"></path></g></g></g><g id="g-root-bag_8dnms1timl8m-stroke" data-item-order="0" data-item-id="bag_8dnms1timl8m" data-item-class="Icon Stroke" data-item-index="none" data-renderer-id="0" transform="translate(699, 15)"><g id="bag_8dnms1timl8m-stroke" fill="none" stroke-linecap="round" stroke-linejoin="round" stroke-miterlimit="1.5" stroke="#44E095" stroke-width="2"><g xmlns="http://www.w3.org/2000/svg"><path d="M 33.125 23.75L 33.125 27.5M 35.625 39.375L 36.25 31.875L 39.375 31.875L 39.375 27.5C 39.375 24.048 36.577 21.25 33.125 21.25C 29.673 21.25 26.875 24.048 26.875 27.5L 26.875 31.875L 30 31.875L 30.625 39.375ZM 29.35 12.775C 30.719 14.201 32.611 15.005 34.588 15C 35.588 15.003 36.579 14.804 37.5 14.413M 28.75 15C 28.75 17.416 30.709 19.375 33.125 19.375C 35.541 19.375 37.5 17.416 37.5 15C 37.5 12.584 35.541 10.625 33.125 10.625C 30.709 10.625 28.75 12.584 28.75 15M 20 15L 21.962 11.563C 22.074 11.369 22.074 11.131 21.962 10.938C 21.855 10.741 21.648 10.621 21.425 10.625L 14.825 10.625C 14.602 10.621 14.395 10.741 14.287 10.938C 14.176 11.131 14.176 11.369 14.288 11.563L 16.25 15C 15.262 15.65 10.625 17.388 10.625 22.5C 10.683 24.397 11.499 26.191 12.889 27.483C 14.279 28.775 16.129 29.456 18.025 29.375C 21.987 29.375 25.625 26.475 25.625 22.5C 25.625 17.587 21.075 15.837 20 15ZM 18.125 24.375L 18.125 25.625M 18.125 18.125L 18.125 19.375M 15.625 24.375L 19.375 24.375C 20.065 24.375 20.625 23.815 20.625 23.125C 20.625 22.435 20.065 21.875 19.375 21.875L 16.875 21.875C 16.185 21.875 15.625 21.315 15.625 20.625C 15.625 19.935 16.185 19.375 16.875 19.375L 20.625 19.375"></path></g></g></g><g id="g-root-tx_erstellu_1hjgnac1titkhy-stroke" data-item-order="0" data-item-id="tx_erstellu_1hjgnac1titkhy" data-item-class="Label Stroke" data-item-index="none" data-renderer-id="0" transform="translate(735, 207)"><g id="tx_erstellu_1hjgnac1titkhy-stroke" fill="none" stroke-linecap="square" stroke-linejoin="miter" stroke-miterlimit="4" stroke="#CCCCCC" stroke-width="2"><g xmlns="http://www.w3.org/2000/svg"><path d="M 22.832 28.137L 15.269 28.142L 15.269 14.95C 16.217 14.95 21.391 14.95 22.791 14.95M 21.779 21.297L 15.733 21.297M 30.48 18.609C 29.099 18.419 27.851 19.319 27.209 20.619M 26.854 18.773L 26.854 28.123M 40.143 20.381C 39.847 19.404 38.693 18.584 37.083 18.584C 35.195 18.584 33.975 19.447 33.884 20.751C 33.779 22.246 35.013 22.822 36.943 23.339C 38.637 23.797 40.58 24.277 40.426 26.122C 40.327 27.31 39.35 28.346 36.993 28.346C 35.087 28.346 34.01 27.53 33.675 26.424M 47.764 28.326C 46.355 28.465 45.497 27.732 45.497 26.387L 45.497 16.081M 47.647 18.642L 45.883 18.642M 43.387 18.642L 45.12 18.642M 58.322 27.218C 57.349 28.155 56.324 28.339 55.139 28.339C 53.07 28.339 51.206 27.028 51.206 23.456C 51.206 19.884 53.016 18.573 55.085 18.573C 57.153 18.573 58.757 19.63 58.757 23.201L 51.537 23.201M 62.941 14.125L 62.941 28.126M 67.991 14.125L 67.991 28.126M 79.712 28.115L 79.711 18.767M 72.877 18.767L 72.877 24.821C 72.877 25.533 72.782 28.096 75.164 28.308C 77.255 28.493 78.528 27.653 79.23 26.47M 84.514 18.78L 84.514 28.128M 91.348 28.128L 91.348 22.074C 91.348 21.362 91.444 18.79 89.061 18.587C 87.303 18.437 85.614 19.562 84.838 20.956M 103.134 18.652L 103.134 28.654C 103.134 33.351 97.841 33.001 96.406 31.47M 102.8 26.573C 102.12 27.661 100.896 28.214 99.61 28.214C 97.429 28.214 95.672 26.903 95.672 23.331C 95.672 19.76 97.323 18.449 99.505 18.449C 100.773 18.449 102.078 19.129 102.8 20.502M 120.895 28.124L 120.895 14.123M 120.535 26.773C 119.673 27.871 118.575 28.34 117.265 28.34C 115.084 28.34 113.432 27.029 113.432 23.458C 113.432 19.886 115.189 18.575 117.371 18.575C 118.64 18.575 119.85 19.114 120.535 20.175M 132.392 27.218C 131.419 28.155 130.394 28.339 129.208 28.339C 127.14 28.339 125.276 27.028 125.276 23.456C 125.276 19.884 127.086 18.573 129.155 18.573C 131.223 18.573 132.827 19.63 132.827 23.201L 125.607 23.201M 143.033 20.381C 142.737 19.404 141.583 18.584 139.973 18.584C 138.085 18.584 136.865 19.447 136.774 20.751C 136.669 22.246 137.903 22.822 139.833 23.339C 141.527 23.797 143.47 24.277 143.316 26.122C 143.217 27.31 142.24 28.346 139.883 28.346C 137.977 28.346 136.9 27.53 136.565 26.424M 154.046 28.131L 154.046 14.944L 159.325 14.928C 160.423 14.967 162.808 15.749 162.808 18.572C 162.808 21.394 160.423 22.254 159.325 22.331L 154.574 22.345M 170.53 18.609C 169.149 18.419 167.901 19.319 167.259 20.619M 166.904 18.773L 166.904 28.123M 181.832 23.457C 181.832 26.522 179.961 28.34 177.653 28.34C 175.345 28.34 173.474 26.522 173.474 23.457C 173.474 20.392 175.345 18.573 177.653 18.573C 179.961 18.573 181.832 20.392 181.832 23.457ZM 193.025 28.124L 193.025 14.123M 192.665 26.773C 191.803 27.871 190.705 28.34 189.395 28.34C 187.214 28.34 185.562 27.029 185.562 23.458C 185.562 19.886 187.319 18.575 189.501 18.575C 190.77 18.575 191.98 19.114 192.665 20.175M 204.682 28.115L 204.681 18.767M 197.847 18.767L 197.847 24.821C 197.847 25.533 197.752 28.096 200.134 28.308C 202.225 28.493 203.498 27.653 204.2 26.47M 209.48 14.125L 209.48 28.126M 215.403 18.61L 209.867 24.462M 216.064 28.284L 211.947 22.785M 223.114 28.326C 221.705 28.465 220.847 27.732 220.847 26.387L 220.847 16.081M 222.997 18.642L 221.233 18.642M 218.737 18.642L 220.47 18.642M 233.183 20.381C 232.887 19.404 231.733 18.584 230.123 18.584C 228.235 18.584 227.015 19.447 226.924 20.751C 226.819 22.246 228.053 22.822 229.983 23.339C 231.677 23.797 233.62 24.277 233.466 26.122C 233.367 27.31 232.39 28.346 230.033 28.346C 228.127 28.346 227.05 27.53 226.715 26.424"></path></g></g></g><path id="cu_zlxvxg1tj2233" d="M25 87 L 28 87 L 28.1 87 A20.9 20.9 61 0 0 49 66.1 L 49 66 L 49 45.9 A20.9 20.9 -45 0 1 69.9 25 L 70 25 L 73 25" transform="translate(624, 15)" style="fill:none;stroke-linecap:round;stroke-linejoin:round;stroke-miterlimit:1.5;stroke:#434343;stroke-width:2;stroke-dasharray:5, 7"></path><g id="g-root-tx_erstellu_904pw1titlho-stroke" data-item-order="0" data-item-id="tx_erstellu_904pw1titlho" data-item-class="Label Stroke" data-item-index="none" data-renderer-id="0" transform="translate(27, 57)"><g id="tx_erstellu_904pw1titlho-stroke" fill="none" stroke-linecap="square" stroke-linejoin="miter" stroke-miterlimit="4" stroke="#CCCCCC" stroke-width="2"><g xmlns="http://www.w3.org/2000/svg"><path d="M 26.987 28.137L 19.424 28.142L 19.424 14.95C 20.372 14.95 25.546 14.95 26.946 14.95M 25.934 21.297L 19.888 21.297M 34.635 18.609C 33.254 18.419 32.006 19.319 31.364 20.619M 31.009 18.773L 31.009 28.123M 44.298 20.381C 44.002 19.404 42.848 18.584 41.238 18.584C 39.35 18.584 38.13 19.447 38.039 20.751C 37.934 22.246 39.168 22.822 41.098 23.339C 42.792 23.797 44.735 24.277 44.581 26.122C 44.482 27.31 43.505 28.346 41.148 28.346C 39.242 28.346 38.165 27.53 37.83 26.424M 51.919 28.326C 50.51 28.465 49.652 27.732 49.652 26.387L 49.652 16.081M 51.802 18.642L 50.038 18.642M 47.542 18.642L 49.275 18.642M 62.477 27.218C 61.504 28.155 60.479 28.339 59.294 28.339C 57.225 28.339 55.361 27.028 55.361 23.456C 55.361 19.884 57.171 18.573 59.24 18.573C 61.308 18.573 62.912 19.63 62.912 23.201L 55.692 23.201M 67.096 14.125L 67.096 28.126M 72.146 14.125L 72.146 28.126M 83.867 28.115L 83.866 18.767M 77.032 18.767L 77.032 24.821C 77.032 25.533 76.937 28.096 79.319 28.308C 81.41 28.493 82.683 27.653 83.385 26.47M 88.669 18.78L 88.669 28.128M 95.503 28.128L 95.503 22.074C 95.503 21.362 95.599 18.79 93.216 18.587C 91.458 18.437 89.769 19.562 88.993 20.956M 107.289 18.652L 107.289 28.654C 107.289 33.351 101.996 33.001 100.561 31.47M 106.955 26.573C 106.275 27.661 105.051 28.214 103.765 28.214C 101.584 28.214 99.827 26.903 99.827 23.331C 99.827 19.76 101.478 18.449 103.66 18.449C 104.928 18.449 106.233 19.129 106.955 20.502M 124.697 27.218C 123.724 28.155 122.699 28.339 121.514 28.339C 119.445 28.339 117.581 27.028 117.581 23.456C 117.581 19.884 119.391 18.573 121.46 18.573C 123.528 18.573 125.132 19.63 125.132 23.201L 117.912 23.201M 129.358 14.971L 129.382 14.971M 129.342 18.804L 129.342 28.145M 134.269 18.78L 134.269 28.128M 141.103 28.128L 141.103 22.074C 141.103 21.362 141.199 18.79 138.816 18.587C 137.058 18.437 135.369 19.562 134.593 20.956M 152.527 27.218C 151.554 28.155 150.529 28.339 149.344 28.339C 147.275 28.339 145.411 27.028 145.411 23.456C 145.411 19.884 147.221 18.573 149.29 18.573C 151.358 18.573 152.962 19.63 152.962 23.201L 145.742 23.201M 163.168 20.381C 162.872 19.404 161.718 18.584 160.108 18.584C 158.22 18.584 157 19.447 156.909 20.751C 156.804 22.246 158.038 22.822 159.968 23.339C 161.662 23.797 163.605 24.277 163.451 26.122C 163.352 27.31 162.375 28.346 160.018 28.346C 158.112 28.346 157.035 27.53 156.7 26.424M 173.018 18.69L 175.733 28.119L 176.111 28.119L 179.053 18.782L 179.488 18.782L 182.494 28.119L 182.844 28.119L 185.561 18.69M 196.227 27.218C 195.254 28.155 194.229 28.339 193.044 28.339C 190.975 28.339 189.111 27.028 189.111 23.456C 189.111 19.884 190.921 18.573 192.99 18.573C 195.058 18.573 196.662 19.63 196.662 23.201L 189.442 23.201M 204.315 18.609C 202.934 18.419 201.686 19.319 201.044 20.619M 200.689 18.773L 200.689 28.123M 210.789 28.326C 209.38 28.465 208.522 27.732 208.522 26.387L 208.522 16.081M 210.672 18.642L 208.908 18.642M 206.412 18.642L 208.145 18.642M 220.853 18.691L 217.483 28.119L 217.282 28.119L 213.878 18.691M 232.647 23.457C 232.647 26.522 230.776 28.34 228.468 28.34C 226.16 28.34 224.289 26.522 224.289 23.457C 224.289 20.392 226.16 18.573 228.468 18.573C 230.776 18.573 232.647 20.392 232.647 23.457ZM 236.976 14.125L 236.976 28.126M 242.026 14.125L 242.026 28.126M 253.587 27.218C 252.614 28.155 251.589 28.339 250.404 28.339C 248.335 28.339 246.471 27.028 246.471 23.456C 246.471 19.884 248.281 18.573 250.35 18.573C 252.418 18.573 254.022 19.63 254.022 23.201L 246.802 23.201M 258.069 18.78L 258.069 28.128M 264.903 28.128L 264.903 22.074C 264.903 21.362 264.999 18.79 262.616 18.587C 260.858 18.437 259.169 19.562 258.393 20.956M 92.305 38.938L 92.305 52.127M 97.529 42.78L 97.529 52.128M 104.363 52.128L 104.363 46.074C 104.363 45.362 104.459 42.79 102.076 42.587C 100.318 42.437 98.629 43.562 97.853 44.956M 109.135 38.125L 109.135 52.126M 115.058 42.61L 109.522 48.462M 115.719 52.284L 111.602 46.785M 123.405 42.609C 122.024 42.419 120.776 43.319 120.134 44.619M 119.779 42.773L 119.779 52.123M 133.557 51.218C 132.584 52.155 131.559 52.339 130.374 52.339C 128.305 52.339 126.442 51.028 126.442 47.456C 126.442 43.884 128.251 42.573 130.32 42.573C 132.388 42.573 133.992 43.63 133.992 47.201L 126.772 47.201M 138.06 42.814L 138.06 52.162M 144.894 52.162L 144.883 45.47C 144.819 44.526 144.452 43.078 142.578 42.649C 140.638 42.205 139.158 43.248 138.422 44.595M 151.729 52.162L 151.729 46.108C 151.729 45.396 151.844 43.206 149.413 42.649C 147.384 42.184 145.85 43.347 145.149 44.783M 163.157 51.218C 162.184 52.155 161.159 52.339 159.974 52.339C 157.905 52.339 156.042 51.028 156.042 47.456C 156.042 43.884 157.851 42.573 159.92 42.573C 161.988 42.573 163.592 43.63 163.592 47.201L 156.372 47.201M 167.639 42.78L 167.639 52.128M 174.473 52.128L 174.473 46.074C 174.473 45.362 174.569 42.79 172.186 42.587C 170.428 42.437 168.739 43.562 167.963 44.956M 182.219 52.326C 180.81 52.465 179.952 51.732 179.952 50.387L 179.952 40.081M 182.102 42.642L 180.338 42.642M 177.842 42.642L 179.575 42.642M 192.288 44.381C 191.992 43.404 190.838 42.584 189.228 42.584C 187.34 42.584 186.12 43.447 186.029 44.751C 185.924 46.246 187.158 46.822 189.088 47.339C 190.782 47.797 192.725 48.277 192.571 50.122C 192.472 51.311 191.495 52.346 189.138 52.346C 187.232 52.346 186.155 51.53 185.82 50.424"></path></g></g></g><path id="cu_qqxcro1tj20i0" d="M43 25 L 43 29.5 L 43 49 A12 12 61 0 1 31 61 L 30.9 61 L 25 61" transform="translate(282, 30)" style="fill:none;stroke-linecap:round;stroke-linejoin:round;stroke-miterlimit:1.5;stroke:#434343;stroke-width:2;stroke-dasharray:5, 7"></path><g id="g-root-scru_1ha3ftw1tixtzg-stroke" data-item-order="0" data-item-id="scru_1ha3ftw1tixtzg" data-item-class="Icon Stroke" data-item-index="none" data-renderer-id="0" transform="translate(489, 66)"><g id="scru_1ha3ftw1tixtzg-stroke" fill="none" stroke-linecap="round" stroke-linejoin="round" stroke-miterlimit="1.5" stroke="#CCCCCC" stroke-width="2"><g xmlns="http://www.w3.org/2000/svg"><path d="M 11.512 53.934L 56.488 53.934M 52.4 50.866L 56.488 53.934L 52.4 57M 17.942 42.158C 17.942 35.654 23.215 30.382 29.719 30.382C 36.223 30.382 41.495 35.655 41.494 42.159C 41.493 48.663 36.22 53.935 29.716 53.934M 14.578 40.476L 17.942 43.84L 21.306 40.476M 44.856 21.092C 44.855 16.1 41.205 11.858 36.268 11.113C 31.332 10.368 26.592 13.343 25.118 18.113C 23.644 22.883 25.878 28.014 30.374 30.184M 47.738 19.65L 44.856 22.534L 41.972 19.65"></path></g></g></g><path id="cu_mb3un81tj21ab" d="M25 25 L 25 29.5 L 25 49 A12 12 -25.1 0 0 37 61 L 37.1 61 L 43 61" transform="translate(696, 42)" style="fill:none;stroke-linecap:round;stroke-linejoin:round;stroke-miterlimit:1.5;stroke:#434343;stroke-width:2;stroke-dasharray:5, 7"></path><g id="g-root-tx_maximier_1uuaokk1titm2t-stroke" data-item-order="0" data-item-id="tx_maximier_1uuaokk1titm2t" data-item-class="Label Stroke" data-item-index="none" data-renderer-id="0" transform="translate(735, 69)"><g id="tx_maximier_1uuaokk1titm2t-stroke" fill="none" stroke-linecap="square" stroke-linejoin="miter" stroke-miterlimit="4" stroke="#CCCCCC" stroke-width="2"><g xmlns="http://www.w3.org/2000/svg"><path d="M 20.051 28.117L 20.059 14.978L 21.028 14.978L 26.331 28.115L 26.647 28.115L 31.966 14.978L 32.936 14.978L 32.93 28.117M 38.148 20.246C 38.512 19.28 39.928 18.567 41.268 18.567C 43.122 18.567 44.624 19.88 44.624 21.499L 44.63 22.957L 44.63 25.571C 44.63 26.614 44.605 27.353 44.906 28.278M 44.25 22.957L 41.522 22.957C 39.019 22.957 37.719 24.343 37.719 25.837C 37.719 27.331 38.957 28.341 40.573 28.341C 42.555 28.341 44.181 26.888 44.581 25.732M 49.178 18.611L 52.169 23.243M 55.441 28.31L 52.344 23.514M 55.33 18.611L 49.067 28.31M 60.068 14.971L 60.092 14.971M 60.052 18.804L 60.052 28.145M 65 18.814L 65 28.162M 71.834 28.162L 71.823 21.47C 71.759 20.526 71.392 19.078 69.518 18.649C 67.578 18.205 66.098 19.248 65.362 20.595M 78.669 28.162L 78.669 22.108C 78.669 21.396 78.784 19.206 76.353 18.649C 74.324 18.184 72.789 19.347 72.089 20.783M 83.628 14.971L 83.652 14.971M 83.612 18.804L 83.612 28.145M 95.187 27.218C 94.214 28.155 93.189 28.339 92.003 28.339C 89.935 28.339 88.071 27.028 88.071 23.456C 88.071 19.884 89.881 18.573 91.95 18.573C 94.018 18.573 95.622 19.63 95.622 23.201L 88.402 23.201M 103.275 18.609C 101.894 18.419 100.646 19.319 100.004 20.619M 99.649 18.773L 99.649 28.123M 113.587 28.115L 113.586 18.767M 106.752 18.767L 106.752 24.821C 106.752 25.533 106.657 28.096 109.039 28.308C 111.13 28.493 112.403 27.653 113.105 26.47M 118.389 18.78L 118.389 28.128M 125.223 28.128L 125.223 22.074C 125.223 21.362 125.319 18.79 122.936 18.587C 121.178 18.437 119.489 19.562 118.713 20.956M 137.009 18.652L 137.009 28.654C 137.009 33.351 131.716 33.001 130.281 31.47M 136.675 26.573C 135.995 27.661 134.771 28.214 133.485 28.214C 131.304 28.214 129.547 26.903 129.547 23.331C 129.547 19.76 131.198 18.449 133.38 18.449C 134.648 18.449 135.953 19.129 136.675 20.502M 154.77 28.124L 154.77 14.123M 154.41 26.773C 153.548 27.871 152.45 28.34 151.14 28.34C 148.959 28.34 147.307 27.029 147.307 23.458C 147.307 19.886 149.064 18.575 151.246 18.575C 152.515 18.575 153.725 19.114 154.41 20.175M 166.267 27.218C 165.294 28.155 164.269 28.339 163.083 28.339C 161.015 28.339 159.151 27.028 159.151 23.456C 159.151 19.884 160.961 18.573 163.03 18.573C 165.098 18.573 166.702 19.63 166.702 23.201L 159.482 23.201M 176.908 20.381C 176.612 19.404 175.458 18.584 173.848 18.584C 171.96 18.584 170.74 19.447 170.649 20.751C 170.544 22.246 171.778 22.822 173.708 23.339C 175.402 23.797 177.345 24.277 177.191 26.122C 177.092 27.31 176.115 28.346 173.758 28.346C 171.852 28.346 170.775 27.53 170.44 26.424M 187.017 14.93L 190.071 28.104L 190.649 28.104L 194.325 14.932L 194.871 14.932L 198.528 28.104L 199.125 28.104L 202.178 14.93M 212.857 27.218C 211.884 28.155 210.859 28.339 209.673 28.339C 207.605 28.339 205.741 27.028 205.741 23.456C 205.741 19.884 207.551 18.573 209.62 18.573C 211.688 18.573 213.292 19.63 213.292 23.201L 206.072 23.201M 220.945 18.609C 219.564 18.419 218.316 19.319 217.674 20.619M 217.319 18.773L 217.319 28.123M 227.419 28.326C 226.01 28.465 225.152 27.732 225.152 26.387L 225.152 16.081M 227.302 18.642L 225.538 18.642M 223.042 18.642L 224.775 18.642M 237.977 27.218C 237.004 28.155 235.979 28.339 234.794 28.339C 232.725 28.339 230.861 27.028 230.861 23.456C 230.861 19.884 232.671 18.573 234.74 18.573C 236.808 18.573 238.412 19.63 238.412 23.201L 231.192 23.201M 248.618 20.381C 248.322 19.404 247.168 18.584 245.558 18.584C 243.67 18.584 242.45 19.447 242.359 20.751C 242.254 22.246 243.488 22.822 245.418 23.339C 247.112 23.797 249.055 24.277 248.901 26.122C 248.802 27.31 247.825 28.346 245.468 28.346C 243.562 28.346 242.485 27.53 242.15 26.424M 266.27 28.124L 266.27 14.123M 265.91 26.773C 265.048 27.871 263.95 28.34 262.64 28.34C 260.459 28.34 258.807 27.029 258.807 23.458C 258.807 19.886 260.564 18.575 262.746 18.575C 264.015 18.575 265.225 19.114 265.91 20.175M 277.767 27.218C 276.794 28.155 275.769 28.339 274.583 28.339C 272.515 28.339 270.651 27.028 270.651 23.456C 270.651 19.884 272.461 18.573 274.53 18.573C 276.598 18.573 278.202 19.63 278.202 23.201L 270.982 23.201M 288.408 20.381C 288.112 19.404 286.958 18.584 285.348 18.584C 283.46 18.584 282.24 19.447 282.149 20.751C 282.044 22.246 283.278 22.822 285.208 23.339C 286.902 23.797 288.845 24.277 288.691 26.122C 288.592 27.31 287.615 28.346 285.258 28.346C 283.352 28.346 282.275 27.53 281.94 26.424M 114.666 52.131L 114.666 38.944L 119.945 38.928C 121.043 38.967 123.428 39.749 123.428 42.572C 123.428 45.394 121.043 46.254 119.945 46.331L 115.194 46.345M 131.15 42.609C 129.769 42.419 128.521 43.319 127.879 44.619M 127.524 42.773L 127.524 52.123M 142.452 47.457C 142.452 50.522 140.581 52.34 138.273 52.34C 135.965 52.34 134.094 50.522 134.094 47.457C 134.094 44.391 135.965 42.573 138.273 42.573C 140.581 42.573 142.452 44.391 142.452 47.457ZM 153.645 52.124L 153.645 38.123M 153.285 50.773C 152.423 51.871 151.325 52.34 150.015 52.34C 147.834 52.34 146.182 51.029 146.182 47.458C 146.182 43.886 147.939 42.575 150.121 42.575C 151.39 42.575 152.6 43.114 153.285 44.175M 165.302 52.115L 165.301 42.767M 158.467 42.767L 158.467 48.821C 158.467 49.533 158.372 52.096 160.754 52.307C 162.845 52.493 164.118 51.653 164.82 50.47M 170.1 38.125L 170.1 52.126M 176.023 42.61L 170.487 48.462M 176.684 52.284L 172.567 46.785M 183.734 52.326C 182.325 52.465 181.467 51.732 181.467 50.387L 181.467 40.081M 183.617 42.642L 181.853 42.642M 179.357 42.642L 181.09 42.642M 193.803 44.381C 193.507 43.404 192.353 42.584 190.743 42.584C 188.855 42.584 187.635 43.447 187.544 44.751C 187.439 46.246 188.673 46.822 190.603 47.339C 192.297 47.797 194.24 48.277 194.086 50.122C 193.987 51.311 193.01 52.346 190.653 52.346C 188.747 52.346 187.67 51.53 187.335 50.424"></path></g></g></g><path id="cu_18hkw6c1tj21ac" d="M73 99 L 70 99 L 69.9 99 A20.9 20.9 -45 0 1 49 78.1 L 49 78 L 49 45.9 A20.9 20.9 45 0 0 28.1 25 L 28 25 L 25 25" transform="translate(324, 3)" style="fill:none;stroke-linecap:round;stroke-linejoin:round;stroke-miterlimit:1.5;stroke:#434343;stroke-width:2;stroke-dasharray:5, 7"></path><g id="g-root-tx_scrumver_1uljy781tixsej-stroke" data-item-order="0" data-item-id="tx_scrumver_1uljy781tixsej" data-item-class="Label Stroke" data-item-index="none" data-renderer-id="0" transform="translate(411, 120)"><g id="tx_scrumver_1uljy781tixsej-stroke" fill="none" stroke-linecap="square" stroke-linejoin="miter" stroke-miterlimit="4" stroke="#CCCCCC" stroke-width="2"><g xmlns="http://www.w3.org/2000/svg"><path d="M 92.266 17.457C 91.835 15.893 90.215 14.732 88.126 14.732C 85.678 14.732 83.977 15.931 83.977 17.754C 83.977 19.724 85.441 20.685 87.946 21.406C 90.143 22.045 92.38 22.813 92.38 25.288C 92.38 26.951 91.067 28.346 88.01 28.346C 85.538 28.346 83.957 27.106 83.593 25.483M 103.352 26.254C 102.98 27.649 101.412 28.339 99.943 28.339C 97.806 28.339 96.04 27.028 96.04 23.456C 96.04 19.884 97.909 18.573 100.047 18.573C 101.554 18.573 103.204 19.41 103.437 20.915M 111.125 18.609C 109.744 18.419 108.496 19.319 107.854 20.619M 107.499 18.773L 107.499 28.123M 121.437 28.115L 121.436 18.767M 114.602 18.767L 114.602 24.821C 114.602 25.533 114.507 28.096 116.889 28.308C 118.98 28.493 120.253 27.653 120.955 26.47M 126.26 18.814L 126.26 28.162M 133.094 28.162L 133.083 21.47C 133.019 20.526 132.652 19.078 130.778 18.649C 128.838 18.205 127.358 19.248 126.622 20.595M 139.929 28.162L 139.929 22.108C 139.929 21.396 140.044 19.206 137.613 18.649C 135.584 18.184 134.049 19.347 133.349 20.783M 27.472 38.93L 22.734 52.103L 22.173 52.103L 17.45 38.93M 38.167 51.218C 37.194 52.155 36.169 52.339 34.984 52.339C 32.915 52.339 31.051 51.028 31.051 47.456C 31.051 43.884 32.861 42.573 34.93 42.573C 36.998 42.573 38.602 43.63 38.602 47.201L 31.382 47.201M 46.255 42.609C 44.874 42.419 43.626 43.319 42.984 44.619M 42.629 42.773L 42.629 52.123M 49.878 44.246C 50.242 43.28 51.658 42.567 52.998 42.567C 54.852 42.567 56.354 43.88 56.354 45.499L 56.36 46.957L 56.36 49.571C 56.36 50.614 56.335 51.353 56.636 52.278M 55.98 46.957L 53.252 46.957C 50.749 46.957 49.449 48.343 49.449 49.837C 49.449 51.332 50.687 52.341 52.303 52.341C 54.285 52.341 55.911 50.888 56.311 49.732M 61.189 42.78L 61.189 52.128M 68.023 52.128L 68.023 46.074C 68.023 45.362 68.119 42.79 65.736 42.587C 63.978 42.437 62.289 43.562 61.513 44.956M 75.769 52.326C 74.36 52.465 73.502 51.732 73.502 50.387L 73.502 40.081M 75.652 42.642L 73.888 42.642M 71.392 42.642L 73.125 42.642M 78.878 42.69L 81.593 52.119L 81.971 52.119L 84.913 42.782L 85.348 42.782L 88.354 52.119L 88.704 52.119L 91.421 42.69M 103.237 47.457C 103.237 50.522 101.366 52.34 99.058 52.34C 96.75 52.34 94.879 50.522 94.879 47.457C 94.879 44.391 96.75 42.573 99.058 42.573C 101.366 42.573 103.237 44.391 103.237 47.457ZM 111.035 42.609C 109.654 42.419 108.406 43.319 107.764 44.619M 107.409 42.773L 107.409 52.123M 117.509 52.326C 116.1 52.465 115.242 51.732 115.242 50.387L 115.242 40.081M 117.392 42.642L 115.628 42.642M 113.132 42.642L 114.865 42.642M 121.556 38.125L 121.556 52.126M 126.648 38.971L 126.672 38.971M 126.632 42.804L 126.632 52.145M 138.372 50.254C 138 51.649 136.432 52.339 134.963 52.339C 132.826 52.339 131.06 51.028 131.06 47.456C 131.06 43.884 132.929 42.573 135.067 42.573C 136.574 42.573 138.224 43.41 138.457 44.915M 142.528 38.086L 142.528 52.128M 149.392 52.128L 149.392 46.074C 149.392 45.362 149.488 42.791 147.095 42.587C 145.341 42.439 143.656 43.547 142.869 44.928M 154.105 38.125L 154.105 52.126M 160.028 42.61L 154.492 48.462M 160.689 52.284L 156.572 46.785M 171.417 51.218C 170.444 52.155 169.419 52.339 168.234 52.339C 166.165 52.339 164.301 51.028 164.301 47.456C 164.301 43.884 166.111 42.573 168.18 42.573C 170.248 42.573 171.852 43.63 171.852 47.201L 164.632 47.201M 176.078 38.971L 176.102 38.971M 176.062 42.804L 176.062 52.145M 183.959 52.326C 182.55 52.465 181.692 51.732 181.692 50.387L 181.692 40.081M 183.842 42.642L 182.078 42.642M 179.582 42.642L 181.315 42.642M 194.517 51.218C 193.544 52.155 192.519 52.339 191.334 52.339C 189.265 52.339 187.401 51.028 187.401 47.456C 187.401 43.884 189.211 42.573 191.28 42.573C 193.348 42.573 194.952 43.63 194.952 47.201L 187.732 47.201M 198.999 42.78L 198.999 52.128M 205.833 52.128L 205.833 46.074C 205.833 45.362 205.929 42.79 203.546 42.587C 201.788 42.437 200.099 43.562 199.323 44.956"></path></g></g></g><g id="g-root-tx_scrummas_1q88fl01tj222x-stroke" data-item-order="0" data-item-id="tx_scrummas_1q88fl01tj222x" data-item-class="Label Stroke" data-item-index="none" data-renderer-id="0" transform="translate(147, 144)"><g id="tx_scrummas_1q88fl01tj222x-stroke" fill="none" stroke-linecap="square" stroke-linejoin="miter" stroke-miterlimit="4" stroke="#CD6AFB" stroke-width="2"><g xmlns="http://www.w3.org/2000/svg"><path d="M 26.421 17.457C 25.99 15.893 24.37 14.732 22.281 14.732C 19.833 14.732 18.132 15.931 18.132 17.754C 18.132 19.724 19.596 20.685 22.101 21.406C 24.298 22.045 26.535 22.813 26.535 25.288C 26.535 26.951 25.222 28.346 22.165 28.346C 19.693 28.346 18.112 27.106 17.748 25.483M 37.507 26.254C 37.135 27.649 35.567 28.339 34.098 28.339C 31.961 28.339 30.195 27.028 30.195 23.456C 30.195 19.884 32.064 18.573 34.202 18.573C 35.709 18.573 37.359 19.41 37.592 20.915M 45.28 18.609C 43.899 18.419 42.651 19.319 42.009 20.619M 41.654 18.773L 41.654 28.123M 55.592 28.115L 55.591 18.767M 48.757 18.767L 48.757 24.821C 48.757 25.533 48.662 28.096 51.044 28.308C 53.135 28.493 54.408 27.653 55.11 26.47M 60.415 18.814L 60.415 28.162M 67.249 28.162L 67.238 21.47C 67.174 20.526 66.807 19.078 64.933 18.649C 62.993 18.205 61.513 19.248 60.777 20.595M 74.084 28.162L 74.084 22.108C 74.084 21.396 74.199 19.206 71.768 18.649C 69.739 18.184 68.205 19.347 67.504 20.783M 85.216 28.117L 85.224 14.978L 86.193 14.978L 91.496 28.115L 91.812 28.115L 97.131 14.978L 98.101 14.978L 98.095 28.117M 103.313 20.246C 103.677 19.28 105.093 18.567 106.433 18.567C 108.287 18.567 109.789 19.88 109.789 21.499L 109.795 22.957L 109.795 25.571C 109.795 26.614 109.77 27.353 110.072 28.278M 109.415 22.957L 106.687 22.957C 104.184 22.957 102.884 24.343 102.884 25.837C 102.884 27.331 104.122 28.341 105.738 28.341C 107.72 28.341 109.346 26.888 109.746 25.732M 120.783 20.381C 120.487 19.404 119.333 18.584 117.723 18.584C 115.835 18.584 114.615 19.447 114.524 20.751C 114.419 22.246 115.653 22.822 117.583 23.339C 119.277 23.797 121.22 24.277 121.066 26.122C 120.967 27.31 119.99 28.346 117.633 28.346C 115.727 28.346 114.65 27.53 114.315 26.424M 128.404 28.326C 126.995 28.465 126.137 27.732 126.137 26.387L 126.137 16.081M 128.287 18.642L 126.523 18.642M 124.027 18.642L 125.76 18.642M 138.962 27.218C 137.989 28.155 136.964 28.339 135.779 28.339C 133.71 28.339 131.846 27.028 131.846 23.456C 131.846 19.884 133.656 18.573 135.725 18.573C 137.793 18.573 139.397 19.63 139.397 23.201L 132.177 23.201M 147.05 18.609C 145.669 18.419 144.421 19.319 143.779 20.619M 143.424 18.773L 143.424 28.123"></path></g></g></g><g id="g-root-arro_1lt1ejo1tj1zpe-stroke" data-item-order="0" data-item-id="arro_1lt1ejo1tj1zpe" data-item-class="Icon Stroke" data-item-index="none" data-renderer-id="0" transform="translate(297, 141)"><g id="arro_1lt1ejo1tj1zpe-stroke" fill="none" stroke-linecap="round" stroke-linejoin="round" stroke-miterlimit="1.5" stroke="#CD6AFB" stroke-width="2"><g xmlns="http://www.w3.org/2000/svg"><path d="M 31.291 31.25C 31.291 32.688 32.457 33.854 33.895 33.854C 35.333 33.854 36.499 32.688 36.499 31.25C 36.499 29.812 35.333 28.646 33.895 28.646C 32.457 28.646 31.291 29.812 31.291 31.25M 32.159 39.063L 39.103 39.063C 38.687 37.437 37.536 36.099 35.991 35.444C 34.446 34.79 32.684 34.895 31.228 35.728M 13.501 31.25C 13.501 32.688 14.667 33.854 16.105 33.854C 17.543 33.854 18.709 32.688 18.709 31.25C 18.709 29.812 17.543 28.646 16.105 28.646C 14.667 28.646 13.501 29.812 13.501 31.25M 17.805 39.063L 10.898 39.063C 11.311 37.445 12.454 36.112 13.988 35.454C 15.523 34.797 17.276 34.89 18.733 35.706M 31.349 39.063C 31.381 36.767 30.175 34.632 28.192 33.475C 26.209 32.318 23.757 32.318 21.774 33.475C 19.792 34.632 18.585 36.767 18.618 39.062ZM 21.677 25.289C 23.483 27.16 26.258 27.718 28.646 26.69M 21.156 27.199C 21.156 29.276 22.84 30.96 24.918 30.96C 26.995 30.96 28.679 29.276 28.679 27.199C 28.679 25.121 26.995 23.438 24.918 23.438C 22.84 23.438 21.156 25.121 21.156 27.199M 33.107 25.938C 33.107 25.938 29.358 22.188 29.358 19.063L 34.982 19.063L 24.983 10.938L 14.983 19.063L 20.608 19.063C 20.608 22.188 16.858 25.938 16.858 25.938"></path></g></g></g><path id="cu_v6quw41tj1zpp" d="M73 25 L 70 25 L 69.9 25 A21.7 40.1 52.3 0 0 58.9 26.8 A4.2 22.9 51.9 0 0 49 32 A4.2 22.9 51.9 0 1 39.1 37.2 A21.7 40.1 52.3 0 1 28.1 39 L 28 39 L 25 39" transform="translate(324, 127)" style="fill:none;stroke-linecap:round;stroke-linejoin:round;stroke-miterlimit:1.5;stroke:#434343;stroke-width:2;stroke-dasharray:5, 7"></path><path id="cu_v6quw41tj1zpm" d="M25 25 L 28 25 L 28.1 25 A19.2 28.1 -39.8 0 1 40.4 28.5 A6.7 22.9 -25.8 0 1 49 38 A6.7 22.9 -25.8 0 0 57.6 47.5 A19.2 28.1 -39.8 0 0 69.9 51 L 70 51 L 73 51" transform="translate(624, 127)" style="fill:none;stroke-linecap:round;stroke-linejoin:round;stroke-miterlimit:1.5;stroke:#434343;stroke-width:2;stroke-dasharray:5, 7"></path><g id="g-root-assi_1uqju1w1tixszo-stroke" data-item-order="0" data-item-id="assi_1uqju1w1tixszo" data-item-class="Icon Stroke" data-item-index="none" data-renderer-id="0" transform="translate(297, 3)"><g id="assi_1uqju1w1tixszo-stroke" fill="none" stroke-linecap="round" stroke-linejoin="round" stroke-miterlimit="1.5" stroke="#4F92FF" stroke-width="2"><g xmlns="http://www.w3.org/2000/svg"><path d="M 21.645 32.123C 21.645 33.976 23.147 35.478 25 35.478C 26.853 35.478 28.355 33.976 28.355 32.123C 28.355 30.269 26.853 28.767 25 28.767C 23.147 28.767 21.645 30.269 21.645 32.123M 29.794 39.313C 28.849 37.543 27.006 36.437 25 36.437C 22.994 36.437 21.151 37.543 20.206 39.313M 31.383 32.123C 31.382 33.976 32.884 35.478 34.737 35.478C 36.591 35.478 38.093 33.976 38.092 32.123C 38.093 30.269 36.591 28.767 34.737 28.767C 32.884 28.767 31.382 30.269 31.382 32.123M 39.375 38.836C 38.251 37.25 36.395 36.348 34.454 36.444C 32.512 36.541 30.755 37.623 29.794 39.313M 11.908 32.123C 11.907 33.976 13.409 35.478 15.262 35.478C 17.116 35.478 18.618 33.976 18.618 32.123C 18.618 30.269 17.116 28.767 15.262 28.767C 13.409 28.767 11.907 30.269 11.908 32.123M 10.625 38.836C 11.749 37.25 13.605 36.348 15.546 36.444C 17.488 36.541 19.245 37.623 20.206 39.313M 38.59 19.204L 32.09 25.704L 28.894 26.343L 29.533 23.147L 36.033 16.647C 36.736 15.944 37.877 15.944 38.581 16.647L 38.589 16.655C 38.927 16.993 39.118 17.451 39.118 17.929C 39.118 18.407 38.928 18.866 38.59 19.204ZM 33.384 13.498L 30.171 10.688L 14.832 10.688L 14.832 25.067M 18.667 17.398L 19.945 18.676L 22.501 16.12M 18.667 23.789L 19.945 25.067L 22.501 22.51M 25.698 18.036L 27.615 18.036M 30.171 22.51L 32.728 25.067M 12.668 30C 14.235 31.56 16.417 32.339 18.618 32.125M 22.405 30C 23.973 31.559 26.154 32.338 28.355 32.125M 32.143 30C 33.711 31.56 35.892 32.339 38.094 32.125"></path></g></g></g><g id="g-root-4_qqxcro1tiqs5g-stroke" data-item-order="0" data-item-id="4_qqxcro1tiqs5g" data-item-class="Icon Stroke" data-item-index="none" data-renderer-id="0" transform="translate(699, 153)"><g id="4_qqxcro1tiqs5g-stroke" fill="none" stroke-linecap="round" stroke-linejoin="round" stroke-miterlimit="1.5" stroke="#F99539" stroke-width="2"><g xmlns="http://www.w3.org/2000/svg"><path d="M 16.767 16.875L 22.6 24.116C 23.088 24.604 23.088 25.396 22.6 25.884L 16.767 33.125M 39.009 24.116C 39.497 24.604 39.497 25.396 39.009 25.884L 32.759 32.759C 32.524 32.993 32.206 33.125 31.875 33.125L 24.898 33.125L 32.139 25.884C 32.627 25.396 32.627 24.604 32.139 24.116L 24.898 16.875L 31.875 16.875C 32.206 16.875 32.524 17.007 32.759 17.241ZM 21.875 16.875L 16.767 16.875M 21.875 33.125L 16.767 33.125M 13.75 16.875L 10.625 16.875M 13.75 33.125L 10.625 33.125"></path></g></g></g><g id="g-root-tx_entwickl_v6quw41tiqrd7-stroke" data-item-order="0" data-item-id="tx_entwickl_v6quw41tiqrd7" data-item-class="Label Stroke" data-item-index="none" data-renderer-id="0" transform="translate(735, 156)"><g id="tx_entwickl_v6quw41tiqrd7-stroke" fill="none" stroke-linecap="square" stroke-linejoin="miter" stroke-miterlimit="4" stroke="#F99539" stroke-width="2"><g xmlns="http://www.w3.org/2000/svg"><path d="M 26.178 28.137L 18.614 28.142L 18.614 14.95C 19.562 14.95 24.736 14.95 26.136 14.95M 25.124 21.297L 19.078 21.297M 30.219 18.78L 30.219 28.128M 37.053 28.128L 37.053 22.074C 37.053 21.362 37.149 18.79 34.766 18.587C 33.008 18.437 31.319 19.562 30.543 20.956M 44.799 28.326C 43.39 28.465 42.532 27.732 42.532 26.387L 42.532 16.081M 44.682 18.642L 42.918 18.642M 40.422 18.642L 42.155 18.642M 47.908 18.69L 50.623 28.119L 51.001 28.119L 53.943 18.782L 54.378 18.782L 57.384 28.119L 57.734 28.119L 60.451 18.69M 64.648 14.971L 64.672 14.971M 64.632 18.804L 64.632 28.145M 76.372 26.254C 76 27.649 74.432 28.339 72.963 28.339C 70.826 28.339 69.06 27.028 69.06 23.456C 69.06 19.884 70.929 18.573 73.067 18.573C 74.574 18.573 76.224 19.41 76.457 20.915M 80.535 14.125L 80.535 28.126M 86.458 18.61L 80.922 24.462M 87.119 28.284L 83.002 22.785M 91.336 14.125L 91.336 28.126M 102.897 27.218C 101.924 28.155 100.899 28.339 99.714 28.339C 97.645 28.339 95.781 27.028 95.781 23.456C 95.781 19.884 97.591 18.573 99.66 18.573C 101.728 18.573 103.332 19.63 103.332 23.201L 96.112 23.201M 110.985 18.609C 109.604 18.419 108.356 19.319 107.714 20.619M 107.359 18.773L 107.359 28.123"></path></g></g></g><g id="g-root-tx_wirksamk_18ntn1g1titlan-stroke" data-item-order="0" data-item-id="tx_wirksamk_18ntn1g1titlan" data-item-class="Label Stroke" data-item-index="none" data-renderer-id="0" transform="translate(-9, 195)"><g id="tx_wirksamk_18ntn1g1titlan-stroke" fill="none" stroke-linecap="square" stroke-linejoin="miter" stroke-miterlimit="4" stroke="#CCCCCC" stroke-width="2"><g xmlns="http://www.w3.org/2000/svg"><path d="M 15.522 14.93L 18.576 28.104L 19.154 28.104L 22.83 14.932L 23.376 14.932L 27.033 28.104L 27.63 28.104L 30.683 14.93M 34.893 14.971L 34.917 14.971M 34.877 18.804L 34.877 28.145M 43.41 18.609C 42.029 18.419 40.781 19.319 40.139 20.619M 39.784 18.773L 39.784 28.123M 46.91 14.125L 46.91 28.126M 52.833 18.61L 47.297 24.462M 53.494 28.284L 49.377 22.785M 63.733 20.381C 63.437 19.404 62.283 18.584 60.673 18.584C 58.785 18.584 57.565 19.447 57.474 20.751C 57.369 22.246 58.603 22.822 60.533 23.339C 62.227 23.797 64.17 24.277 64.016 26.122C 63.917 27.31 62.94 28.346 60.583 28.346C 58.677 28.346 57.6 27.53 57.265 26.424M 68.503 20.246C 68.867 19.28 70.283 18.567 71.623 18.567C 73.477 18.567 74.979 19.88 74.979 21.499L 74.985 22.957L 74.985 25.571C 74.985 26.614 74.96 27.353 75.262 28.278M 74.605 22.957L 71.877 22.957C 69.374 22.957 68.074 24.343 68.074 25.837C 68.074 27.331 69.312 28.341 70.928 28.341C 72.91 28.341 74.536 26.888 74.936 25.732M 79.835 18.814L 79.835 28.162M 86.669 28.162L 86.658 21.47C 86.594 20.526 86.227 19.078 84.353 18.649C 82.413 18.205 80.933 19.248 80.197 20.595M 93.504 28.162L 93.504 22.108C 93.504 21.396 93.619 19.206 91.188 18.649C 89.159 18.184 87.624 19.347 86.924 20.783M 98.28 14.125L 98.28 28.126M 104.203 18.61L 98.667 24.462M 104.864 28.284L 100.747 22.785M 115.592 27.218C 114.619 28.155 113.594 28.339 112.409 28.339C 110.34 28.339 108.477 27.028 108.477 23.456C 108.477 19.884 110.286 18.573 112.355 18.573C 114.423 18.573 116.027 19.63 116.027 23.201L 108.807 23.201M 120.253 14.971L 120.277 14.971M 120.237 18.804L 120.237 28.145M 128.134 28.326C 126.725 28.465 125.867 27.732 125.867 26.387L 125.867 16.081M 128.017 18.642L 126.253 18.642M 123.757 18.642L 125.49 18.642M 145.045 28.124L 145.045 14.123M 144.685 26.773C 143.823 27.871 142.725 28.34 141.415 28.34C 139.234 28.34 137.582 27.029 137.582 23.458C 137.582 19.886 139.339 18.575 141.521 18.575C 142.79 18.575 144 19.114 144.685 20.175M 156.542 27.218C 155.569 28.155 154.544 28.339 153.359 28.339C 151.29 28.339 149.426 27.028 149.426 23.456C 149.426 19.884 151.236 18.573 153.305 18.573C 155.373 18.573 156.977 19.63 156.977 23.201L 149.757 23.201M 167.183 20.381C 166.887 19.404 165.733 18.584 164.123 18.584C 162.235 18.584 161.015 19.447 160.924 20.751C 160.819 22.246 162.053 22.822 163.983 23.339C 165.677 23.797 167.62 24.277 167.466 26.122C 167.367 27.31 166.39 28.346 164.033 28.346C 162.127 28.346 161.05 27.53 160.715 26.424M 186.051 17.457C 185.62 15.893 184 14.732 181.911 14.732C 179.463 14.732 177.762 15.931 177.762 17.754C 177.762 19.724 179.226 20.685 181.73 21.406C 183.928 22.045 186.165 22.813 186.165 25.288C 186.165 26.951 184.852 28.346 181.795 28.346C 179.323 28.346 177.742 27.106 177.378 25.483M 197.137 26.254C 196.765 27.649 195.197 28.339 193.728 28.339C 191.591 28.339 189.825 27.028 189.825 23.456C 189.825 19.884 191.694 18.573 193.832 18.573C 195.339 18.573 196.989 19.41 197.222 20.915M 204.91 18.609C 203.529 18.419 202.281 19.319 201.639 20.619M 201.284 18.773L 201.284 28.123M 215.222 28.115L 215.221 18.767M 208.387 18.767L 208.387 24.821C 208.387 25.533 208.292 28.096 210.674 28.308C 212.765 28.493 214.038 27.653 214.74 26.47M 220.045 18.814L 220.045 28.162M 226.879 28.162L 226.868 21.47C 226.804 20.526 226.437 19.078 224.563 18.649C 222.623 18.205 221.143 19.248 220.407 20.595M 233.714 28.162L 233.714 22.108C 233.714 21.396 233.829 19.206 231.398 18.649C 229.369 18.184 227.835 19.347 227.134 20.783M 237.376 22.65L 240.631 22.65M 253.098 14.945C 249.835 14.945 246.572 14.95 243.309 14.95M 248.195 28.124L 248.195 15.456M 263.502 27.218C 262.529 28.155 261.504 28.339 260.319 28.339C 258.25 28.339 256.387 27.028 256.387 23.456C 256.387 19.884 258.196 18.573 260.265 18.573C 262.333 18.573 263.937 19.63 263.937 23.201L 256.717 23.201M 268.103 20.246C 268.467 19.28 269.883 18.567 271.223 18.567C 273.077 18.567 274.579 19.88 274.579 21.499L 274.585 22.957L 274.585 25.571C 274.585 26.614 274.56 27.353 274.862 28.278M 274.205 22.957L 271.477 22.957C 268.974 22.957 267.674 24.343 267.674 25.837C 267.674 27.331 268.912 28.341 270.528 28.341C 272.51 28.341 274.136 26.888 274.536 25.732M 279.435 18.814L 279.435 28.162M 286.269 28.162L 286.258 21.47C 286.194 20.526 285.827 19.078 283.953 18.649C 282.013 18.205 280.533 19.248 279.797 20.595M 293.104 28.162L 293.104 22.108C 293.104 21.396 293.219 19.206 290.788 18.649C 288.759 18.184 287.224 19.347 286.524 20.783M 304.043 20.381C 303.747 19.404 302.593 18.584 300.983 18.584C 299.095 18.584 297.875 19.447 297.784 20.751C 297.679 22.246 298.913 22.822 300.843 23.339C 302.537 23.797 304.48 24.277 304.326 26.122C 304.227 27.31 303.25 28.346 300.893 28.346C 298.987 28.346 297.91 27.53 297.575 26.424M 109.363 44.381C 109.067 43.404 107.913 42.584 106.303 42.584C 104.415 42.584 103.195 43.447 103.104 44.751C 102.999 46.246 104.233 46.822 106.163 47.339C 107.857 47.797 109.8 48.277 109.646 50.122C 109.547 51.311 108.57 52.346 106.213 52.346C 104.307 52.346 103.23 51.53 102.895 50.424M 114.193 38.971L 114.217 38.971M 114.177 42.804L 114.177 52.145M 125.917 50.254C 125.545 51.649 123.977 52.339 122.508 52.339C 120.371 52.339 118.605 51.028 118.605 47.456C 118.605 43.884 120.474 42.573 122.612 42.573C 124.119 42.573 125.769 43.41 126.002 44.915M 130.073 38.086L 130.073 52.128M 136.937 52.128L 136.937 46.074C 136.937 45.362 137.033 42.791 134.64 42.587C 132.886 42.439 131.201 43.547 130.414 44.928M 148.302 51.218C 147.329 52.155 146.304 52.339 145.119 52.339C 143.05 52.339 141.187 51.028 141.187 47.456C 141.187 43.884 142.996 42.573 145.065 42.573C 147.133 42.573 148.737 43.63 148.737 47.201L 141.517 47.201M 156.39 42.609C 155.009 42.419 153.761 43.319 153.119 44.619M 152.764 42.773L 152.764 52.123M 166.053 44.381C 165.757 43.404 164.603 42.584 162.993 42.584C 161.105 42.584 159.885 43.447 159.794 44.751C 159.689 46.246 160.923 46.822 162.853 47.339C 164.547 47.797 166.49 48.277 166.336 50.122C 166.237 51.311 165.26 52.346 162.903 52.346C 160.997 52.346 159.92 51.53 159.585 50.424M 173.674 52.326C 172.265 52.465 171.407 51.732 171.407 50.387L 171.407 40.081M 173.557 42.642L 171.793 42.642M 169.297 42.642L 171.03 42.642M 184.232 51.218C 183.259 52.155 182.234 52.339 181.049 52.339C 178.98 52.339 177.117 51.028 177.117 47.456C 177.117 43.884 178.926 42.573 180.995 42.573C 183.063 42.573 184.667 43.63 184.667 47.201L 177.447 47.201M 188.851 38.125L 188.851 52.126M 193.901 38.125L 193.901 52.126M 205.462 51.218C 204.489 52.155 203.464 52.339 202.279 52.339C 200.21 52.339 198.346 51.028 198.346 47.456C 198.346 43.884 200.156 42.573 202.225 42.573C 204.293 42.573 205.897 43.63 205.897 47.201L 198.677 47.201M 209.944 42.78L 209.944 52.128M 216.778 52.128L 216.778 46.074C 216.778 45.362 216.874 42.79 214.491 42.587C 212.733 42.437 211.044 43.562 210.268 44.956"></path></g></g></g><path id="cu_hvacis1tj222p" d="M43 25 L 43 29.5 L 43 49 A12 12 61 0 1 31 61 L 30.9 61 L 25 61" transform="translate(282, 168)" style="fill:none;stroke-linecap:round;stroke-linejoin:round;stroke-miterlimit:1.5;stroke:#434343;stroke-width:2;stroke-dasharray:5, 7"></path><path id="cu_dfguec1tj2232" d="M25 25 L 25 28 L 25 37 A12 12 45 0 0 37 49 L 37.1 49 L 43 49" transform="translate(696, 180)" style="fill:none;stroke-linecap:round;stroke-linejoin:round;stroke-miterlimit:1.5;stroke:#434343;stroke-width:2;stroke-dasharray:5, 7"></path><g id="g-root-tx_scrumtea_59a781tixsej-stroke" data-item-order="0" data-item-id="tx_scrumtea_59a781tixsej" data-item-class="Label Stroke" data-item-index="none" data-renderer-id="0" transform="translate(159, 6)"><g id="tx_scrumtea_59a781tixsej-stroke" fill="none" stroke-linecap="square" stroke-linejoin="miter" stroke-miterlimit="4" stroke="#4F92FF" stroke-width="2"><g xmlns="http://www.w3.org/2000/svg"><path d="M 26.571 17.457C 26.14 15.893 24.52 14.732 22.431 14.732C 19.983 14.732 18.282 15.931 18.282 17.754C 18.282 19.724 19.746 20.685 22.251 21.406C 24.448 22.045 26.685 22.813 26.685 25.288C 26.685 26.951 25.372 28.346 22.315 28.346C 19.843 28.346 18.262 27.106 17.898 25.483M 37.657 26.254C 37.285 27.649 35.717 28.339 34.248 28.339C 32.111 28.339 30.345 27.028 30.345 23.456C 30.345 19.884 32.214 18.573 34.352 18.573C 35.859 18.573 37.509 19.41 37.742 20.915M 45.43 18.609C 44.049 18.419 42.801 19.319 42.159 20.619M 41.804 18.773L 41.804 28.123M 55.742 28.115L 55.741 18.767M 48.907 18.767L 48.907 24.821C 48.907 25.533 48.812 28.096 51.194 28.308C 53.285 28.493 54.558 27.653 55.26 26.47M 60.565 18.814L 60.565 28.162M 67.399 28.162L 67.388 21.47C 67.324 20.526 66.957 19.078 65.083 18.649C 63.143 18.205 61.663 19.248 60.927 20.595M 74.234 28.162L 74.234 22.108C 74.234 21.396 74.349 19.206 71.918 18.649C 69.889 18.184 68.354 19.347 67.654 20.783M 77.896 22.65L 81.151 22.65M 93.618 14.945C 90.355 14.945 87.092 14.95 83.829 14.95M 88.715 28.124L 88.715 15.456M 104.022 27.218C 103.049 28.155 102.024 28.339 100.839 28.339C 98.77 28.339 96.907 27.028 96.907 23.456C 96.907 19.884 98.716 18.573 100.785 18.573C 102.853 18.573 104.457 19.63 104.457 23.201L 97.237 23.201M 108.623 20.246C 108.987 19.28 110.403 18.567 111.743 18.567C 113.597 18.567 115.099 19.88 115.099 21.499L 115.105 22.957L 115.105 25.571C 115.105 26.614 115.08 27.353 115.382 28.278M 114.725 22.957L 111.997 22.957C 109.494 22.957 108.194 24.343 108.194 25.837C 108.194 27.331 109.432 28.341 111.048 28.341C 113.03 28.341 114.656 26.888 115.056 25.732M 119.955 18.814L 119.955 28.162M 126.789 28.162L 126.778 21.47C 126.714 20.526 126.347 19.078 124.473 18.649C 122.533 18.205 121.053 19.248 120.317 20.595M 133.624 28.162L 133.624 22.108C 133.624 21.396 133.739 19.206 131.308 18.649C 129.279 18.184 127.744 19.347 127.044 20.783"></path></g></g></g><g id="g-root-tx_producto_4o75r81timkgd-stroke" data-item-order="0" data-item-id="tx_producto_4o75r81timkgd" data-item-class="Label Stroke" data-item-index="none" data-renderer-id="0" transform="translate(735, 18)"><g id="tx_producto_4o75r81timkgd-stroke" fill="none" stroke-linecap="square" stroke-linejoin="miter" stroke-miterlimit="4" stroke="#44E095" stroke-width="2"><g xmlns="http://www.w3.org/2000/svg"><path d="M 14.881 28.131L 14.881 14.944L 20.16 14.928C 21.258 14.967 23.643 15.749 23.643 18.572C 23.643 21.394 21.258 22.254 20.16 22.331L 15.409 22.345M 31.365 18.609C 29.984 18.419 28.736 19.319 28.094 20.619M 27.739 18.773L 27.739 28.123M 42.667 23.457C 42.667 26.522 40.796 28.34 38.488 28.34C 36.18 28.34 34.309 26.522 34.309 23.457C 34.309 20.392 36.18 18.573 38.488 18.573C 40.796 18.573 42.667 20.392 42.667 23.457ZM 53.86 28.124L 53.86 14.123M 53.5 26.773C 52.638 27.871 51.54 28.34 50.23 28.34C 48.049 28.34 46.397 27.029 46.397 23.458C 46.397 19.886 48.154 18.575 50.336 18.575C 51.605 18.575 52.815 19.114 53.5 20.175M 65.517 28.115L 65.516 18.767M 58.682 18.767L 58.682 24.821C 58.682 25.533 58.587 28.096 60.969 28.308C 63.06 28.493 64.333 27.653 65.035 26.47M 77.132 26.254C 76.76 27.649 75.192 28.339 73.723 28.339C 71.586 28.339 69.82 27.028 69.82 23.456C 69.82 19.884 71.689 18.573 73.827 18.573C 75.334 18.573 76.984 19.41 77.217 20.915M 84.269 28.326C 82.86 28.465 82.002 27.732 82.002 26.387L 82.002 16.081M 84.152 18.642L 82.388 18.642M 79.892 18.642L 81.625 18.642M 93.983 21.438C 93.983 26.143 96.03 28.326 99.038 28.326C 102.047 28.326 104.093 26.143 104.093 21.438C 104.093 16.733 101.877 14.721 99.038 14.721C 96.2 14.721 93.983 16.733 93.983 21.438ZM 107.828 18.69L 110.543 28.119L 110.921 28.119L 113.863 18.782L 114.298 18.782L 117.304 28.119L 117.654 28.119L 120.371 18.69M 124.389 18.78L 124.389 28.128M 131.223 28.128L 131.223 22.074C 131.223 21.362 131.319 18.79 128.936 18.587C 127.178 18.437 125.489 19.562 124.713 20.956M 142.647 27.218C 141.674 28.155 140.649 28.339 139.464 28.339C 137.395 28.339 135.531 27.028 135.531 23.456C 135.531 19.884 137.341 18.573 139.41 18.573C 141.478 18.573 143.082 19.63 143.082 23.201L 135.862 23.201M 150.735 18.609C 149.354 18.419 148.106 19.319 147.464 20.619M 147.109 18.773L 147.109 28.123"></path></g></g></g></g></svg>