<?xml version="1.0" encoding="utf-8" standalone="yes"?>
<!DOCTYPE svg PUBLIC "-//W3C//DTD SVG 1.1//EN" "http://www.w3.org/Graphics/SVG/1.1/DTD/svg11.dtd">
<svg width="770" height="500" viewBox="0 0 770 500" style="fill:none;stroke:none;fill-rule:evenodd;clip-rule:evenodd;stroke-linecap:round;stroke-linejoin:round;stroke-miterlimit:1.5;" version="1.1" xmlns="http://www.w3.org/2000/svg" xmlns:xlink="http://www.w3.org/1999/xlink"><g id="blend" style="mix-blend-mode:multiply"><g id="g-root-ro_1ly0ukk1q6q0hw-fill" data-item-order="-27144" data-item-id="ro_1ly0ukk1q6q0hw" data-item-class="Shape Stroke Fill" data-item-index="none" data-renderer-id="0" transform="translate(351, 153)"><g id="ro_1ly0ukk1q6q0hw-fill" stroke="none" fill="#606060"><g xmlns="http://www.w3.org/2000/svg"><path d="M 34 10L 142 10C 142 10 166 10 166 34L 166 160C 166 160 166 184 142 184L 34 184C 34 184 10 184 10 160L 10 34C 10 34 10 10 34 10"></path></g></g></g><g id="g-root-ro_1hitwp01q6uadd-fill" data-item-order="-12960" data-item-id="ro_1hitwp01q6uadd" data-item-class="Shape Stroke Fill" data-item-index="none" data-renderer-id="0" transform="translate(139, -9)"><g id="ro_1hitwp01q6uadd-fill" stroke="none" fill="#224754"><g xmlns="http://www.w3.org/2000/svg"><path d="M 22 10L 238 10C 238 10 250 10 250 22L 250 52C 250 52 250 64 238 64L 22 64C 22 64 10 64 10 52L 10 22C 10 22 10 10 22 10"></path></g></g></g><g id="g-root-ro_zkol381q72n0s-fill" data-item-order="-12312" data-item-id="ro_zkol381q72n0s" data-item-class="Shape Stroke Fill" data-item-index="none" data-renderer-id="0" transform="translate(479, 363)"><g id="ro_zkol381q72n0s-fill" stroke="none" fill="#562d69"><g xmlns="http://www.w3.org/2000/svg"><path d="M 22 10L 226 10C 226 10 238 10 238 22L 238 52C 238 52 238 64 226 64L 22 64C 22 64 10 64 10 52L 10 22C 10 22 10 10 22 10"></path></g></g></g><g id="g-root-ro_8xrnic1q6svlv-fill" data-item-order="-11664" data-item-id="ro_8xrnic1q6svlv" data-item-class="Shape Stroke Fill" data-item-index="none" data-renderer-id="0" transform="translate(163, 363)"><g id="ro_8xrnic1q6svlv-fill" stroke="none" fill="#5a3f27"><g xmlns="http://www.w3.org/2000/svg"><path d="M 22 10L 214 10C 214 10 226 10 226 22L 226 52C 226 52 226 64 214 64L 22 64C 22 64 10 64 10 52L 10 22C 10 22 10 10 22 10"></path></g></g></g><g id="g-root-ro_1uljop01q79o94-fill" data-item-order="-11016" data-item-id="ro_1uljop01q79o94" data-item-class="Shape Stroke Fill" data-item-index="none" data-renderer-id="0" transform="translate(479, -9)"><g id="ro_1uljop01q79o94-fill" stroke="none" fill="#692e2c"><g xmlns="http://www.w3.org/2000/svg"><path d="M 22 10L 202 10C 202 10 214 10 214 22L 214 52C 214 52 214 64 202 64L 22 64C 22 64 10 64 10 52L 10 22C 10 22 10 10 22 10"></path></g></g></g><g id="g-root-ro_v8lxhg1q6x3i8-fill" data-item-order="-9072" data-item-id="ro_v8lxhg1q6x3i8" data-item-class="Shape Stroke Fill" data-item-index="none" data-renderer-id="0" transform="translate(555, 141)"><g id="ro_v8lxhg1q6x3i8-fill" stroke="none" fill="#293f64"><g xmlns="http://www.w3.org/2000/svg"><path d="M 22 10L 166 10C 166 10 178 10 178 22L 178 52C 178 52 178 64 166 64L 22 64C 22 64 10 64 10 52L 10 22C 10 22 10 10 22 10"></path></g></g></g><g id="g-root-ro_1lw5ih01q6q13h-fill" data-item-order="-7776" data-item-id="ro_1lw5ih01q6q13h" data-item-class="Shape Stroke Fill" data-item-index="none" data-renderer-id="0" transform="translate(159, 141)"><g id="ro_1lw5ih01q6q13h-fill" stroke="none" fill="#2b503e"><g xmlns="http://www.w3.org/2000/svg"><path d="M 22 10L 142 10C 142 10 154 10 154 22L 154 52C 154 52 154 64 142 64L 22 64C 22 64 10 64 10 52L 10 22C 10 22 10 10 22 10"></path></g></g></g><g id="g-root-tx_verantwo_dl2ric1q78aoe-fill" data-item-order="0" data-item-id="tx_verantwo_dl2ric1q78aoe" data-item-class="Label Stroke" data-item-index="none" data-renderer-id="0" transform="translate(527, 6)"></g><g id="g-root-tx_keinesub_1cw53gk1q79pmq-fill" data-item-order="0" data-item-id="tx_keinesub_1cw53gk1q79pmq" data-item-class="Label Stroke" data-item-index="none" data-renderer-id="0" transform="translate(163, 57)"></g><g id="g-root-tx_teamerfo_qpo1xg1q79ouk-fill" data-item-order="0" data-item-id="tx_teamerfo_qpo1xg1q79ouk" data-item-class="Label Stroke" data-item-index="none" data-renderer-id="0" transform="translate(527, 57)"></g><g id="g-root-tx_flachest_140i37o1q79qff-fill" data-item-order="0" data-item-id="tx_flachest_140i37o1q79qff" data-item-class="Label Stroke" data-item-index="none" data-renderer-id="0" transform="translate(175, 93)"></g><g id="g-root-tx_inkremen_m9ujt01q79pmt-fill" data-item-order="0" data-item-id="tx_inkremen_m9ujt01q79pmt" data-item-class="Label Stroke" data-item-index="none" data-renderer-id="0" transform="translate(527, 93)"></g><g id="g-root-shar_1ursipw1q6q0as-fill" data-item-order="0" data-item-id="shar_1ursipw1q6q0as" data-item-class="Icon Stroke" data-item-index="none" data-renderer-id="0" transform="translate(261, 153)"></g><g id="g-root-tx_arbeitsa_1hbyll01q79ouh-fill" data-item-order="0" data-item-id="tx_arbeitsa_1hbyll01q79ouh" data-item-class="Label Stroke" data-item-index="none" data-renderer-id="0" transform="translate(527, 465)"></g><g id="g-root-tx_kohsiv_91ii101q6q22r-fill" data-item-order="0" data-item-id="tx_kohsiv_91ii101q6q22r" data-item-class="Label Stroke" data-item-index="none" data-renderer-id="0" transform="translate(171, 156)"></g><g id="g-root-goal_zofflw1q6x2pz-fill" data-item-order="0" data-item-id="goal_zofflw1q6x2pz" data-item-class="Icon Stroke" data-item-index="none" data-renderer-id="0" transform="translate(567, 153)"></g><g id="g-root-tx_fokussie_1448xqc1q6x1xq-fill" data-item-order="0" data-item-id="tx_fokussie_1448xqc1q6x1xq" data-item-class="Label Stroke" data-item-index="none" data-renderer-id="0" transform="translate(603, 156)"></g><g id="g-root-scru_7qtvo1q6q29v-fill" data-item-order="0" data-item-id="scru_7qtvo1q6q29v" data-item-class="Icon Stroke" data-item-index="none" data-renderer-id="0" transform="translate(405, 177)"></g><g id="g-root-tx_engerzus_1q5q6kk1q79p1d-fill" data-item-order="0" data-item-id="tx_engerzus_1q5q6kk1q79p1d" data-item-class="Label Stroke" data-item-index="none" data-renderer-id="0" transform="translate(27, 207)"></g><g id="g-root-tx_wertschp_qnsmo41q79pu4-fill" data-item-order="0" data-item-id="tx_wertschp_qnsmo41q79pu4" data-item-class="Label Stroke" data-item-index="none" data-renderer-id="0" transform="translate(603, 207)"></g><g id="g-root-tx_gegensei_1ha36bo1q79pu2-fill" data-item-order="0" data-item-id="tx_gegensei_1ha36bo1q79pu2" data-item-class="Label Stroke" data-item-index="none" data-renderer-id="0" transform="translate(-9, 243)"></g><g id="g-root-tx_scrumtea_dj7c901q6q0oy-fill" data-item-order="0" data-item-id="tx_scrumtea_dj7c901q6q0oy" data-item-class="Label Stroke" data-item-index="none" data-renderer-id="0" transform="translate(375, 231)"></g><g id="g-root-tx_produktz_m7z4jo1q79qmd-fill" data-item-order="0" data-item-id="tx_produktz_m7z4jo1q79qmd" data-item-class="Label Stroke" data-item-index="none" data-renderer-id="0" transform="translate(603, 243)"></g><g id="g-root-tx_vertraue_zjfmx01q79p1f-fill" data-item-order="0" data-item-id="tx_vertraue_zjfmx01q79p1f" data-item-class="Label Stroke" data-item-index="none" data-renderer-id="0" transform="translate(75, 279)"></g><g id="g-root-cog_9599dw1q78bgn-fill" data-item-order="0" data-item-id="cog_9599dw1q78bgn" data-item-class="Icon Stroke" data-item-index="none" data-renderer-id="0" transform="translate(491, 3)"></g><g id="g-root-6_1lynetg1q6u9l4-fill" data-item-order="0" data-item-id="6_1lynetg1q6u9l4" data-item-class="Icon Stroke" data-item-index="none" data-renderer-id="0" transform="translate(337, 3)"></g><g id="g-root-tx_kreuzfun_m985vo1q6su0x-fill" data-item-order="0" data-item-id="tx_kreuzfun_m985vo1q6su0x" data-item-class="Label Stroke" data-item-index="none" data-renderer-id="0" transform="translate(175, 378)"></g><g id="g-root-1_ddl5ms1q6sutm-fill" data-item-order="0" data-item-id="1_ddl5ms1q6sutm" data-item-class="Icon Stroke" data-item-index="none" data-renderer-id="0" transform="translate(337, 375)"></g><g id="g-root-medi_18fp4901q72pdv-fill" data-item-order="0" data-item-id="medi_18fp4901q72pdv" data-item-class="Icon Stroke" data-item-index="none" data-renderer-id="0" transform="translate(491, 375)"></g><g id="g-root-tx_selbstor_1lr5mmc1q72nsy-fill" data-item-order="0" data-item-id="tx_selbstor_1lr5mmc1q72nsy" data-item-class="Label Stroke" data-item-index="none" data-renderer-id="0" transform="translate(527, 378)"></g><g id="g-root-tx_vielflti_dcyldw1q79o9a-fill" data-item-order="0" data-item-id="tx_vielflti_dcyldw1q79o9a" data-item-class="Label Stroke" data-item-index="none" data-renderer-id="0" transform="translate(115, 429)"></g><g id="g-root-tx_entschei_1umsmv81q79qfc-fill" data-item-order="0" data-item-id="tx_entschei_1umsmv81q79qfc" data-item-class="Label Stroke" data-item-index="none" data-renderer-id="0" transform="translate(527, 429)"></g><g id="g-root-tx_erfahrun_1i30k1q79pu7-fill" data-item-order="0" data-item-id="tx_erfahrun_1i30k1q79pu7" data-item-class="Label Stroke" data-item-index="none" data-renderer-id="0" transform="translate(163, 465)"></g><g id="g-root-tx_nichthie_1qegwxw1q6u8sv-fill" data-item-order="0" data-item-id="tx_nichthie_1qegwxw1q6u8sv" data-item-class="Label Stroke" data-item-index="none" data-renderer-id="0" transform="translate(151, 6)"></g><g id="g-root-ro_1ly0ukk1q6q0hw-stroke" data-item-order="-27144" data-item-id="ro_1ly0ukk1q6q0hw" data-item-class="Shape Stroke Fill" data-item-index="none" data-renderer-id="0" transform="translate(351, 153)"><g id="ro_1ly0ukk1q6q0hw-stroke" fill="none" stroke-linecap="round" stroke-linejoin="round" stroke-miterlimit="1.5" stroke="#CCCCCC" stroke-width="2"><g xmlns="http://www.w3.org/2000/svg"><path d="M 34 10L 142 10C 142 10 166 10 166 34L 166 160C 166 160 166 184 142 184L 34 184C 34 184 10 184 10 160L 10 34C 10 34 10 10 34 10"></path></g></g></g><g id="g-root-ro_1hitwp01q6uadd-stroke" data-item-order="-12960" data-item-id="ro_1hitwp01q6uadd" data-item-class="Shape Stroke Fill" data-item-index="none" data-renderer-id="0" transform="translate(139, -9)"><g id="ro_1hitwp01q6uadd-stroke" fill="none" stroke-linecap="round" stroke-linejoin="round" stroke-miterlimit="1.5" stroke="#1AC6FF" stroke-width="2"><g xmlns="http://www.w3.org/2000/svg"><path d="M 22 10L 238 10C 238 10 250 10 250 22L 250 52C 250 52 250 64 238 64L 22 64C 22 64 10 64 10 52L 10 22C 10 22 10 10 22 10"></path></g></g></g><g id="g-root-ro_zkol381q72n0s-stroke" data-item-order="-12312" data-item-id="ro_zkol381q72n0s" data-item-class="Shape Stroke Fill" data-item-index="none" data-renderer-id="0" transform="translate(479, 363)"><g id="ro_zkol381q72n0s-stroke" fill="none" stroke-linecap="round" stroke-linejoin="round" stroke-miterlimit="1.5" stroke="#CD6AFB" stroke-width="2"><g xmlns="http://www.w3.org/2000/svg"><path d="M 22 10L 226 10C 226 10 238 10 238 22L 238 52C 238 52 238 64 226 64L 22 64C 22 64 10 64 10 52L 10 22C 10 22 10 10 22 10"></path></g></g></g><g id="g-root-ro_8xrnic1q6svlv-stroke" data-item-order="-11664" data-item-id="ro_8xrnic1q6svlv" data-item-class="Shape Stroke Fill" data-item-index="none" data-renderer-id="0" transform="translate(163, 363)"><g id="ro_8xrnic1q6svlv-stroke" fill="none" stroke-linecap="round" stroke-linejoin="round" stroke-miterlimit="1.5" stroke="#F99539" stroke-width="2"><g xmlns="http://www.w3.org/2000/svg"><path d="M 22 10L 214 10C 214 10 226 10 226 22L 226 52C 226 52 226 64 214 64L 22 64C 22 64 10 64 10 52L 10 22C 10 22 10 10 22 10"></path></g></g></g><g id="g-root-ro_1uljop01q79o94-stroke" data-item-order="-11016" data-item-id="ro_1uljop01q79o94" data-item-class="Shape Stroke Fill" data-item-index="none" data-renderer-id="0" transform="translate(479, -9)"><g id="ro_1uljop01q79o94-stroke" fill="none" stroke-linecap="round" stroke-linejoin="round" stroke-miterlimit="1.5" stroke="#FD6A65" stroke-width="2"><g xmlns="http://www.w3.org/2000/svg"><path d="M 22 10L 202 10C 202 10 214 10 214 22L 214 52C 214 52 214 64 202 64L 22 64C 22 64 10 64 10 52L 10 22C 10 22 10 10 22 10"></path></g></g></g><g id="g-root-ro_v8lxhg1q6x3i8-stroke" data-item-order="-9072" data-item-id="ro_v8lxhg1q6x3i8" data-item-class="Shape Stroke Fill" data-item-index="none" data-renderer-id="0" transform="translate(555, 141)"><g id="ro_v8lxhg1q6x3i8-stroke" fill="none" stroke-linecap="round" stroke-linejoin="round" stroke-miterlimit="1.5" stroke="#4F92FF" stroke-width="2"><g xmlns="http://www.w3.org/2000/svg"><path d="M 22 10L 166 10C 166 10 178 10 178 22L 178 52C 178 52 178 64 166 64L 22 64C 22 64 10 64 10 52L 10 22C 10 22 10 10 22 10"></path></g></g></g><g id="g-root-ro_1lw5ih01q6q13h-stroke" data-item-order="-7776" data-item-id="ro_1lw5ih01q6q13h" data-item-class="Shape Stroke Fill" data-item-index="none" data-renderer-id="0" transform="translate(159, 141)"><g id="ro_1lw5ih01q6q13h-stroke" fill="none" stroke-linecap="round" stroke-linejoin="round" stroke-miterlimit="1.5" stroke="#44E095" stroke-width="2"><g xmlns="http://www.w3.org/2000/svg"><path d="M 22 10L 142 10C 142 10 154 10 154 22L 154 52C 154 52 154 64 142 64L 22 64C 22 64 10 64 10 52L 10 22C 10 22 10 10 22 10"></path></g></g></g><g id="g-root-tx_verantwo_dl2ric1q78aoe-stroke" data-item-order="0" data-item-id="tx_verantwo_dl2ric1q78aoe" data-item-class="Label Stroke" data-item-index="none" data-renderer-id="0" transform="translate(527, 6)"><g id="tx_verantwo_dl2ric1q78aoe-stroke" fill="none" stroke-linecap="square" stroke-linejoin="miter" stroke-miterlimit="4" stroke="#FD6A65" stroke-width="2"><g xmlns="http://www.w3.org/2000/svg"><path d="M 25.722 14.93L 20.984 28.103L 20.423 28.103L 15.7 14.93M 36.417 27.218C 35.444 28.155 34.419 28.339 33.234 28.339C 31.165 28.339 29.302 27.028 29.302 23.456C 29.302 19.884 31.111 18.573 33.18 18.573C 35.248 18.573 36.852 19.63 36.852 23.201L 29.632 23.201M 44.505 18.609C 43.124 18.419 41.876 19.319 41.234 20.619M 40.879 18.773L 40.879 28.123M 48.128 20.246C 48.492 19.28 49.908 18.567 51.248 18.567C 53.102 18.567 54.604 19.88 54.604 21.499L 54.61 22.957L 54.61 25.571C 54.61 26.614 54.585 27.353 54.887 28.278M 54.23 22.957L 51.502 22.957C 48.999 22.957 47.699 24.343 47.699 25.837C 47.699 27.331 48.937 28.341 50.553 28.341C 52.535 28.341 54.161 26.888 54.561 25.732M 59.439 18.78L 59.439 28.128M 66.273 28.128L 66.273 22.074C 66.273 21.362 66.369 18.79 63.986 18.587C 62.228 18.437 60.539 19.562 59.763 20.956M 74.019 28.326C 72.61 28.465 71.752 27.732 71.752 26.387L 71.752 16.081M 73.902 18.642L 72.138 18.642M 69.642 18.642L 71.375 18.642M 77.128 18.69L 79.843 28.119L 80.221 28.119L 83.163 18.782L 83.598 18.782L 86.604 28.119L 86.954 28.119L 89.671 18.69M 101.487 23.457C 101.487 26.522 99.616 28.34 97.308 28.34C 95 28.34 93.129 26.522 93.129 23.457C 93.129 20.392 95 18.573 97.308 18.573C 99.616 18.573 101.487 20.392 101.487 23.457ZM 109.285 18.609C 107.904 18.419 106.656 19.319 106.014 20.619M 105.659 18.773L 105.659 28.123M 115.759 28.326C 114.35 28.465 113.492 27.732 113.492 26.387L 113.492 16.081M 115.642 18.642L 113.878 18.642M 111.382 18.642L 113.115 18.642M 119.806 14.125L 119.806 28.126M 124.898 14.971L 124.922 14.971M 124.882 18.804L 124.882 28.145M 136.622 26.254C 136.25 27.649 134.682 28.339 133.213 28.339C 131.076 28.339 129.31 27.028 129.31 23.456C 129.31 19.884 131.179 18.573 133.317 18.573C 134.824 18.573 136.474 19.41 136.707 20.915M 140.778 14.086L 140.778 28.128M 147.642 28.128L 147.642 22.074C 147.642 21.362 147.738 18.791 145.345 18.587C 143.591 18.439 141.906 19.547 141.119 20.928"></path></g></g></g><g id="g-root-tx_keinesub_1cw53gk1q79pmq-stroke" data-item-order="0" data-item-id="tx_keinesub_1cw53gk1q79pmq" data-item-class="Label Stroke" data-item-index="none" data-renderer-id="0" transform="translate(163, 57)"><g id="tx_keinesub_1cw53gk1q79pmq-stroke" fill="none" stroke-linecap="square" stroke-linejoin="miter" stroke-miterlimit="4" stroke="#CCCCCC" stroke-width="2"><g xmlns="http://www.w3.org/2000/svg"><path d="M 14.58 14.945L 14.58 28.122M 22.854 14.675L 14.934 23.44M 23.353 28.331L 17.76 20.92M 34.082 27.218C 33.109 28.155 32.084 28.339 30.899 28.339C 28.83 28.339 26.967 27.028 26.967 23.456C 26.967 19.884 28.776 18.573 30.845 18.573C 32.913 18.573 34.517 19.63 34.517 23.201L 27.297 23.201M 38.743 14.971L 38.767 14.971M 38.727 18.804L 38.727 28.145M 43.654 18.78L 43.654 28.128M 50.488 28.128L 50.488 22.074C 50.488 21.362 50.584 18.79 48.201 18.587C 46.443 18.437 44.754 19.562 43.978 20.956M 61.912 27.218C 60.939 28.155 59.914 28.339 58.729 28.339C 56.66 28.339 54.797 27.028 54.797 23.456C 54.797 19.884 56.606 18.573 58.675 18.573C 60.743 18.573 62.347 19.63 62.347 23.201L 55.127 23.201M 80.611 17.457C 80.18 15.893 78.56 14.732 76.471 14.732C 74.023 14.732 72.322 15.931 72.322 17.754C 72.322 19.724 73.786 20.685 76.291 21.406C 78.488 22.045 80.725 22.813 80.725 25.288C 80.725 26.951 79.412 28.346 76.355 28.346C 73.883 28.346 72.302 27.106 71.938 25.483M 91.692 28.115L 91.691 18.767M 84.857 18.767L 84.857 24.821C 84.857 25.533 84.762 28.096 87.144 28.308C 89.235 28.493 90.508 27.653 91.21 26.47M 96.52 28.124L 96.52 14.123M 96.903 20.138C 97.593 19.102 98.789 18.575 100.044 18.575C 102.225 18.575 103.982 19.886 103.982 23.458C 103.982 27.029 102.33 28.34 100.149 28.34C 98.852 28.34 97.762 27.879 96.903 26.803M 107.196 22.65L 110.451 22.65M 122.918 14.945C 119.655 14.945 116.392 14.95 113.129 14.95M 118.015 28.124L 118.015 15.456M 133.322 27.218C 132.349 28.155 131.324 28.339 130.139 28.339C 128.07 28.339 126.207 27.028 126.207 23.456C 126.207 19.884 128.016 18.573 130.085 18.573C 132.153 18.573 133.757 19.63 133.757 23.201L 126.537 23.201M 137.923 20.246C 138.287 19.28 139.703 18.567 141.043 18.567C 142.897 18.567 144.399 19.88 144.399 21.499L 144.405 22.957L 144.405 25.571C 144.405 26.614 144.38 27.353 144.682 28.278M 144.025 22.957L 141.297 22.957C 138.794 22.957 137.494 24.343 137.494 25.837C 137.494 27.331 138.732 28.341 140.348 28.341C 142.33 28.341 143.956 26.888 144.356 25.732M 149.255 18.814L 149.255 28.162M 156.089 28.162L 156.078 21.47C 156.014 20.526 155.647 19.078 153.773 18.649C 151.833 18.205 150.353 19.248 149.617 20.595M 162.924 28.162L 162.924 22.108C 162.924 21.396 163.039 19.206 160.608 18.649C 158.579 18.184 157.044 19.347 156.344 20.783M 173.863 20.381C 173.567 19.404 172.413 18.584 170.803 18.584C 168.915 18.584 167.695 19.447 167.604 20.751C 167.499 22.246 168.733 22.822 170.663 23.339C 172.357 23.797 174.3 24.277 174.146 26.122C 174.047 27.31 173.07 28.346 170.713 28.346C 168.807 28.346 167.73 27.53 167.395 26.424"></path></g></g></g><path id="cu_1cvipj81q6vmde" d="M43 25 L 43 37 L 43 49 L 34 49 L 25 49" transform="translate(322, 30)" style="fill:none;stroke-linecap:round;stroke-linejoin:round;stroke-miterlimit:1.5;stroke:#434343;stroke-width:2;stroke-dasharray:5, 7"></path><path id="cu_13zvpac1q6vn65" d="M43 25 L 43 32.5 L 43 73 A12 12 61 0 1 31 85 L 30.9 85 L 25 85" transform="translate(322, 30)" style="fill:none;stroke-linecap:round;stroke-linejoin:round;stroke-miterlimit:1.5;stroke:#434343;stroke-width:2;stroke-dasharray:5, 7"></path><path id="cu_13zvpac1q6vn67" d="M25 25 L 25 37 L 25 49 L 34 49 L 43 49" transform="translate(488, 30)" style="fill:none;stroke-linecap:round;stroke-linejoin:round;stroke-miterlimit:1.5;stroke:#434343;stroke-width:2;stroke-dasharray:5, 7"></path><path id="cu_zk275w1q6vnyi" d="M25 25 L 25 32.5 L 25 73 A12 12 115.1 0 0 37 85 L 37.1 85 L 43 85" transform="translate(488, 30)" style="fill:none;stroke-linecap:round;stroke-linejoin:round;stroke-miterlimit:1.5;stroke:#434343;stroke-width:2;stroke-dasharray:5, 7"></path><g id="g-root-tx_teamerfo_qpo1xg1q79ouk-stroke" data-item-order="0" data-item-id="tx_teamerfo_qpo1xg1q79ouk" data-item-class="Label Stroke" data-item-index="none" data-renderer-id="0" transform="translate(527, 57)"><g id="tx_teamerfo_qpo1xg1q79ouk-stroke" fill="none" stroke-linecap="square" stroke-linejoin="miter" stroke-miterlimit="4" stroke="#CCCCCC" stroke-width="2"><g xmlns="http://www.w3.org/2000/svg"><path d="M 27.318 14.945C 24.055 14.945 20.792 14.95 17.529 14.95M 22.415 28.124L 22.415 15.456M 37.722 27.218C 36.749 28.155 35.724 28.339 34.539 28.339C 32.47 28.339 30.606 27.028 30.606 23.456C 30.606 19.884 32.416 18.573 34.485 18.573C 36.553 18.573 38.157 19.63 38.157 23.201L 30.937 23.201M 42.323 20.246C 42.687 19.28 44.103 18.567 45.443 18.567C 47.297 18.567 48.799 19.88 48.799 21.499L 48.805 22.957L 48.805 25.571C 48.805 26.614 48.78 27.353 49.081 28.278M 48.425 22.957L 45.697 22.957C 43.194 22.957 41.894 24.343 41.894 25.837C 41.894 27.331 43.132 28.341 44.748 28.341C 46.73 28.341 48.356 26.888 48.756 25.732M 53.655 18.814L 53.655 28.162M 60.489 28.162L 60.478 21.47C 60.414 20.526 60.047 19.078 58.173 18.649C 56.233 18.205 54.753 19.248 54.017 20.595M 67.324 28.162L 67.324 22.108C 67.324 21.396 67.439 19.206 65.008 18.649C 62.979 18.184 61.444 19.347 60.744 20.783M 78.752 27.218C 77.779 28.155 76.754 28.339 75.569 28.339C 73.5 28.339 71.636 27.028 71.636 23.456C 71.636 19.884 73.446 18.573 75.515 18.573C 77.583 18.573 79.187 19.63 79.187 23.201L 71.967 23.201M 86.84 18.609C 85.459 18.419 84.211 19.319 83.569 20.619M 83.214 18.773L 83.214 28.123M 94.459 13.926C 94.291 13.908 94.01 13.907 93.882 13.907C 92.303 13.907 91.305 15.035 91.305 16.425L 91.305 28.129M 93.73 18.664L 91.641 18.664M 89.453 18.664L 90.979 18.664M 105.222 23.457C 105.222 26.522 103.351 28.34 101.043 28.34C 98.735 28.34 96.864 26.522 96.864 23.457C 96.864 20.392 98.735 18.573 101.043 18.573C 103.351 18.573 105.222 20.392 105.222 23.457ZM 109.551 14.125L 109.551 28.126M 121.474 18.652L 121.474 28.654C 121.474 33.351 116.181 33.001 114.746 31.47M 121.14 26.573C 120.46 27.661 119.236 28.214 117.95 28.214C 115.769 28.214 114.012 26.903 114.012 23.331C 114.012 19.76 115.663 18.449 117.845 18.449C 119.113 18.449 120.418 19.129 121.14 20.502"></path></g></g></g><g id="g-root-tx_flachest_140i37o1q79qff-stroke" data-item-order="0" data-item-id="tx_flachest_140i37o1q79qff" data-item-class="Label Stroke" data-item-index="none" data-renderer-id="0" transform="translate(175, 93)"><g id="tx_flachest_140i37o1q79qff-stroke" fill="none" stroke-linecap="square" stroke-linejoin="miter" stroke-miterlimit="4" stroke="#CCCCCC" stroke-width="2"><g xmlns="http://www.w3.org/2000/svg"><path d="M 27.055 14.945C 25.655 14.945 20.594 14.95 19.646 14.95L 19.646 28.124M 26.022 21.298L 20.083 21.298M 31.066 14.125L 31.066 28.126M 36.098 20.246C 36.462 19.28 37.878 18.567 39.218 18.567C 41.072 18.567 42.574 19.88 42.574 21.499L 42.58 22.957L 42.58 25.571C 42.58 26.614 42.555 27.353 42.857 28.278M 42.2 22.957L 39.472 22.957C 36.969 22.957 35.669 24.343 35.669 25.837C 35.669 27.331 36.907 28.341 38.523 28.341C 40.505 28.341 42.131 26.888 42.531 25.732M 54.222 26.254C 53.85 27.649 52.282 28.339 50.813 28.339C 48.676 28.339 46.91 27.028 46.91 23.456C 46.91 19.884 48.779 18.573 50.917 18.573C 52.424 18.573 54.074 19.41 54.307 20.915M 58.378 14.086L 58.378 28.128M 65.242 28.128L 65.242 22.074C 65.242 21.362 65.338 18.791 62.945 18.587C 61.191 18.439 59.506 19.547 58.719 20.928M 76.607 27.218C 75.634 28.155 74.609 28.339 73.424 28.339C 71.355 28.339 69.492 27.028 69.492 23.456C 69.492 19.884 71.301 18.573 73.37 18.573C 75.438 18.573 77.042 19.63 77.042 23.201L 69.822 23.201M 95.306 17.457C 94.875 15.893 93.255 14.732 91.166 14.732C 88.718 14.732 87.017 15.931 87.017 17.754C 87.017 19.724 88.481 20.685 90.986 21.406C 93.183 22.045 95.42 22.813 95.42 25.288C 95.42 26.951 94.107 28.346 91.05 28.346C 88.578 28.346 86.997 27.106 86.633 25.483M 102.549 28.326C 101.14 28.465 100.282 27.732 100.282 26.387L 100.282 16.081M 102.432 18.642L 100.668 18.642M 98.172 18.642L 99.905 18.642M 110.065 18.609C 108.684 18.419 107.436 19.319 106.794 20.619M 106.439 18.773L 106.439 28.123M 120.377 28.115L 120.376 18.767M 113.542 18.767L 113.542 24.821C 113.542 25.533 113.447 28.096 115.829 28.308C 117.92 28.493 119.193 27.653 119.895 26.47M 125.175 14.125L 125.175 28.126M 131.098 18.61L 125.562 24.462M 131.759 28.284L 127.642 22.785M 138.809 28.326C 137.4 28.465 136.542 27.732 136.542 26.387L 136.542 16.081M 138.692 18.642L 136.928 18.642M 134.432 18.642L 136.165 18.642M 149.527 28.115L 149.526 18.767M 142.692 18.767L 142.692 24.821C 142.692 25.533 142.597 28.096 144.979 28.308C 147.07 28.493 148.343 27.653 149.045 26.47M 157.935 18.609C 156.554 18.419 155.306 19.319 154.664 20.619M 154.309 18.773L 154.309 28.123"></path></g></g></g><g id="g-root-tx_inkremen_m9ujt01q79pmt-stroke" data-item-order="0" data-item-id="tx_inkremen_m9ujt01q79pmt" data-item-class="Label Stroke" data-item-index="none" data-renderer-id="0" transform="translate(527, 93)"><g id="tx_inkremen_m9ujt01q79pmt-stroke" fill="none" stroke-linecap="square" stroke-linejoin="miter" stroke-miterlimit="4" stroke="#CCCCCC" stroke-width="2"><g xmlns="http://www.w3.org/2000/svg"><path d="M 15.635 14.938L 15.635 28.127M 20.859 18.78L 20.859 28.128M 27.693 28.128L 27.693 22.074C 27.693 21.362 27.789 18.79 25.406 18.587C 23.648 18.437 21.959 19.562 21.183 20.956M 32.465 14.125L 32.465 28.126M 38.388 18.61L 32.852 24.462M 39.049 28.284L 34.932 22.785M 46.735 18.609C 45.354 18.419 44.106 19.319 43.464 20.619M 43.109 18.773L 43.109 28.123M 56.887 27.218C 55.914 28.155 54.889 28.339 53.704 28.339C 51.635 28.339 49.771 27.028 49.771 23.456C 49.771 19.884 51.581 18.573 53.65 18.573C 55.718 18.573 57.322 19.63 57.322 23.201L 50.102 23.201M 61.39 18.814L 61.39 28.162M 68.224 28.162L 68.213 21.47C 68.149 20.526 67.782 19.078 65.908 18.649C 63.968 18.205 62.488 19.248 61.752 20.595M 75.059 28.162L 75.059 22.108C 75.059 21.396 75.174 19.206 72.743 18.649C 70.714 18.184 69.179 19.347 68.479 20.783M 86.487 27.218C 85.514 28.155 84.489 28.339 83.304 28.339C 81.235 28.339 79.371 27.028 79.371 23.456C 79.371 19.884 81.181 18.573 83.25 18.573C 85.318 18.573 86.922 19.63 86.922 23.201L 79.702 23.201M 90.969 18.78L 90.969 28.128M 97.803 28.128L 97.803 22.074C 97.803 21.362 97.899 18.79 95.516 18.587C 93.758 18.437 92.069 19.562 91.293 20.956M 105.549 28.326C 104.14 28.465 103.282 27.732 103.282 26.387L 103.282 16.081M 105.432 18.642L 103.668 18.642M 101.172 18.642L 102.905 18.642M 116.107 27.218C 115.134 28.155 114.109 28.339 112.924 28.339C 110.855 28.339 108.991 27.028 108.991 23.456C 108.991 19.884 110.801 18.573 112.87 18.573C 114.938 18.573 116.542 19.63 116.542 23.201L 109.322 23.201M 124.195 18.609C 122.814 18.419 121.566 19.319 120.924 20.619M 120.569 18.773L 120.569 28.123M 133.858 20.381C 133.562 19.404 132.408 18.584 130.798 18.584C 128.91 18.584 127.69 19.447 127.599 20.751C 127.494 22.246 128.728 22.822 130.658 23.339C 132.352 23.797 134.295 24.277 134.141 26.122C 134.042 27.31 133.065 28.346 130.708 28.346C 128.802 28.346 127.725 27.53 127.39 26.424M 141.479 28.326C 140.07 28.465 139.212 27.732 139.212 26.387L 139.212 16.081M 141.362 18.642L 139.598 18.642M 137.102 18.642L 138.835 18.642M 152.037 27.218C 151.064 28.155 150.039 28.339 148.854 28.339C 146.785 28.339 144.921 27.028 144.921 23.456C 144.921 19.884 146.731 18.573 148.8 18.573C 150.868 18.573 152.472 19.63 152.472 23.201L 145.252 23.201M 156.656 14.125L 156.656 28.126M 161.706 14.125L 161.706 28.126M 173.427 28.115L 173.426 18.767M 166.592 18.767L 166.592 24.821C 166.592 25.533 166.497 28.096 168.879 28.308C 170.97 28.493 172.243 27.653 172.945 26.47M 178.229 18.78L 178.229 28.128M 185.063 28.128L 185.063 22.074C 185.063 21.362 185.159 18.79 182.776 18.587C 181.018 18.437 179.329 19.562 178.553 20.956M 196.849 18.652L 196.849 28.654C 196.849 33.351 191.556 33.001 190.121 31.47M 196.515 26.573C 195.835 27.661 194.611 28.214 193.325 28.214C 191.144 28.214 189.387 26.903 189.387 23.331C 189.387 19.76 191.038 18.449 193.22 18.449C 194.488 18.449 195.793 19.129 196.515 20.502"></path></g></g></g><path id="cu_m7cqmc1q6vmkp" d="M25 160 L 25 143.1 L 25 45.9 A20.9 20.9 -45 0 1 45.9 25 L 46 25 L 49 25" transform="translate(440, 3)" style="fill:none;stroke-linecap:round;stroke-linejoin:round;stroke-miterlimit:1.5;stroke:#434343;stroke-width:2;stroke-dasharray:5, 7"></path><g id="g-root-shar_1ursipw1q6q0as-stroke" data-item-order="0" data-item-id="shar_1ursipw1q6q0as" data-item-class="Icon Stroke" data-item-index="none" data-renderer-id="0" transform="translate(261, 153)"><g id="shar_1ursipw1q6q0as-stroke" fill="none" stroke-linecap="round" stroke-linejoin="round" stroke-miterlimit="1.5" stroke="#44E095" stroke-width="2"><g xmlns="http://www.w3.org/2000/svg"><path d="M 23.606 24.996C 23.606 25.764 24.228 26.387 24.996 26.387C 25.764 26.387 26.386 25.764 26.386 24.996C 26.386 24.228 25.764 23.606 24.996 23.606C 24.228 23.606 23.606 24.228 23.606 24.996M 26.177 19.625L 26.586 20.97C 26.726 21.433 27.201 21.709 27.672 21.601L 29.037 21.285C 29.568 21.166 30.114 21.406 30.384 21.878C 30.655 22.35 30.587 22.942 30.216 23.34L 29.263 24.369C 28.932 24.725 28.932 25.275 29.263 25.631L 30.216 26.66C 30.587 27.058 30.655 27.651 30.384 28.123C 30.114 28.595 29.567 28.835 29.036 28.715L 27.672 28.399C 27.2 28.29 26.725 28.566 26.585 29.03L 26.176 30.375C 26.02 30.897 25.54 31.254 24.996 31.254C 24.451 31.254 23.971 30.897 23.815 30.375L 23.406 29.029C 23.266 28.565 22.791 28.289 22.319 28.397L 20.955 28.714C 20.425 28.832 19.879 28.592 19.608 28.121C 19.337 27.65 19.404 27.057 19.774 26.659L 20.727 25.63C 21.058 25.274 21.058 24.724 20.727 24.368L 19.774 23.339C 19.404 22.94 19.337 22.347 19.608 21.876C 19.879 21.404 20.426 21.164 20.956 21.284L 22.324 21.6C 22.796 21.709 23.272 21.433 23.411 20.969L 23.82 19.625C 23.98 19.108 24.458 18.756 24.999 18.756C 25.54 18.756 26.018 19.108 26.177 19.625ZM 23.438 12.188C 23.438 13.05 24.137 13.75 25 13.75C 25.863 13.75 26.563 13.05 26.563 12.188C 26.563 11.325 25.863 10.625 25 10.625C 24.137 10.625 23.438 11.325 23.438 12.188M 25 16.875L 25 13.75M 32.497 15.94C 32.498 16.803 33.197 17.503 34.06 17.503C 34.923 17.503 35.623 16.803 35.623 15.94C 35.623 15.077 34.923 14.378 34.06 14.378C 33.197 14.378 32.498 15.077 32.498 15.94M 30.745 19.255L 32.955 17.045M 36.25 25C 36.25 25.863 36.95 26.563 37.813 26.563C 38.675 26.563 39.375 25.863 39.375 25C 39.375 24.137 38.675 23.438 37.813 23.438C 36.95 23.438 36.25 24.137 36.25 25M 33.125 25L 36.25 25M 32.497 34.06C 32.498 34.923 33.197 35.623 34.06 35.623C 34.923 35.623 35.623 34.923 35.623 34.06C 35.623 33.197 34.923 32.498 34.06 32.498C 33.197 32.498 32.498 33.197 32.498 34.06M 30.745 30.745L 32.955 32.955M 23.438 37.813C 23.438 38.675 24.137 39.375 25 39.375C 25.863 39.375 26.563 38.675 26.563 37.813C 26.563 36.95 25.863 36.25 25 36.25C 24.137 36.25 23.438 36.95 23.438 37.813M 25 33.125L 25 36.25M 14.378 34.06C 14.378 34.923 15.077 35.623 15.94 35.623C 16.803 35.623 17.503 34.923 17.503 34.06C 17.503 33.197 16.803 32.498 15.94 32.498C 15.077 32.498 14.378 33.197 14.378 34.06M 19.255 30.745L 17.045 32.955M 10.625 25C 10.625 25.863 11.325 26.563 12.188 26.563C 13.05 26.563 13.75 25.863 13.75 25C 13.75 24.137 13.05 23.438 12.188 23.438C 11.325 23.438 10.625 24.137 10.625 25M 16.875 25L 13.75 25M 14.378 15.94C 14.378 16.803 15.077 17.503 15.94 17.503C 16.803 17.503 17.503 16.803 17.503 15.94C 17.503 15.077 16.803 14.378 15.94 14.378C 15.077 14.378 14.378 15.077 14.378 15.94M 19.255 19.255L 17.045 17.045"></path></g></g></g><g id="g-root-tx_arbeitsa_1hbyll01q79ouh-stroke" data-item-order="0" data-item-id="tx_arbeitsa_1hbyll01q79ouh" data-item-class="Label Stroke" data-item-index="none" data-renderer-id="0" transform="translate(527, 465)"><g id="tx_arbeitsa_1hbyll01q79ouh-stroke" fill="none" stroke-linecap="square" stroke-linejoin="miter" stroke-miterlimit="4" stroke="#CCCCCC" stroke-width="2"><g xmlns="http://www.w3.org/2000/svg"><path d="M 15.249 28.145L 20.197 14.973L 20.785 14.973L 25.749 28.145M 17.066 24.294L 23.925 24.294M 33.33 18.609C 31.949 18.419 30.701 19.319 30.059 20.619M 29.704 18.773L 29.704 28.123M 36.86 28.124L 36.86 14.123M 37.243 20.138C 37.933 19.102 39.129 18.575 40.384 18.575C 42.565 18.575 44.322 19.886 44.322 23.458C 44.322 27.029 42.67 28.34 40.489 28.34C 39.192 28.34 38.102 27.879 37.243 26.803M 55.302 27.218C 54.329 28.155 53.304 28.339 52.119 28.339C 50.05 28.339 48.187 27.028 48.187 23.456C 48.187 19.884 49.996 18.573 52.065 18.573C 54.133 18.573 55.737 19.63 55.737 23.201L 48.517 23.201M 59.963 14.971L 59.987 14.971M 59.947 18.804L 59.947 28.145M 67.844 28.326C 66.435 28.465 65.577 27.732 65.577 26.387L 65.577 16.081M 67.727 18.642L 65.963 18.642M 63.467 18.642L 65.2 18.642M 77.913 20.381C 77.617 19.404 76.463 18.584 74.853 18.584C 72.965 18.584 71.745 19.447 71.654 20.751C 71.549 22.246 72.783 22.822 74.713 23.339C 76.407 23.797 78.35 24.277 78.196 26.122C 78.097 27.31 77.12 28.346 74.763 28.346C 72.857 28.346 71.78 27.53 71.445 26.424M 82.683 20.246C 83.047 19.28 84.463 18.567 85.803 18.567C 87.657 18.567 89.159 19.88 89.159 21.499L 89.165 22.957L 89.165 25.571C 89.165 26.614 89.14 27.353 89.442 28.278M 88.785 22.957L 86.057 22.957C 83.554 22.957 82.254 24.343 82.254 25.837C 82.254 27.331 83.492 28.341 85.108 28.341C 87.09 28.341 88.716 26.888 89.116 25.732M 100.802 28.115L 100.801 18.767M 93.967 18.767L 93.967 24.821C 93.967 25.533 93.872 28.096 96.254 28.308C 98.345 28.493 99.618 27.653 100.32 26.47M 111.763 20.381C 111.467 19.404 110.313 18.584 108.703 18.584C 106.815 18.584 105.595 19.447 105.504 20.751C 105.399 22.246 106.633 22.822 108.563 23.339C 110.257 23.797 112.2 24.277 112.046 26.122C 111.947 27.31 110.97 28.346 108.613 28.346C 106.707 28.346 105.63 27.53 105.295 26.424M 120.529 13.926C 120.361 13.908 120.08 13.907 119.952 13.907C 118.373 13.907 117.375 15.035 117.375 16.425L 117.375 28.129M 119.8 18.664L 117.711 18.664M 115.523 18.664L 117.049 18.664M 124.748 14.932L 124.772 14.932M 129.18 14.932L 129.204 14.932M 123.467 18.767L 123.467 24.821C 123.467 25.533 123.372 28.096 125.754 28.308C 127.845 28.493 129.118 27.653 129.82 26.47M 130.302 28.115L 130.301 18.767M 135.073 14.086L 135.073 28.128M 141.937 28.128L 141.937 22.074C 141.937 21.362 142.033 18.791 139.64 18.587C 137.886 18.439 136.201 19.547 135.414 20.928M 150.26 18.609C 148.879 18.419 147.631 19.319 146.989 20.619M 146.634 18.773L 146.634 28.123M 160.572 28.115L 160.571 18.767M 153.737 18.767L 153.737 24.821C 153.737 25.533 153.642 28.096 156.024 28.308C 158.115 28.493 159.388 27.653 160.09 26.47M 165.374 18.78L 165.374 28.128M 172.208 28.128L 172.208 22.074C 172.208 21.362 172.304 18.79 169.921 18.587C 168.163 18.437 166.474 19.562 165.698 20.956M 183.994 18.652L 183.994 28.654C 183.994 33.351 178.701 33.001 177.266 31.47M 183.66 26.573C 182.98 27.661 181.756 28.214 180.47 28.214C 178.289 28.214 176.532 26.903 176.532 23.331C 176.532 19.76 178.183 18.449 180.365 18.449C 181.633 18.449 182.938 19.129 183.66 20.502"></path></g></g></g><path id="cu_qwjd1g1q6uadq" d="M49 160 L 49 143.1 L 49 45.9 A20.9 20.9 45 0 0 28.1 25 L 28 25 L 25 25" transform="translate(364, 3)" style="fill:none;stroke-linecap:round;stroke-linejoin:round;stroke-miterlimit:1.5;stroke:#434343;stroke-width:2;stroke-dasharray:5, 7"></path><g id="g-root-tx_kohsiv_91ii101q6q22r-stroke" data-item-order="0" data-item-id="tx_kohsiv_91ii101q6q22r" data-item-class="Label Stroke" data-item-index="none" data-renderer-id="0" transform="translate(171, 156)"><g id="tx_kohsiv_91ii101q6q22r-stroke" fill="none" stroke-linecap="square" stroke-linejoin="miter" stroke-miterlimit="4" stroke="#44E095" stroke-width="2"><g xmlns="http://www.w3.org/2000/svg"><path d="M 17.595 14.945L 17.595 28.122M 25.869 14.675L 17.949 23.44M 26.368 28.331L 20.775 20.92M 38.247 23.457C 38.247 26.522 36.376 28.34 34.068 28.34C 31.76 28.34 29.889 26.522 29.889 23.457C 29.889 20.392 31.76 18.573 34.068 18.573C 36.376 18.573 38.247 20.392 38.247 23.457ZM 42.428 14.086L 42.428 28.128M 49.292 28.128L 49.292 22.074C 49.292 21.362 49.388 18.791 46.995 18.587C 45.241 18.439 43.556 19.547 42.769 20.928M 55.412 14.932L 55.436 14.932M 59.844 14.932L 59.868 14.932M 54.128 20.246C 54.492 19.28 55.908 18.567 57.248 18.567C 59.102 18.567 60.604 19.88 60.604 21.499L 60.61 22.957L 60.61 25.571C 60.61 26.614 60.585 27.353 60.887 28.278M 60.23 22.957L 57.502 22.957C 54.999 22.957 53.699 24.343 53.699 25.837C 53.699 27.331 54.937 28.341 56.553 28.341C 58.535 28.341 60.161 26.888 60.561 25.732M 71.608 20.381C 71.312 19.404 70.158 18.584 68.548 18.584C 66.66 18.584 65.44 19.447 65.349 20.751C 65.244 22.246 66.478 22.822 68.408 23.339C 70.102 23.797 72.045 24.277 71.891 26.122C 71.792 27.31 70.815 28.346 68.458 28.346C 66.552 28.346 65.475 27.53 65.14 26.424M 76.438 14.971L 76.462 14.971M 76.422 18.804L 76.422 28.145M 87.503 18.691L 84.133 28.119L 83.932 28.119L 80.528 18.691"></path></g></g></g><g id="g-root-goal_zofflw1q6x2pz-stroke" data-item-order="0" data-item-id="goal_zofflw1q6x2pz" data-item-class="Icon Stroke" data-item-index="none" data-renderer-id="0" transform="translate(567, 153)"><g id="goal_zofflw1q6x2pz-stroke" fill="none" stroke-linecap="round" stroke-linejoin="round" stroke-miterlimit="1.5" stroke="#4F92FF" stroke-width="2"><g xmlns="http://www.w3.org/2000/svg"><path d="M 28.125 36.987L 28.125 38.75M 34.375 39.375C 34.375 35.923 31.577 33.125 28.125 33.125C 24.673 33.125 21.875 35.923 21.875 39.375M 23.75 26.875C 23.75 29.291 25.709 31.25 28.125 31.25C 30.541 31.25 32.5 29.291 32.5 26.875C 32.5 24.459 30.541 22.5 28.125 22.5C 25.709 22.5 23.75 24.459 23.75 26.875M 19.438 37.4C 18.192 36.622 16.681 36.393 15.261 36.767C 13.841 37.141 12.638 38.085 11.938 39.375M 13.363 29.362C 15.157 31.194 17.887 31.744 20.25 30.75M 12.85 31.25C 12.85 33.3 14.512 34.963 16.563 34.963C 18.613 34.963 20.275 33.3 20.275 31.25C 20.275 29.2 18.613 27.538 16.563 27.538C 14.512 27.538 12.85 29.2 12.85 31.25M 38.125 39.375L 38.125 10.625M 38.125 10.625L 30.625 10.625C 29.935 10.625 29.375 11.185 29.375 11.875L 29.375 15.625C 29.375 16.315 29.935 16.875 30.625 16.875L 38.125 16.875M 29.375 13.125L 21.25 13.125L 24.375 16.25L 21.25 19.375L 30.625 19.375C 31.315 19.375 31.875 18.815 31.875 18.125L 31.875 16.875M 24.625 24.25C 25.923 25.494 27.64 26.208 29.438 26.25C 30.433 26.255 31.422 26.09 32.363 25.763"></path></g></g></g><path id="cu_147zves1q6u8si" d="M73 68 L 70 68 L 69.9 68 A20.9 20.9 45 0 1 49 47.1 L 49 47 L 49 45.9 A20.9 20.9 45 0 0 28.1 25 L 28 25 L 25 25" transform="translate(288, 153)" style="fill:none;stroke-linecap:round;stroke-linejoin:round;stroke-miterlimit:1.5;stroke:#434343;stroke-width:2;stroke-dasharray:5, 7"></path><path id="cu_vccv5w1q6u9l9" d="M25 68 L 28 68 L 28.1 68 A20.9 20.9 -45 0 0 49 47.1 L 49 47 L 49 45.9 A20.9 20.9 -45 0 1 69.9 25 L 70 25 L 73 25" transform="translate(492, 153)" style="fill:none;stroke-linecap:round;stroke-linejoin:round;stroke-miterlimit:1.5;stroke:#434343;stroke-width:2;stroke-dasharray:5, 7"></path><g id="g-root-tx_fokussie_1448xqc1q6x1xq-stroke" data-item-order="0" data-item-id="tx_fokussie_1448xqc1q6x1xq" data-item-class="Label Stroke" data-item-index="none" data-renderer-id="0" transform="translate(603, 156)"><g id="tx_fokussie_1448xqc1q6x1xq-stroke" fill="none" stroke-linecap="square" stroke-linejoin="miter" stroke-miterlimit="4" stroke="#4F92FF" stroke-width="2"><g xmlns="http://www.w3.org/2000/svg"><path d="M 25.265 14.945C 23.865 14.945 18.804 14.95 17.856 14.95L 17.856 28.124M 24.232 21.298L 18.293 21.298M 36.937 23.457C 36.937 26.522 35.066 28.34 32.758 28.34C 30.45 28.34 28.579 26.522 28.579 23.457C 28.579 20.392 30.45 18.573 32.758 18.573C 35.066 18.573 36.937 20.392 36.937 23.457ZM 41.125 14.125L 41.125 28.126M 47.048 18.61L 41.512 24.462M 47.709 28.284L 43.592 22.785M 58.597 28.115L 58.596 18.767M 51.762 18.767L 51.762 24.821C 51.762 25.533 51.667 28.096 54.049 28.308C 56.14 28.493 57.413 27.653 58.115 26.47M 69.558 20.381C 69.262 19.404 68.108 18.584 66.498 18.584C 64.61 18.584 63.39 19.447 63.299 20.751C 63.194 22.246 64.428 22.822 66.358 23.339C 68.052 23.797 69.995 24.277 69.841 26.122C 69.742 27.31 68.765 28.346 66.408 28.346C 64.502 28.346 63.425 27.53 63.09 26.424M 80.368 20.381C 80.072 19.404 78.918 18.584 77.308 18.584C 75.42 18.584 74.2 19.447 74.109 20.751C 74.004 22.246 75.238 22.822 77.168 23.339C 78.862 23.797 80.805 24.277 80.651 26.122C 80.552 27.31 79.575 28.346 77.218 28.346C 75.312 28.346 74.235 27.53 73.9 26.424M 85.198 14.971L 85.222 14.971M 85.182 18.804L 85.182 28.145M 96.757 27.218C 95.784 28.155 94.759 28.339 93.574 28.339C 91.505 28.339 89.642 27.028 89.642 23.456C 89.642 19.884 91.451 18.573 93.52 18.573C 95.588 18.573 97.192 19.63 97.192 23.201L 89.972 23.201M 104.845 18.609C 103.464 18.419 102.216 19.319 101.574 20.619M 101.219 18.773L 101.219 28.123M 111.319 28.326C 109.91 28.465 109.052 27.732 109.052 26.387L 109.052 16.081M 111.202 18.642L 109.438 18.642M 106.942 18.642L 108.675 18.642"></path></g></g></g><g id="g-root-scru_7qtvo1q6q29v-stroke" data-item-order="0" data-item-id="scru_7qtvo1q6q29v" data-item-class="Icon Stroke" data-item-index="none" data-renderer-id="0" transform="translate(405, 177)"><g id="scru_7qtvo1q6q29v-stroke" fill="none" stroke-linecap="round" stroke-linejoin="round" stroke-miterlimit="1.5" stroke="#CCCCCC" stroke-width="2"><g xmlns="http://www.w3.org/2000/svg"><path d="M 11.512 53.934L 56.488 53.934M 52.4 50.866L 56.488 53.934L 52.4 57M 17.942 42.158C 17.942 35.654 23.215 30.382 29.719 30.382C 36.223 30.382 41.495 35.655 41.494 42.159C 41.493 48.663 36.22 53.935 29.716 53.934M 14.578 40.476L 17.942 43.84L 21.306 40.476M 44.856 21.092C 44.855 16.1 41.205 11.858 36.268 11.113C 31.332 10.368 26.592 13.343 25.118 18.113C 23.644 22.883 25.878 28.014 30.374 30.184M 47.738 19.65L 44.856 22.534L 41.972 19.65"></path></g></g></g><g id="g-root-tx_engerzus_1q5q6kk1q79p1d-stroke" data-item-order="0" data-item-id="tx_engerzus_1q5q6kk1q79p1d" data-item-class="Label Stroke" data-item-index="none" data-renderer-id="0" transform="translate(27, 207)"><g id="tx_engerzus_1q5q6kk1q79p1d-stroke" fill="none" stroke-linecap="square" stroke-linejoin="miter" stroke-miterlimit="4" stroke="#CCCCCC" stroke-width="2"><g xmlns="http://www.w3.org/2000/svg"><path d="M 24.713 28.137L 17.149 28.142L 17.149 14.95C 18.097 14.95 23.271 14.95 24.671 14.95M 23.659 21.297L 17.613 21.297M 28.754 18.78L 28.754 28.128M 35.588 28.128L 35.588 22.074C 35.588 21.362 35.684 18.79 33.301 18.587C 31.543 18.437 29.854 19.562 29.078 20.956M 47.374 18.652L 47.374 28.654C 47.374 33.351 42.081 33.001 40.646 31.47M 47.04 26.573C 46.36 27.661 45.136 28.214 43.85 28.214C 41.669 28.214 39.912 26.903 39.912 23.331C 39.912 19.76 41.563 18.449 43.745 18.449C 45.013 18.449 46.318 19.129 47.04 20.502M 58.782 27.218C 57.809 28.155 56.784 28.339 55.599 28.339C 53.53 28.339 51.667 27.028 51.667 23.456C 51.667 19.884 53.476 18.573 55.545 18.573C 57.613 18.573 59.217 19.63 59.217 23.201L 51.997 23.201M 66.87 18.609C 65.489 18.419 64.241 19.319 63.599 20.619M 63.244 18.773L 63.244 28.123M 75.754 14.944L 84.469 14.944L 84.469 15.238L 75.754 27.863L 75.754 28.124L 85.056 28.124M 95.772 28.115L 95.771 18.767M 88.937 18.767L 88.937 24.821C 88.937 25.533 88.842 28.096 91.224 28.308C 93.315 28.493 94.588 27.653 95.29 26.47M 106.733 20.381C 106.437 19.404 105.283 18.584 103.673 18.584C 101.785 18.584 100.565 19.447 100.474 20.751C 100.369 22.246 101.603 22.822 103.533 23.339C 105.227 23.797 107.17 24.277 107.016 26.122C 106.917 27.31 105.94 28.346 103.583 28.346C 101.677 28.346 100.6 27.53 100.265 26.424M 111.503 20.246C 111.867 19.28 113.283 18.567 114.623 18.567C 116.477 18.567 117.979 19.88 117.979 21.499L 117.985 22.957L 117.985 25.571C 117.985 26.614 117.96 27.353 118.262 28.278M 117.605 22.957L 114.877 22.957C 112.374 22.957 111.074 24.343 111.074 25.837C 111.074 27.331 112.312 28.341 113.928 28.341C 115.91 28.341 117.536 26.888 117.936 25.732M 122.835 18.814L 122.835 28.162M 129.669 28.162L 129.658 21.47C 129.594 20.526 129.227 19.078 127.353 18.649C 125.413 18.205 123.933 19.248 123.197 20.595M 136.504 28.162L 136.504 22.108C 136.504 21.396 136.619 19.206 134.188 18.649C 132.159 18.184 130.625 19.347 129.924 20.783M 141.305 18.814L 141.305 28.162M 148.139 28.162L 148.128 21.47C 148.064 20.526 147.697 19.078 145.823 18.649C 143.883 18.205 142.403 19.248 141.667 20.595M 154.974 28.162L 154.974 22.108C 154.974 21.396 155.089 19.206 152.658 18.649C 150.629 18.184 149.095 19.347 148.394 20.783M 166.402 27.218C 165.429 28.155 164.404 28.339 163.219 28.339C 161.15 28.339 159.286 27.028 159.286 23.456C 159.286 19.884 161.096 18.573 163.165 18.573C 165.233 18.573 166.837 19.63 166.837 23.201L 159.617 23.201M 170.884 18.78L 170.884 28.128M 177.718 28.128L 177.718 22.074C 177.718 21.362 177.814 18.79 175.431 18.587C 173.673 18.437 171.984 19.562 171.208 20.956M 182.613 20.246C 182.977 19.28 184.393 18.567 185.733 18.567C 187.587 18.567 189.089 19.88 189.089 21.499L 189.095 22.957L 189.095 25.571C 189.095 26.614 189.07 27.353 189.372 28.278M 188.715 22.957L 185.987 22.957C 183.484 22.957 182.184 24.343 182.184 25.837C 182.184 27.331 183.422 28.341 185.038 28.341C 187.02 28.341 188.646 26.888 189.046 25.732M 197.53 18.609C 196.149 18.419 194.901 19.319 194.259 20.619M 193.904 18.773L 193.904 28.123M 201.06 28.124L 201.06 14.123M 201.443 20.138C 202.133 19.102 203.329 18.575 204.584 18.575C 206.765 18.575 208.522 19.886 208.522 23.458C 208.522 27.029 206.87 28.34 204.689 28.34C 203.392 28.34 202.302 27.879 201.443 26.803M 219.502 27.218C 218.529 28.155 217.504 28.339 216.319 28.339C 214.25 28.339 212.386 27.028 212.386 23.456C 212.386 19.884 214.196 18.573 216.265 18.573C 218.333 18.573 219.937 19.63 219.937 23.201L 212.717 23.201M 224.163 14.971L 224.187 14.971M 224.147 18.804L 224.147 28.145M 232.044 28.326C 230.635 28.465 229.777 27.732 229.777 26.387L 229.777 16.081M 231.927 18.642L 230.163 18.642M 227.667 18.642L 229.4 18.642"></path></g></g></g><path id="cu_m7cqmc1q6vmks" d="M43 25 L 43 37 L 43 49 L 34 49 L 25 49" transform="translate(246, 180)" style="fill:none;stroke-linecap:round;stroke-linejoin:round;stroke-miterlimit:1.5;stroke:#434343;stroke-width:2;stroke-dasharray:5, 7"></path><path id="cu_8vw8901q6vo5r" d="M43 25 L 43 55 L 43 85 L 34 85 L 25 85" transform="translate(246, 180)" style="fill:none;stroke-linecap:round;stroke-linejoin:round;stroke-miterlimit:1.5;stroke:#434343;stroke-width:2;stroke-dasharray:5, 7"></path><path id="cu_dbpqdg1q6vo5d" d="M43 25 L 43 37 L 43 109 A12 12 61 0 1 31 121 L 30.9 121 L 25 121" transform="translate(246, 180)" style="fill:none;stroke-linecap:round;stroke-linejoin:round;stroke-miterlimit:1.5;stroke:#434343;stroke-width:2;stroke-dasharray:5, 7"></path><path id="cu_4g2q4k1q6voy3" d="M25 25 L 25 37 L 25 49 L 34 49 L 43 49" transform="translate(564, 180)" style="fill:none;stroke-linecap:round;stroke-linejoin:round;stroke-miterlimit:1.5;stroke:#434343;stroke-width:2;stroke-dasharray:5, 7"></path><path id="cu_4g2q4k1q6voy6" d="M25 25 L 25 32.5 L 25 73 A12 12 115.1 0 0 37 85 L 37.1 85 L 43 85" transform="translate(564, 180)" style="fill:none;stroke-linecap:round;stroke-linejoin:round;stroke-miterlimit:1.5;stroke:#434343;stroke-width:2;stroke-dasharray:5, 7"></path><g id="g-root-tx_wertschp_qnsmo41q79pu4-stroke" data-item-order="0" data-item-id="tx_wertschp_qnsmo41q79pu4" data-item-class="Label Stroke" data-item-index="none" data-renderer-id="0" transform="translate(603, 207)"><g id="tx_wertschp_qnsmo41q79pu4-stroke" fill="none" stroke-linecap="square" stroke-linejoin="miter" stroke-miterlimit="4" stroke="#CCCCCC" stroke-width="2"><g xmlns="http://www.w3.org/2000/svg"><path d="M 18.362 14.93L 21.416 28.104L 21.994 28.104L 25.67 14.932L 26.216 14.932L 29.873 28.104L 30.47 28.104L 33.523 14.93M 44.202 27.218C 43.229 28.155 42.204 28.339 41.019 28.339C 38.95 28.339 37.086 27.028 37.086 23.456C 37.086 19.884 38.896 18.573 40.965 18.573C 43.033 18.573 44.637 19.63 44.637 23.201L 37.417 23.201M 52.29 18.609C 50.909 18.419 49.661 19.319 49.019 20.619M 48.664 18.773L 48.664 28.123M 58.764 28.326C 57.355 28.465 56.497 27.732 56.497 26.387L 56.497 16.081M 58.647 18.642L 56.883 18.642M 54.387 18.642L 56.12 18.642M 68.833 20.381C 68.537 19.404 67.383 18.584 65.773 18.584C 63.885 18.584 62.665 19.447 62.574 20.751C 62.469 22.246 63.703 22.822 65.633 23.339C 67.327 23.797 69.27 24.277 69.116 26.122C 69.017 27.31 68.04 28.346 65.683 28.346C 63.777 28.346 62.7 27.53 62.365 26.424M 80.297 26.254C 79.925 27.649 78.357 28.339 76.888 28.339C 74.751 28.339 72.985 27.028 72.985 23.456C 72.985 19.884 74.854 18.573 76.992 18.573C 78.499 18.573 80.149 19.41 80.382 20.915M 84.453 14.086L 84.453 28.128M 91.317 28.128L 91.317 22.074C 91.317 21.362 91.413 18.791 89.02 18.587C 87.266 18.439 85.581 19.547 84.794 20.928M 97.362 14.932L 97.386 14.932M 101.794 14.932L 101.818 14.932M 103.832 23.467C 103.832 26.533 101.961 28.351 99.653 28.351C 97.345 28.351 95.474 26.533 95.474 23.467C 95.474 20.402 97.345 18.584 99.653 18.584C 101.961 18.584 103.832 20.402 103.832 23.467ZM 108.008 18.774L 108.008 32.393M 108.374 20.124C 109.257 19.027 110.438 18.558 111.747 18.558C 113.928 18.558 115.507 19.904 115.507 23.476C 115.507 27.047 113.823 28.323 111.641 28.323C 110.37 28.323 109.084 27.783 108.374 26.719M 123.899 13.926C 123.731 13.908 123.45 13.907 123.322 13.907C 121.743 13.907 120.745 15.035 120.745 16.425L 120.745 28.129M 123.17 18.664L 121.081 18.664M 118.893 18.664L 120.419 18.664M 133.672 28.115L 133.671 18.767M 126.837 18.767L 126.837 24.821C 126.837 25.533 126.742 28.096 129.124 28.308C 131.215 28.493 132.488 27.653 133.19 26.47M 138.474 18.78L 138.474 28.128M 145.308 28.128L 145.308 22.074C 145.308 21.362 145.404 18.79 143.021 18.587C 141.263 18.437 139.574 19.562 138.798 20.956M 157.094 18.652L 157.094 28.654C 157.094 33.351 151.801 33.001 150.366 31.47M 156.76 26.573C 156.08 27.661 154.856 28.214 153.57 28.214C 151.389 28.214 149.632 26.903 149.632 23.331C 149.632 19.76 151.283 18.449 153.465 18.449C 154.733 18.449 156.038 19.129 156.76 20.502"></path></g></g></g><g id="g-root-tx_gegensei_1ha36bo1q79pu2-stroke" data-item-order="0" data-item-id="tx_gegensei_1ha36bo1q79pu2" data-item-class="Label Stroke" data-item-index="none" data-renderer-id="0" transform="translate(-9, 243)"><g id="tx_gegensei_1ha36bo1q79pu2-stroke" fill="none" stroke-linecap="square" stroke-linejoin="miter" stroke-miterlimit="4" stroke="#CCCCCC" stroke-width="2"><g xmlns="http://www.w3.org/2000/svg"><path d="M 20.357 22.37L 23.93 22.336L 23.92 26.847C 22.713 28.019 21.566 28.398 19.249 28.398C 16.584 28.398 14.423 26.207 14.423 23.504L 14.423 19.621C 14.423 16.918 16.584 14.727 19.249 14.727C 21.256 14.727 22.978 15.97 23.705 17.74M 35.477 27.218C 34.504 28.155 33.479 28.339 32.294 28.339C 30.225 28.339 28.361 27.028 28.361 23.456C 28.361 19.884 30.171 18.573 32.24 18.573C 34.308 18.573 35.912 19.63 35.912 23.201L 28.692 23.201M 46.969 18.652L 46.969 28.654C 46.969 33.351 41.676 33.001 40.241 31.47M 46.635 26.573C 45.955 27.661 44.731 28.214 43.445 28.214C 41.264 28.214 39.507 26.903 39.507 23.331C 39.507 19.76 41.158 18.449 43.34 18.449C 44.608 18.449 45.913 19.129 46.635 20.502M 58.377 27.218C 57.404 28.155 56.379 28.339 55.194 28.339C 53.125 28.339 51.261 27.028 51.261 23.456C 51.261 19.884 53.071 18.573 55.14 18.573C 57.208 18.573 58.812 19.63 58.812 23.201L 51.592 23.201M 62.859 18.78L 62.859 28.128M 69.693 28.128L 69.693 22.074C 69.693 21.362 69.789 18.79 67.406 18.587C 65.648 18.437 63.959 19.562 63.183 20.956M 80.628 20.381C 80.332 19.404 79.178 18.584 77.568 18.584C 75.68 18.584 74.46 19.447 74.369 20.751C 74.264 22.246 75.498 22.822 77.428 23.339C 79.122 23.797 81.065 24.277 80.911 26.122C 80.812 27.31 79.835 28.346 77.478 28.346C 75.572 28.346 74.495 27.53 74.16 26.424M 91.927 27.218C 90.954 28.155 89.929 28.339 88.744 28.339C 86.675 28.339 84.812 27.028 84.812 23.456C 84.812 19.884 86.621 18.573 88.69 18.573C 90.758 18.573 92.362 19.63 92.362 23.201L 85.142 23.201M 96.588 14.971L 96.612 14.971M 96.572 18.804L 96.572 28.145M 104.469 28.326C 103.06 28.465 102.202 27.732 102.202 26.387L 102.202 16.081M 104.352 18.642L 102.588 18.642M 100.092 18.642L 101.825 18.642M 108.558 14.971L 108.582 14.971M 108.542 18.804L 108.542 28.145M 120.479 18.652L 120.479 28.654C 120.479 33.351 115.186 33.001 113.751 31.47M 120.145 26.573C 119.465 27.661 118.241 28.214 116.955 28.214C 114.774 28.214 113.017 26.903 113.017 23.331C 113.017 19.76 114.668 18.449 116.85 18.449C 118.118 18.449 119.423 19.129 120.145 20.502M 131.887 27.218C 130.914 28.155 129.889 28.339 128.704 28.339C 126.635 28.339 124.771 27.028 124.771 23.456C 124.771 19.884 126.581 18.573 128.65 18.573C 130.718 18.573 132.322 19.63 132.322 23.201L 125.102 23.201M 142.389 14.947L 142.389 24.478C 142.389 26.611 144.369 28.34 146.811 28.34C 149.253 28.34 151.232 26.611 151.232 24.478L 151.232 14.947M 155.959 18.78L 155.959 28.128M 162.793 28.128L 162.793 22.074C 162.793 21.362 162.889 18.79 160.506 18.587C 158.748 18.437 157.059 19.562 156.283 20.956M 170.539 28.326C 169.13 28.465 168.272 27.732 168.272 26.387L 168.272 16.081M 170.422 18.642L 168.658 18.642M 166.162 18.642L 167.895 18.642M 181.097 27.218C 180.124 28.155 179.099 28.339 177.914 28.339C 175.845 28.339 173.982 27.028 173.982 23.456C 173.982 19.884 175.791 18.573 177.86 18.573C 179.928 18.573 181.532 19.63 181.532 23.201L 174.312 23.201M 189.185 18.609C 187.804 18.419 186.556 19.319 185.914 20.619M 185.559 18.773L 185.559 28.123M 198.848 20.381C 198.552 19.404 197.398 18.584 195.788 18.584C 193.9 18.584 192.68 19.447 192.589 20.751C 192.484 22.246 193.718 22.822 195.648 23.339C 197.342 23.797 199.285 24.277 199.131 26.122C 199.032 27.31 198.055 28.346 195.698 28.346C 193.792 28.346 192.715 27.53 192.38 26.424M 206.469 28.326C 205.06 28.465 204.202 27.732 204.202 26.387L 204.202 16.081M 206.352 18.642L 204.588 18.642M 202.092 18.642L 203.825 18.642M 211.633 14.932L 211.657 14.932M 216.065 14.932L 216.089 14.932M 210.352 18.767L 210.352 24.821C 210.352 25.533 210.257 28.096 212.639 28.308C 214.73 28.493 216.003 27.653 216.705 26.47M 217.187 28.115L 217.186 18.767M 224.939 28.326C 223.53 28.465 222.672 27.732 222.672 26.387L 222.672 16.081M 224.822 18.642L 223.058 18.642M 220.562 18.642L 222.295 18.642M 228.329 18.78L 235.006 18.78L 235.006 18.936L 228.244 27.904L 228.244 28.128L 235.299 28.128M 246.057 28.115L 246.056 18.767M 239.222 18.767L 239.222 24.821C 239.222 25.533 239.127 28.096 241.509 28.308C 243.6 28.493 244.873 27.653 245.575 26.47M 250.859 18.78L 250.859 28.128M 257.693 28.128L 257.693 22.074C 257.693 21.362 257.789 18.79 255.406 18.587C 253.648 18.437 251.959 19.562 251.183 20.956M 269.479 18.652L 269.479 28.654C 269.479 33.351 264.186 33.001 262.751 31.47M 269.146 26.573C 268.465 27.661 267.241 28.214 265.955 28.214C 263.774 28.214 262.017 26.903 262.017 23.331C 262.017 19.76 263.668 18.449 265.85 18.449C 267.118 18.449 268.423 19.129 269.146 20.502"></path></g></g></g><g id="g-root-tx_scrumtea_dj7c901q6q0oy-stroke" data-item-order="0" data-item-id="tx_scrumtea_dj7c901q6q0oy" data-item-class="Label Stroke" data-item-index="none" data-renderer-id="0" transform="translate(375, 231)"><g id="tx_scrumtea_dj7c901q6q0oy-stroke" fill="none" stroke-linecap="square" stroke-linejoin="miter" stroke-miterlimit="4" stroke="#CCCCCC" stroke-width="2"><g xmlns="http://www.w3.org/2000/svg"><path d="M 44.266 17.457C 43.835 15.893 42.215 14.732 40.126 14.732C 37.678 14.732 35.977 15.931 35.977 17.754C 35.977 19.724 37.441 20.685 39.946 21.406C 42.143 22.045 44.38 22.813 44.38 25.288C 44.38 26.951 43.067 28.346 40.01 28.346C 37.538 28.346 35.957 27.106 35.593 25.483M 55.352 26.254C 54.98 27.649 53.412 28.339 51.943 28.339C 49.806 28.339 48.04 27.028 48.04 23.456C 48.04 19.884 49.909 18.573 52.047 18.573C 53.554 18.573 55.204 19.41 55.437 20.915M 63.125 18.609C 61.744 18.419 60.496 19.319 59.854 20.619M 59.499 18.773L 59.499 28.123M 73.437 28.115L 73.436 18.767M 66.602 18.767L 66.602 24.821C 66.602 25.533 66.507 28.096 68.889 28.308C 70.98 28.493 72.253 27.653 72.955 26.47M 78.26 18.814L 78.26 28.162M 85.094 28.162L 85.083 21.47C 85.019 20.526 84.652 19.078 82.778 18.649C 80.838 18.205 79.358 19.248 78.622 20.595M 91.929 28.162L 91.929 22.108C 91.929 21.396 92.044 19.206 89.613 18.649C 87.584 18.184 86.049 19.347 85.349 20.783M 48.383 38.945C 45.12 38.945 41.857 38.95 38.594 38.95M 43.48 52.124L 43.48 39.456M 58.787 51.218C 57.814 52.155 56.789 52.339 55.604 52.339C 53.535 52.339 51.672 51.028 51.672 47.456C 51.672 43.884 53.481 42.573 55.55 42.573C 57.618 42.573 59.222 43.63 59.222 47.201L 52.002 47.201M 63.388 44.246C 63.752 43.28 65.168 42.567 66.508 42.567C 68.362 42.567 69.864 43.88 69.864 45.499L 69.87 46.957L 69.87 49.571C 69.87 50.614 69.845 51.353 70.146 52.278M 69.49 46.957L 66.762 46.957C 64.259 46.957 62.959 48.343 62.959 49.837C 62.959 51.332 64.197 52.341 65.813 52.341C 67.795 52.341 69.421 50.888 69.821 49.732M 74.72 42.814L 74.72 52.162M 81.554 52.162L 81.543 45.47C 81.479 44.526 81.112 43.078 79.238 42.649C 77.298 42.205 75.818 43.248 75.082 44.595M 88.389 52.162L 88.389 46.108C 88.389 45.396 88.504 43.206 86.073 42.649C 84.044 42.184 82.509 43.347 81.809 44.783M 20.076 76.117L 20.084 62.978L 21.053 62.978L 26.356 76.115L 26.672 76.115L 31.991 62.978L 32.961 62.978L 32.955 76.117M 44.702 75.218C 43.729 76.155 42.704 76.339 41.519 76.339C 39.45 76.339 37.587 75.028 37.587 71.456C 37.587 67.884 39.396 66.573 41.465 66.573C 43.533 66.573 45.137 67.63 45.137 71.201L 37.917 71.201M 52.79 66.609C 51.409 66.419 50.161 67.319 49.519 68.619M 49.164 66.773L 49.164 76.123M 56.29 62.125L 56.29 76.126M 62.213 66.61L 56.677 72.462M 62.874 76.284L 58.757 70.785M 66.975 66.814L 66.975 76.162M 73.809 76.162L 73.798 69.47C 73.734 68.526 73.367 67.078 71.493 66.649C 69.553 66.205 68.073 67.248 67.337 68.595M 80.644 76.162L 80.644 70.108C 80.644 69.396 80.759 67.206 78.328 66.649C 76.299 66.184 74.765 67.347 74.064 68.783M 85.543 68.246C 85.907 67.28 87.323 66.567 88.663 66.567C 90.517 66.567 92.019 67.88 92.019 69.499L 92.025 70.957L 92.025 73.571C 92.025 74.614 92 75.353 92.301 76.278M 91.645 70.957L 88.917 70.957C 86.414 70.957 85.114 72.343 85.114 73.837C 85.114 75.331 86.352 76.341 87.968 76.341C 89.95 76.341 91.576 74.888 91.976 73.732M 96.991 62.125L 96.991 76.126M 108.552 75.218C 107.579 76.155 106.554 76.339 105.369 76.339C 103.3 76.339 101.437 75.028 101.437 71.456C 101.437 67.884 103.246 66.573 105.315 66.573C 107.383 66.573 108.987 67.63 108.987 71.201L 101.767 71.201"></path></g></g></g><g id="g-root-tx_produktz_m7z4jo1q79qmd-stroke" data-item-order="0" data-item-id="tx_produktz_m7z4jo1q79qmd" data-item-class="Label Stroke" data-item-index="none" data-renderer-id="0" transform="translate(603, 243)"><g id="tx_produktz_m7z4jo1q79qmd-stroke" fill="none" stroke-linecap="square" stroke-linejoin="miter" stroke-miterlimit="4" stroke="#CCCCCC" stroke-width="2"><g xmlns="http://www.w3.org/2000/svg"><path d="M 20.236 28.131L 20.236 14.944L 25.515 14.928C 26.613 14.967 28.998 15.749 28.998 18.572C 28.998 21.394 26.613 22.254 25.515 22.331L 20.764 22.345M 36.72 18.609C 35.339 18.419 34.091 19.319 33.449 20.619M 33.094 18.773L 33.094 28.123M 48.022 23.457C 48.022 26.522 46.151 28.34 43.843 28.34C 41.535 28.34 39.664 26.522 39.664 23.457C 39.664 20.392 41.535 18.573 43.843 18.573C 46.151 18.573 48.022 20.392 48.022 23.457ZM 59.215 28.124L 59.215 14.123M 58.855 26.773C 57.993 27.871 56.895 28.34 55.585 28.34C 53.404 28.34 51.752 27.029 51.752 23.458C 51.752 19.886 53.509 18.575 55.691 18.575C 56.96 18.575 58.17 19.114 58.855 20.175M 70.872 28.115L 70.871 18.767M 64.037 18.767L 64.037 24.821C 64.037 25.533 63.942 28.096 66.324 28.308C 68.415 28.493 69.688 27.653 70.39 26.47M 75.67 14.125L 75.67 28.126M 81.593 18.61L 76.057 24.462M 82.254 28.284L 78.137 22.785M 89.304 28.326C 87.895 28.465 87.037 27.732 87.037 26.387L 87.037 16.081M 89.187 18.642L 87.423 18.642M 84.927 18.642L 86.66 18.642M 92.694 18.78L 99.371 18.78L 99.371 18.936L 92.609 27.904L 92.609 28.128L 99.664 28.128M 103.793 14.971L 103.817 14.971M 103.777 18.804L 103.777 28.145M 115.352 27.218C 114.379 28.155 113.354 28.339 112.169 28.339C 110.1 28.339 108.236 27.028 108.236 23.456C 108.236 19.884 110.046 18.573 112.115 18.573C 114.183 18.573 115.787 19.63 115.787 23.201L 108.567 23.201M 119.971 14.125L 119.971 28.126"></path></g></g></g><g id="g-root-tx_vertraue_zjfmx01q79p1f-stroke" data-item-order="0" data-item-id="tx_vertraue_zjfmx01q79p1f" data-item-class="Label Stroke" data-item-index="none" data-renderer-id="0" transform="translate(75, 279)"><g id="tx_vertraue_zjfmx01q79p1f-stroke" fill="none" stroke-linecap="square" stroke-linejoin="miter" stroke-miterlimit="4" stroke="#CCCCCC" stroke-width="2"><g xmlns="http://www.w3.org/2000/svg"><path d="M 28.117 14.93L 23.379 28.103L 22.818 28.103L 18.095 14.93M 38.812 27.218C 37.839 28.155 36.814 28.339 35.629 28.339C 33.56 28.339 31.697 27.028 31.697 23.456C 31.697 19.884 33.506 18.573 35.575 18.573C 37.643 18.573 39.247 19.63 39.247 23.201L 32.027 23.201M 46.9 18.609C 45.519 18.419 44.271 19.319 43.629 20.619M 43.274 18.773L 43.274 28.123M 53.374 28.326C 51.965 28.465 51.107 27.732 51.107 26.387L 51.107 16.081M 53.257 18.642L 51.493 18.642M 48.997 18.642L 50.73 18.642M 60.89 18.609C 59.509 18.419 58.261 19.319 57.619 20.619M 57.264 18.773L 57.264 28.123M 64.513 20.246C 64.877 19.28 66.293 18.567 67.633 18.567C 69.487 18.567 70.989 19.88 70.989 21.499L 70.995 22.957L 70.995 25.571C 70.995 26.614 70.97 27.353 71.271 28.278M 70.615 22.957L 67.887 22.957C 65.384 22.957 64.084 24.343 64.084 25.837C 64.084 27.331 65.322 28.341 66.938 28.341C 68.92 28.341 70.546 26.888 70.946 25.732M 82.632 28.115L 82.631 18.767M 75.797 18.767L 75.797 24.821C 75.797 25.533 75.702 28.096 78.084 28.308C 80.175 28.493 81.448 27.653 82.15 26.47M 94.082 27.218C 93.109 28.155 92.084 28.339 90.899 28.339C 88.83 28.339 86.966 27.028 86.966 23.456C 86.966 19.884 88.776 18.573 90.845 18.573C 92.913 18.573 94.517 19.63 94.517 23.201L 87.297 23.201M 98.564 18.78L 98.564 28.128M 105.398 28.128L 105.398 22.074C 105.398 21.362 105.494 18.79 103.111 18.587C 101.353 18.437 99.664 19.562 98.888 20.956M 116.333 20.381C 116.037 19.404 114.883 18.584 113.273 18.584C 111.385 18.584 110.165 19.447 110.074 20.751C 109.969 22.246 111.203 22.822 113.133 23.339C 114.827 23.797 116.77 24.277 116.616 26.122C 116.517 27.31 115.54 28.346 113.183 28.346C 111.277 28.346 110.2 27.53 109.865 26.424M 121.103 20.246C 121.467 19.28 122.883 18.567 124.223 18.567C 126.077 18.567 127.579 19.88 127.579 21.499L 127.585 22.957L 127.585 25.571C 127.585 26.614 127.56 27.353 127.861 28.278M 127.205 22.957L 124.477 22.957C 121.974 22.957 120.674 24.343 120.674 25.837C 120.674 27.331 121.912 28.341 123.528 28.341C 125.51 28.341 127.136 26.888 127.536 25.732M 139.222 28.115L 139.221 18.767M 132.387 18.767L 132.387 24.821C 132.387 25.533 132.292 28.096 134.674 28.308C 136.765 28.493 138.038 27.653 138.74 26.47M 148.139 13.926C 147.971 13.908 147.69 13.907 147.562 13.907C 145.983 13.907 144.985 15.035 144.985 16.425L 144.985 28.129M 147.41 18.664L 145.321 18.664M 143.133 18.664L 144.659 18.664M 151.13 28.124L 151.13 14.123M 151.513 20.138C 152.203 19.102 153.399 18.575 154.654 18.575C 156.835 18.575 158.592 19.886 158.592 23.458C 158.592 27.029 156.94 28.34 154.759 28.34C 153.462 28.34 152.372 27.879 151.513 26.803M 163.043 20.246C 163.407 19.28 164.823 18.567 166.163 18.567C 168.017 18.567 169.519 19.88 169.519 21.499L 169.525 22.957L 169.525 25.571C 169.525 26.614 169.5 27.353 169.802 28.278M 169.145 22.957L 166.417 22.957C 163.914 22.957 162.614 24.343 162.614 25.837C 162.614 27.331 163.852 28.341 165.468 28.341C 167.45 28.341 169.076 26.888 169.476 25.732M 181.162 28.115L 181.161 18.767M 174.327 18.767L 174.327 24.821C 174.327 25.533 174.232 28.096 176.614 28.308C 178.705 28.493 179.978 27.653 180.68 26.47"></path></g></g></g><path id="cu_zs6dac1q6u9kw" d="M49 25 L 49 32.9 L 49 67.1 A20.9 20.9 106 0 1 28.1 88 L 28 88 L 25 88" transform="translate(364, 312)" style="fill:none;stroke-linecap:round;stroke-linejoin:round;stroke-miterlimit:1.5;stroke:#434343;stroke-width:2;stroke-dasharray:5, 7"></path><path id="cu_qwjd1g1q6uadn" d="M25 25 L 25 32.9 L 25 67.1 A20.9 20.9 72.2 0 0 45.9 88 L 46 88 L 49 88" transform="translate(440, 312)" style="fill:none;stroke-linecap:round;stroke-linejoin:round;stroke-miterlimit:1.5;stroke:#434343;stroke-width:2;stroke-dasharray:5, 7"></path><g id="g-root-cog_9599dw1q78bgn-stroke" data-item-order="0" data-item-id="cog_9599dw1q78bgn" data-item-class="Icon Stroke" data-item-index="none" data-renderer-id="0" transform="translate(491, 3)"><g id="cog_9599dw1q78bgn-stroke" fill="none" stroke-linecap="round" stroke-linejoin="round" stroke-miterlimit="1.5" stroke="#FD6A65" stroke-width="2"><g xmlns="http://www.w3.org/2000/svg"><path d="M 11.856 16.474C 11.856 18.048 13.132 19.324 14.706 19.324C 16.28 19.324 17.556 18.048 17.556 16.474C 17.556 14.9 16.28 13.623 14.706 13.623C 13.132 13.623 11.856 14.9 11.856 16.474M 21.263 23.821L 21.25 23.821L 18.176 23.849L 14.646 21C 14.611 20.972 14.574 20.954 14.538 20.929C 14.483 20.889 14.426 20.852 14.368 20.819C 14.306 20.788 14.243 20.762 14.179 20.739C 14.136 20.722 14.097 20.702 14.054 20.689C 13.968 20.665 13.88 20.648 13.791 20.637C 13.767 20.638 13.745 20.625 13.72 20.622L 13.72 20.622C 13.681 20.622 13.644 20.622 13.606 20.622C 13.067 20.599 12.548 20.831 12.206 21.25L 12.199 21.257C 12.17 21.294 12.15 21.334 12.125 21.371C 12.086 21.424 12.05 21.478 12.017 21.535C 11.987 21.597 11.961 21.66 11.938 21.725C 11.921 21.767 11.901 21.808 11.887 21.85C 11.865 21.932 11.849 22.016 11.837 22.1C 11.837 22.129 11.824 22.154 11.821 22.183L 11.821 22.202L 11 30.733C 10.916 31.604 11.492 32.402 12.345 32.596L 18.52 34.007L 18.936 37.801C 19.034 38.682 19.776 39.35 20.663 39.353C 20.727 39.352 20.791 39.349 20.855 39.341C 21.81 39.236 22.499 38.377 22.395 37.421L 21.841 32.396C 21.76 31.66 21.222 31.055 20.5 30.89L 14.609 29.544L 14.976 25.739L 16.476 26.949C 16.786 27.198 17.171 27.334 17.569 27.334L 17.579 27.334L 21.272 27.301C 22.233 27.298 23.01 26.517 23.007 25.556C 23.005 24.595 22.223 23.818 21.263 23.821ZM 32.444 16.474C 32.444 18.048 33.72 19.324 35.294 19.324C 36.868 19.324 38.144 18.048 38.144 16.474C 38.144 14.9 36.868 13.623 35.294 13.623C 33.72 13.623 32.444 14.9 32.444 16.474M 28.737 23.821L 28.75 23.821L 31.824 23.849L 35.354 21C 35.389 20.972 35.426 20.954 35.463 20.929C 35.517 20.889 35.574 20.852 35.632 20.819C 35.694 20.788 35.757 20.762 35.821 20.739C 35.864 20.722 35.903 20.702 35.946 20.689C 36.032 20.665 36.12 20.648 36.209 20.637C 36.232 20.638 36.255 20.625 36.28 20.622L 36.28 20.622C 36.319 20.622 36.356 20.622 36.394 20.622C 36.933 20.599 37.452 20.831 37.794 21.25L 37.801 21.257C 37.83 21.294 37.85 21.334 37.875 21.371C 37.914 21.424 37.95 21.478 37.982 21.535C 38.013 21.597 38.039 21.66 38.063 21.725C 38.079 21.767 38.099 21.808 38.112 21.85C 38.135 21.932 38.151 22.016 38.163 22.1C 38.163 22.129 38.176 22.154 38.179 22.183L 38.179 22.202L 39 30.726C 39.084 31.597 38.508 32.395 37.655 32.59L 31.48 34.001L 31.064 37.795C 30.966 38.677 30.222 39.345 29.335 39.346C 29.271 39.346 29.206 39.342 29.142 39.335C 28.187 39.23 27.498 38.37 27.602 37.415L 28.156 32.39C 28.24 31.655 28.779 31.054 29.5 30.89L 35.39 29.544L 35.022 25.739L 33.522 26.949C 33.213 27.198 32.827 27.334 32.43 27.334L 32.42 27.334L 28.726 27.301C 27.765 27.298 26.988 26.517 26.991 25.556C 26.994 24.595 27.775 23.818 28.736 23.821ZM 25 15.339C 24.741 15.339 24.531 15.549 24.531 15.807C 24.531 16.066 24.741 16.276 25 16.276C 25.259 16.276 25.469 16.066 25.469 15.807C 25.469 15.683 25.42 15.564 25.332 15.476C 25.244 15.388 25.124 15.338 25 15.339L 25 15.339M 24.25 11.134C 24.38 10.838 24.672 10.647 24.995 10.647C 25.318 10.647 25.61 10.838 25.74 11.134L 26.345 12.509C 26.489 12.833 26.826 13.028 27.179 12.99L 28.669 12.828C 28.99 12.791 29.303 12.948 29.466 13.228C 29.629 13.508 29.61 13.858 29.419 14.119L 28.533 15.329C 28.322 15.615 28.322 16.005 28.533 16.291L 29.42 17.5C 29.611 17.761 29.63 18.111 29.467 18.391C 29.305 18.671 28.992 18.828 28.67 18.791L 27.184 18.625C 26.831 18.588 26.494 18.783 26.35 19.108L 25.745 20.483C 25.615 20.778 25.323 20.969 25 20.969C 24.677 20.969 24.385 20.778 24.255 20.483L 23.65 19.108C 23.506 18.783 23.169 18.588 22.816 18.625L 21.326 18.788C 21.007 18.821 20.697 18.664 20.536 18.386C 20.375 18.108 20.392 17.761 20.58 17.5L 21.466 16.291C 21.676 16.005 21.676 15.615 21.466 15.329L 20.58 14.119C 20.389 13.858 20.37 13.508 20.533 13.228C 20.695 12.948 21.008 12.791 21.33 12.828L 22.82 12.99C 23.173 13.028 23.51 12.833 23.654 12.509Z"></path></g></g></g><g id="g-root-6_1lynetg1q6u9l4-stroke" data-item-order="0" data-item-id="6_1lynetg1q6u9l4" data-item-class="Icon Stroke" data-item-index="none" data-renderer-id="0" transform="translate(337, 3)"><g id="6_1lynetg1q6u9l4-stroke" fill="none" stroke-linecap="round" stroke-linejoin="round" stroke-miterlimit="1.5" stroke="#1AC6FF" stroke-width="2"><g xmlns="http://www.w3.org/2000/svg"><path d="M 14.286 34.643C 14.286 37.01 16.204 38.929 18.571 38.929C 20.938 38.929 22.857 37.01 22.857 34.643C 22.857 32.276 20.938 30.357 18.571 30.357C 16.204 30.357 14.286 32.276 14.286 34.643M 14.286 15.357C 14.286 17.724 16.204 19.643 18.571 19.643C 20.938 19.643 22.857 17.724 22.857 15.357C 22.857 12.99 20.938 11.071 18.571 11.071C 16.204 11.071 14.286 12.99 14.286 15.357M 27.143 17.5C 27.143 19.867 29.062 21.786 31.429 21.786C 33.796 21.786 35.714 19.867 35.714 17.5C 35.714 15.133 33.796 13.214 31.429 13.214C 29.062 13.214 27.143 15.133 27.143 17.5M 18.571 30.357L 18.571 19.643M 31.429 21.786L 31.429 22.857C 31.429 25.224 29.51 27.143 27.143 27.143L 21.786 27.143C 20.011 27.143 18.571 28.582 18.571 30.357"></path></g></g></g><g id="g-root-tx_kreuzfun_m985vo1q6su0x-stroke" data-item-order="0" data-item-id="tx_kreuzfun_m985vo1q6su0x" data-item-class="Label Stroke" data-item-index="none" data-renderer-id="0" transform="translate(175, 378)"><g id="tx_kreuzfun_m985vo1q6su0x-stroke" fill="none" stroke-linecap="square" stroke-linejoin="miter" stroke-miterlimit="4" stroke="#F99539" stroke-width="2"><g xmlns="http://www.w3.org/2000/svg"><path d="M 17.49 14.945L 17.49 28.122M 25.764 14.675L 17.844 23.44M 26.263 28.331L 20.67 20.92M 33.95 18.609C 32.569 18.419 31.321 19.319 30.679 20.619M 30.324 18.773L 30.324 28.123M 44.102 27.218C 43.129 28.155 42.104 28.339 40.919 28.339C 38.85 28.339 36.986 27.028 36.986 23.456C 36.986 19.884 38.796 18.573 40.865 18.573C 42.933 18.573 44.537 19.63 44.537 23.201L 37.317 23.201M 55.392 28.115L 55.391 18.767M 48.557 18.767L 48.557 24.821C 48.557 25.533 48.462 28.096 50.844 28.308C 52.935 28.493 54.208 27.653 54.91 26.47M 59.674 18.78L 66.351 18.78L 66.351 18.936L 59.589 27.904L 59.589 28.128L 66.644 28.128M 74.709 13.926C 74.541 13.908 74.26 13.907 74.132 13.907C 72.553 13.907 71.555 15.035 71.555 16.425L 71.555 28.129M 73.98 18.664L 71.891 18.664M 69.703 18.664L 71.229 18.664M 84.482 28.115L 84.481 18.767M 77.647 18.767L 77.647 24.821C 77.647 25.533 77.552 28.096 79.934 28.308C 82.025 28.493 83.298 27.653 84 26.47M 89.284 18.78L 89.284 28.128M 96.118 28.128L 96.118 22.074C 96.118 21.362 96.214 18.79 93.831 18.587C 92.073 18.437 90.384 19.562 89.608 20.956M 100.89 14.125L 100.89 28.126M 106.813 18.61L 101.277 24.462M 107.474 28.284L 103.357 22.785M 114.524 28.326C 113.115 28.465 112.257 27.732 112.257 26.387L 112.257 16.081M 114.407 18.642L 112.643 18.642M 110.147 18.642L 111.88 18.642M 118.613 14.971L 118.637 14.971M 118.597 18.804L 118.597 28.145M 131.322 23.457C 131.322 26.522 129.451 28.34 127.143 28.34C 124.835 28.34 122.964 26.522 122.964 23.457C 122.964 20.392 124.835 18.573 127.143 18.573C 129.451 18.573 131.322 20.392 131.322 23.457ZM 135.514 18.78L 135.514 28.128M 142.348 28.128L 142.348 22.074C 142.348 21.362 142.444 18.79 140.061 18.587C 138.303 18.437 136.614 19.562 135.838 20.956M 147.243 20.246C 147.607 19.28 149.023 18.567 150.363 18.567C 152.217 18.567 153.719 19.88 153.719 21.499L 153.725 22.957L 153.725 25.571C 153.725 26.614 153.7 27.353 154.001 28.278M 153.345 22.957L 150.617 22.957C 148.114 22.957 146.814 24.343 146.814 25.837C 146.814 27.331 148.052 28.341 149.668 28.341C 151.65 28.341 153.276 26.888 153.676 25.732M 158.691 14.125L 158.691 28.126"></path></g></g></g><g id="g-root-1_ddl5ms1q6sutm-stroke" data-item-order="0" data-item-id="1_ddl5ms1q6sutm" data-item-class="Icon Stroke" data-item-index="none" data-renderer-id="0" transform="translate(337, 375)"><g id="1_ddl5ms1q6sutm-stroke" fill="none" stroke-linecap="round" stroke-linejoin="round" stroke-miterlimit="1.5" stroke="#F99539" stroke-width="2"><g xmlns="http://www.w3.org/2000/svg"><path d="M 14.201 28.06C 14.201 29.611 15.459 30.869 17.01 30.869C 18.561 30.869 19.819 29.611 19.819 28.06C 19.819 26.509 18.561 25.251 17.01 25.251C 15.459 25.251 14.201 26.509 14.201 28.06M 21.636 35.524C 20.94 33.59 19.115 32.293 17.06 32.272C 15.004 32.252 13.153 33.512 12.419 35.431M 29.914 28.06C 29.914 29.611 31.171 30.869 32.722 30.869C 34.274 30.869 35.531 29.611 35.531 28.06C 35.531 26.509 34.274 25.251 32.722 25.251C 31.171 25.251 29.914 26.509 29.914 28.06M 37.161 35.075C 36.407 33.526 34.908 32.475 33.195 32.292C 32.753 32.258 32.309 32.279 31.872 32.357M 11.25 37.889L 38.75 37.889M 33.655 37.889L 25.548 37.889L 24.468 33.024C 24.427 32.839 24.472 32.645 24.59 32.498C 24.709 32.35 24.888 32.264 25.077 32.264L 31.403 32.264C 31.988 32.264 32.495 32.671 32.622 33.243ZM 24.375 12.111L 24.375 17.111M 21.875 20.861L 22.5 17.111L 26.25 17.111L 26.875 20.861L 21.875 20.861ZM 28.368 35.076C 28.368 35.335 28.577 35.545 28.836 35.545C 29.095 35.545 29.305 35.335 29.305 35.076C 29.305 34.817 29.095 34.608 28.836 34.608C 28.577 34.608 28.368 34.817 28.368 35.076M 30.719 26.094C 31.952 27.43 33.715 28.15 35.531 28.06M 19.014 26.094C 17.78 27.43 16.018 28.15 14.201 28.06"></path></g></g></g><g id="g-root-medi_18fp4901q72pdv-stroke" data-item-order="0" data-item-id="medi_18fp4901q72pdv" data-item-class="Icon Stroke" data-item-index="none" data-renderer-id="0" transform="translate(491, 375)"><g id="medi_18fp4901q72pdv-stroke" fill="none" stroke-linecap="round" stroke-linejoin="round" stroke-miterlimit="1.5" stroke="#CD6AFB" stroke-width="2"><g xmlns="http://www.w3.org/2000/svg"><path d="M 21.25 14.375C 21.25 16.446 22.929 18.125 25 18.125C 27.071 18.125 28.75 16.446 28.75 14.375C 28.75 12.304 27.071 10.625 25 10.625C 22.929 10.625 21.25 12.304 21.25 14.375M 17.825 38.537C 18.165 39.062 18.749 39.378 19.375 39.375C 19.712 39.375 19.375 39.45 25 37.912M 25.85 34.25L 31.112 35.688C 32.024 35.929 32.615 36.811 32.491 37.746C 32.368 38.681 31.568 39.379 30.625 39.375C 30.262 39.375 31.263 39.612 16.388 35.563C 15.386 35.293 14.793 34.264 15.063 33.263C 15.332 32.261 16.361 31.668 17.363 31.938L 20.625 32.825L 20.625 27.5C 19.53 28.761 17.918 29.452 16.25 29.375C 13.731 29.483 11.452 27.89 10.688 25.487C 10.418 24.486 11.011 23.457 12.012 23.188C 13.014 22.918 14.043 23.511 14.313 24.513C 14.313 24.512 14.625 25.625 16.25 25.625C 17.337 25.625 19.188 23.862 20.163 21.725C 20.467 21.053 21.138 20.623 21.875 20.625L 28.125 20.625C 28.862 20.623 29.533 21.053 29.838 21.725C 30.813 23.862 32.662 25.625 33.75 25.625C 35.375 25.625 35.688 24.525 35.688 24.512C 35.957 23.511 36.986 22.918 37.988 23.188C 38.989 23.457 39.582 24.486 39.313 25.488C 38.548 27.89 36.269 29.483 33.75 29.375C 32.082 29.452 30.47 28.761 29.375 27.5L 29.375 32.825L 32.638 31.938C 33.487 31.71 34.381 32.104 34.787 32.885C 35.192 33.665 35 34.623 34.325 35.188M 20.625 25.625L 20.625 27.5M 29.375 25.625L 29.375 27.5"></path></g></g></g><g id="g-root-tx_selbstor_1lr5mmc1q72nsy-stroke" data-item-order="0" data-item-id="tx_selbstor_1lr5mmc1q72nsy" data-item-class="Label Stroke" data-item-index="none" data-renderer-id="0" transform="translate(527, 378)"><g id="tx_selbstor_1lr5mmc1q72nsy-stroke" fill="none" stroke-linecap="square" stroke-linejoin="miter" stroke-miterlimit="4" stroke="#CD6AFB" stroke-width="2"><g xmlns="http://www.w3.org/2000/svg"><path d="M 25.496 17.457C 25.065 15.893 23.445 14.732 21.356 14.732C 18.908 14.732 17.207 15.931 17.207 17.754C 17.207 19.724 18.671 20.685 21.175 21.406C 23.372 22.045 25.609 22.813 25.609 25.288C 25.609 26.951 24.297 28.346 21.24 28.346C 18.768 28.346 17.187 27.106 16.823 25.483M 36.417 27.218C 35.444 28.155 34.419 28.339 33.234 28.339C 31.165 28.339 29.301 27.028 29.301 23.456C 29.301 19.884 31.111 18.573 33.18 18.573C 35.248 18.573 36.852 19.63 36.852 23.201L 29.632 23.201M 41.036 14.125L 41.036 28.126M 45.975 28.124L 45.975 14.123M 46.358 20.138C 47.048 19.102 48.244 18.575 49.499 18.575C 51.68 18.575 53.437 19.886 53.437 23.458C 53.437 27.029 51.785 28.34 49.604 28.34C 48.307 28.34 47.217 27.879 46.358 26.803M 63.928 20.381C 63.632 19.404 62.478 18.584 60.868 18.584C 58.98 18.584 57.76 19.447 57.669 20.751C 57.564 22.246 58.798 22.822 60.728 23.339C 62.422 23.797 64.365 24.277 64.211 26.122C 64.112 27.31 63.135 28.346 60.778 28.346C 58.872 28.346 57.795 27.53 57.46 26.424M 71.549 28.326C 70.14 28.465 69.282 27.732 69.282 26.387L 69.282 16.081M 71.432 18.642L 69.668 18.642M 67.172 18.642L 68.905 18.642M 83.257 23.457C 83.257 26.522 81.386 28.34 79.078 28.34C 76.77 28.34 74.899 26.522 74.899 23.457C 74.899 20.392 76.77 18.573 79.078 18.573C 81.386 18.573 83.257 20.392 83.257 23.457ZM 91.055 18.609C 89.674 18.419 88.426 19.319 87.784 20.619M 87.429 18.773L 87.429 28.123M 101.569 18.652L 101.569 28.654C 101.569 33.351 96.276 33.001 94.841 31.47M 101.235 26.573C 100.555 27.661 99.331 28.214 98.045 28.214C 95.864 28.214 94.107 26.903 94.107 23.331C 94.107 19.76 95.758 18.449 97.94 18.449C 99.208 18.449 100.513 19.129 101.235 20.502M 106.448 20.246C 106.812 19.28 108.228 18.567 109.568 18.567C 111.422 18.567 112.924 19.88 112.924 21.499L 112.93 22.957L 112.93 25.571C 112.93 26.614 112.905 27.353 113.206 28.278M 112.55 22.957L 109.822 22.957C 107.319 22.957 106.019 24.343 106.019 25.837C 106.019 27.331 107.257 28.341 108.873 28.341C 110.855 28.341 112.481 26.888 112.881 25.732M 117.759 18.78L 117.759 28.128M 124.593 28.128L 124.593 22.074C 124.593 21.362 124.689 18.79 122.306 18.587C 120.548 18.437 118.859 19.562 118.083 20.956M 129.548 14.971L 129.572 14.971M 129.532 18.804L 129.532 28.145M 140.618 20.381C 140.322 19.404 139.168 18.584 137.558 18.584C 135.67 18.584 134.45 19.447 134.359 20.751C 134.254 22.246 135.488 22.822 137.418 23.339C 139.112 23.797 141.055 24.277 140.901 26.122C 140.802 27.31 139.825 28.346 137.468 28.346C 135.562 28.346 134.485 27.53 134.15 26.424M 145.448 14.971L 145.472 14.971M 145.432 18.804L 145.432 28.145M 157.007 27.218C 156.034 28.155 155.009 28.339 153.824 28.339C 151.755 28.339 149.891 27.028 149.891 23.456C 149.891 19.884 151.701 18.573 153.77 18.573C 155.838 18.573 157.442 19.63 157.442 23.201L 150.222 23.201M 165.095 18.609C 163.714 18.419 162.466 19.319 161.824 20.619M 161.469 18.773L 161.469 28.123M 171.569 28.326C 170.16 28.465 169.302 27.732 169.302 26.387L 169.302 16.081M 171.452 18.642L 169.688 18.642M 167.192 18.642L 168.925 18.642"></path></g></g></g><g id="g-root-tx_vielflti_dcyldw1q79o9a-stroke" data-item-order="0" data-item-id="tx_vielflti_dcyldw1q79o9a" data-item-class="Label Stroke" data-item-index="none" data-renderer-id="0" transform="translate(115, 429)"><g id="tx_vielflti_dcyldw1q79o9a-stroke" fill="none" stroke-linecap="square" stroke-linejoin="miter" stroke-miterlimit="4" stroke="#CCCCCC" stroke-width="2"><g xmlns="http://www.w3.org/2000/svg"><path d="M 26.172 14.93L 21.434 28.103L 20.873 28.103L 16.15 14.93M 30.398 14.971L 30.422 14.971M 30.382 18.804L 30.382 28.145M 41.957 27.218C 40.984 28.155 39.959 28.339 38.774 28.339C 36.705 28.339 34.841 27.028 34.841 23.456C 34.841 19.884 36.651 18.573 38.72 18.573C 40.788 18.573 42.392 19.63 42.392 23.201L 35.172 23.201M 46.576 14.125L 46.576 28.126M 55.604 13.926C 55.436 13.908 55.155 13.907 55.027 13.907C 53.448 13.907 52.45 15.035 52.45 16.425L 52.45 28.129M 54.875 18.664L 52.786 18.664M 50.598 18.664L 52.124 18.664M 59.972 14.932L 59.996 14.932M 64.404 14.932L 64.428 14.932M 58.688 20.246C 59.052 19.28 60.468 18.567 61.808 18.567C 63.662 18.567 65.164 19.88 65.164 21.499L 65.17 22.957L 65.17 25.571C 65.17 26.614 65.145 27.353 65.446 28.278M 64.79 22.957L 62.062 22.957C 59.559 22.957 58.259 24.343 58.259 25.837C 58.259 27.331 59.497 28.341 61.113 28.341C 63.095 28.341 64.721 26.888 65.121 25.732M 70.146 14.125L 70.146 28.126M 78.029 28.326C 76.62 28.465 75.762 27.732 75.762 26.387L 75.762 16.081M 77.912 18.642L 76.148 18.642M 73.652 18.642L 75.385 18.642M 82.118 14.971L 82.142 14.971M 82.102 18.804L 82.102 28.145M 94.039 18.652L 94.039 28.654C 94.039 33.351 88.746 33.001 87.311 31.47M 93.705 26.573C 93.025 27.661 91.801 28.214 90.515 28.214C 88.334 28.214 86.577 26.903 86.577 23.331C 86.577 19.76 88.228 18.449 90.41 18.449C 91.678 18.449 92.983 19.129 93.705 20.502M 105.447 27.218C 104.474 28.155 103.449 28.339 102.264 28.339C 100.195 28.339 98.331 27.028 98.331 23.456C 98.331 19.884 100.141 18.573 102.21 18.573C 104.278 18.573 105.882 19.63 105.882 23.201L 98.662 23.201M 123.664 14.945C 122.264 14.945 117.204 14.95 116.256 14.95L 116.256 28.124M 122.632 21.298L 116.693 21.298M 128.942 14.932L 128.966 14.932M 133.374 14.932L 133.398 14.932M 127.658 20.246C 128.022 19.28 129.438 18.567 130.778 18.567C 132.632 18.567 134.134 19.88 134.134 21.499L 134.14 22.957L 134.14 25.571C 134.14 26.614 134.115 27.353 134.416 28.278M 133.76 22.957L 131.032 22.957C 128.529 22.957 127.229 24.343 127.229 25.837C 127.229 27.331 128.467 28.341 130.083 28.341C 132.065 28.341 133.691 26.888 134.091 25.732M 138.968 14.086L 138.968 28.128M 145.832 28.128L 145.832 22.074C 145.832 21.362 145.928 18.791 143.535 18.587C 141.781 18.439 140.096 19.547 139.309 20.928M 150.728 14.971L 150.752 14.971M 150.712 18.804L 150.712 28.145M 162.649 18.652L 162.649 28.654C 162.649 33.351 157.356 33.001 155.921 31.47M 162.315 26.573C 161.635 27.661 160.411 28.214 159.125 28.214C 156.944 28.214 155.187 26.903 155.187 23.331C 155.187 19.76 156.838 18.449 159.02 18.449C 160.288 18.449 161.593 19.129 162.315 20.502M 167.405 14.125L 167.405 28.126M 173.328 18.61L 167.792 24.462M 173.989 28.284L 169.872 22.785M 184.717 27.218C 183.744 28.155 182.719 28.339 181.534 28.339C 179.465 28.339 177.602 27.028 177.602 23.456C 177.602 19.884 179.411 18.573 181.48 18.573C 183.548 18.573 185.152 19.63 185.152 23.201L 177.932 23.201M 189.378 14.971L 189.402 14.971M 189.362 18.804L 189.362 28.145M 197.259 28.326C 195.85 28.465 194.992 27.732 194.992 26.387L 194.992 16.081M 197.142 18.642L 195.378 18.642M 192.882 18.642L 194.615 18.642M 207.817 27.218C 206.844 28.155 205.819 28.339 204.634 28.339C 202.565 28.339 200.702 27.028 200.702 23.456C 200.702 19.884 202.511 18.573 204.58 18.573C 206.648 18.573 208.252 19.63 208.252 23.201L 201.032 23.201M 212.299 18.78L 212.299 28.128M 219.133 28.128L 219.133 22.074C 219.133 21.362 219.229 18.79 216.846 18.587C 215.088 18.437 213.399 19.562 212.623 20.956"></path></g></g></g><path id="cu_vp381q6vmko" d="M43 25 L 43 37 L 43 49 L 34 49 L 25 49" transform="translate(322, 402)" style="fill:none;stroke-linecap:round;stroke-linejoin:round;stroke-miterlimit:1.5;stroke:#434343;stroke-width:2;stroke-dasharray:5, 7"></path><path id="cu_1um68xw1q6vn5v" d="M43 25 L 43 32.5 L 43 73 A12 12 61 0 1 31 85 L 30.9 85 L 25 85" transform="translate(322, 402)" style="fill:none;stroke-linecap:round;stroke-linejoin:round;stroke-miterlimit:1.5;stroke:#434343;stroke-width:2;stroke-dasharray:5, 7"></path><path id="cu_1lqj8p01q6vnyl" d="M25 25 L 25 37 L 25 49 L 34 49 L 43 49" transform="translate(488, 402)" style="fill:none;stroke-linecap:round;stroke-linejoin:round;stroke-miterlimit:1.5;stroke:#434343;stroke-width:2;stroke-dasharray:5, 7"></path><path id="cu_1hapqkk1q6voqw" d="M25 25 L 25 32.5 L 25 73 A12 12 115.1 0 0 37 85 L 37.1 85 L 43 85" transform="translate(488, 402)" style="fill:none;stroke-linecap:round;stroke-linejoin:round;stroke-miterlimit:1.5;stroke:#434343;stroke-width:2;stroke-dasharray:5, 7"></path><g id="g-root-tx_entschei_1umsmv81q79qfc-stroke" data-item-order="0" data-item-id="tx_entschei_1umsmv81q79qfc" data-item-class="Label Stroke" data-item-index="none" data-renderer-id="0" transform="translate(527, 429)"><g id="tx_entschei_1umsmv81q79qfc-stroke" fill="none" stroke-linecap="square" stroke-linejoin="miter" stroke-miterlimit="4" stroke="#CCCCCC" stroke-width="2"><g xmlns="http://www.w3.org/2000/svg"><path d="M 24.142 28.137L 16.579 28.142L 16.579 14.95C 17.527 14.95 22.701 14.95 24.101 14.95M 23.089 21.297L 17.043 21.297M 28.184 18.78L 28.184 28.128M 35.018 28.128L 35.018 22.074C 35.018 21.362 35.114 18.79 32.731 18.587C 30.973 18.437 29.284 19.562 28.508 20.956M 42.764 28.326C 41.355 28.465 40.497 27.732 40.497 26.387L 40.497 16.081M 42.647 18.642L 40.883 18.642M 38.387 18.642L 40.12 18.642M 52.833 20.381C 52.537 19.404 51.383 18.584 49.773 18.584C 47.885 18.584 46.665 19.447 46.574 20.751C 46.469 22.246 47.703 22.822 49.633 23.339C 51.327 23.797 53.27 24.277 53.116 26.122C 53.017 27.31 52.04 28.346 49.683 28.346C 47.777 28.346 46.7 27.53 46.365 26.424M 64.297 26.254C 63.925 27.649 62.357 28.339 60.888 28.339C 58.751 28.339 56.985 27.028 56.985 23.456C 56.985 19.884 58.854 18.573 60.992 18.573C 62.499 18.573 64.149 19.41 64.382 20.915M 68.453 14.086L 68.453 28.128M 75.317 28.128L 75.317 22.074C 75.317 21.362 75.413 18.791 73.02 18.587C 71.266 18.439 69.581 19.547 68.794 20.928M 86.682 27.218C 85.709 28.155 84.684 28.339 83.499 28.339C 81.43 28.339 79.566 27.028 79.566 23.456C 79.566 19.884 81.376 18.573 83.445 18.573C 85.513 18.573 87.117 19.63 87.117 23.201L 79.897 23.201M 91.343 14.971L 91.367 14.971M 91.327 18.804L 91.327 28.145M 103.255 28.124L 103.255 14.123M 102.895 26.773C 102.033 27.871 100.935 28.34 99.625 28.34C 97.444 28.34 95.792 27.029 95.792 23.458C 95.792 19.886 97.549 18.575 99.731 18.575C 101 18.575 102.21 19.114 102.895 20.175M 114.912 28.115L 114.911 18.767M 108.077 18.767L 108.077 24.821C 108.077 25.533 107.982 28.096 110.364 28.308C 112.455 28.493 113.728 27.653 114.43 26.47M 119.714 18.78L 119.714 28.128M 126.548 28.128L 126.548 22.074C 126.548 21.362 126.644 18.79 124.261 18.587C 122.503 18.437 120.814 19.562 120.038 20.956M 138.334 18.652L 138.334 28.654C 138.334 33.351 133.041 33.001 131.606 31.47M 138 26.573C 137.32 27.661 136.096 28.214 134.81 28.214C 132.629 28.214 130.872 26.903 130.872 23.331C 130.872 19.76 132.523 18.449 134.705 18.449C 135.973 18.449 137.278 19.129 138 20.502M 149.253 20.381C 148.957 19.404 147.803 18.584 146.193 18.584C 144.305 18.584 143.085 19.447 142.994 20.751C 142.889 22.246 144.123 22.822 146.053 23.339C 147.747 23.797 149.69 24.277 149.536 26.122C 149.437 27.31 148.46 28.346 146.103 28.346C 144.197 28.346 143.12 27.53 142.785 26.424M 158.019 13.926C 157.851 13.908 157.57 13.907 157.442 13.907C 155.863 13.907 154.865 15.035 154.865 16.425L 154.865 28.129M 157.29 18.664L 155.201 18.664M 153.013 18.664L 154.539 18.664M 161.163 14.971L 161.187 14.971M 161.147 18.804L 161.147 28.145M 166.074 18.78L 166.074 28.128M 172.908 28.128L 172.908 22.074C 172.908 21.362 173.004 18.79 170.621 18.587C 168.863 18.437 167.174 19.562 166.398 20.956M 184.685 28.124L 184.685 14.123M 184.325 26.773C 183.463 27.871 182.365 28.34 181.055 28.34C 178.874 28.34 177.222 27.029 177.222 23.458C 177.222 19.886 178.979 18.575 181.161 18.575C 182.43 18.575 183.64 19.114 184.325 20.175M 196.342 28.115L 196.341 18.767M 189.507 18.767L 189.507 24.821C 189.507 25.533 189.412 28.096 191.794 28.308C 193.885 28.493 195.158 27.653 195.86 26.47M 201.144 18.78L 201.144 28.128M 207.978 28.128L 207.978 22.074C 207.978 21.362 208.074 18.79 205.691 18.587C 203.933 18.437 202.244 19.562 201.468 20.956M 219.764 18.652L 219.764 28.654C 219.764 33.351 214.471 33.001 213.036 31.47M 219.43 26.573C 218.75 27.661 217.526 28.214 216.24 28.214C 214.059 28.214 212.302 26.903 212.302 23.331C 212.302 19.76 213.953 18.449 216.135 18.449C 217.403 18.449 218.708 19.129 219.43 20.502"></path></g></g></g><g id="g-root-tx_erfahrun_1i30k1q79pu7-stroke" data-item-order="0" data-item-id="tx_erfahrun_1i30k1q79pu7" data-item-class="Label Stroke" data-item-index="none" data-renderer-id="0" transform="translate(163, 465)"><g id="tx_erfahrun_1i30k1q79pu7-stroke" fill="none" stroke-linecap="square" stroke-linejoin="miter" stroke-miterlimit="4" stroke="#CCCCCC" stroke-width="2"><g xmlns="http://www.w3.org/2000/svg"><path d="M 22.332 28.137L 14.769 28.142L 14.769 14.95C 15.717 14.95 20.891 14.95 22.291 14.95M 21.279 21.297L 15.233 21.297M 29.98 18.609C 28.599 18.419 27.351 19.319 26.709 20.619M 26.354 18.773L 26.354 28.123M 37.599 13.926C 37.431 13.908 37.15 13.907 37.022 13.907C 35.443 13.907 34.445 15.035 34.445 16.425L 34.445 28.129M 36.87 18.664L 34.781 18.664M 32.593 18.664L 34.119 18.664M 40.683 20.246C 41.047 19.28 42.463 18.567 43.803 18.567C 45.657 18.567 47.159 19.88 47.159 21.499L 47.165 22.957L 47.165 25.571C 47.165 26.614 47.14 27.353 47.441 28.278M 46.785 22.957L 44.057 22.957C 41.554 22.957 40.254 24.343 40.254 25.837C 40.254 27.331 41.492 28.341 43.107 28.341C 45.09 28.341 46.716 26.888 47.116 25.732M 51.983 14.086L 51.983 28.128M 58.847 28.128L 58.847 22.074C 58.847 21.362 58.943 18.791 56.55 18.587C 54.796 18.439 53.111 19.547 52.324 20.928M 67.17 18.609C 65.789 18.419 64.541 19.319 63.899 20.619M 63.544 18.773L 63.544 28.123M 77.482 28.115L 77.481 18.767M 70.647 18.767L 70.647 24.821C 70.647 25.533 70.552 28.096 72.934 28.308C 75.025 28.493 76.298 27.653 77 26.47M 82.284 18.78L 82.284 28.128M 89.118 28.128L 89.118 22.074C 89.118 21.362 89.214 18.79 86.831 18.587C 85.073 18.437 83.384 19.562 82.608 20.956M 100.904 18.652L 100.904 28.654C 100.904 33.351 95.611 33.001 94.176 31.47M 100.57 26.573C 99.89 27.661 98.666 28.214 97.38 28.214C 95.199 28.214 93.442 26.903 93.442 23.331C 93.442 19.76 95.093 18.449 97.275 18.449C 98.543 18.449 99.848 19.129 100.57 20.502M 111.823 20.381C 111.527 19.404 110.373 18.584 108.763 18.584C 106.875 18.584 105.655 19.447 105.564 20.751C 105.459 22.246 106.693 22.822 108.623 23.339C 110.317 23.797 112.26 24.277 112.106 26.122C 112.007 27.31 111.03 28.346 108.673 28.346C 106.767 28.346 105.69 27.53 105.355 26.424M 122.628 18.691L 119.258 28.119L 119.057 28.119L 115.653 18.691M 126.803 14.971L 126.827 14.971M 126.787 18.804L 126.787 28.145M 138.362 27.218C 137.389 28.155 136.364 28.339 135.179 28.339C 133.11 28.339 131.246 27.028 131.246 23.456C 131.246 19.884 133.056 18.573 135.125 18.573C 137.193 18.573 138.797 19.63 138.797 23.201L 131.577 23.201M 142.981 14.125L 142.981 28.126M 152.009 13.926C 151.841 13.908 151.56 13.907 151.432 13.907C 149.853 13.907 148.855 15.035 148.855 16.425L 148.855 28.129M 151.28 18.664L 149.191 18.664M 147.003 18.664L 148.529 18.664M 155.093 20.246C 155.457 19.28 156.873 18.567 158.213 18.567C 160.067 18.567 161.569 19.88 161.569 21.499L 161.575 22.957L 161.575 25.571C 161.575 26.614 161.55 27.353 161.852 28.278M 161.195 22.957L 158.467 22.957C 155.964 22.957 154.664 24.343 154.664 25.837C 154.664 27.331 155.902 28.341 157.518 28.341C 159.5 28.341 161.126 26.888 161.526 25.732M 166.541 14.125L 166.541 28.126M 174.424 28.326C 173.015 28.465 172.157 27.732 172.157 26.387L 172.157 16.081M 174.307 18.642L 172.543 18.642M 170.047 18.642L 171.78 18.642"></path></g></g></g><g id="g-root-tx_nichthie_1qegwxw1q6u8sv-stroke" data-item-order="0" data-item-id="tx_nichthie_1qegwxw1q6u8sv" data-item-class="Label Stroke" data-item-index="none" data-renderer-id="0" transform="translate(151, 6)"><g id="tx_nichthie_1qegwxw1q6u8sv-stroke" fill="none" stroke-linecap="square" stroke-linejoin="miter" stroke-miterlimit="4" stroke="#1AC6FF" stroke-width="2"><g xmlns="http://www.w3.org/2000/svg"><path d="M 17.836 28.116L 17.834 14.98L 18.326 14.979L 26.88 28.117L 27.353 28.117L 27.353 14.979M 32.678 14.971L 32.702 14.971M 32.662 18.804L 32.662 28.145M 44.402 26.254C 44.03 27.649 42.462 28.339 40.993 28.339C 38.856 28.339 37.09 27.028 37.09 23.456C 37.09 19.884 38.959 18.573 41.097 18.573C 42.604 18.573 44.254 19.41 44.487 20.915M 48.558 14.086L 48.558 28.128M 55.422 28.128L 55.422 22.074C 55.422 21.362 55.518 18.791 53.125 18.587C 51.371 18.439 49.686 19.547 48.899 20.928M 63.109 28.326C 61.7 28.465 60.842 27.732 60.842 26.387L 60.842 16.081M 62.992 18.642L 61.228 18.642M 58.732 18.642L 60.465 18.642M 65.901 22.65L 69.156 22.65M 72.818 14.086L 72.818 28.128M 79.682 28.128L 79.682 22.074C 79.682 21.362 79.778 18.791 77.385 18.587C 75.631 18.439 73.946 19.547 73.159 20.928M 84.578 14.971L 84.602 14.971M 84.562 18.804L 84.562 28.145M 96.137 27.218C 95.164 28.155 94.139 28.339 92.954 28.339C 90.885 28.339 89.022 27.028 89.022 23.456C 89.022 19.884 90.831 18.573 92.9 18.573C 94.968 18.573 96.572 19.63 96.572 23.201L 89.352 23.201M 104.225 18.609C 102.844 18.419 101.596 19.319 100.954 20.619M 100.599 18.773L 100.599 28.123M 107.848 20.246C 108.212 19.28 109.628 18.567 110.968 18.567C 112.822 18.567 114.324 19.88 114.324 21.499L 114.33 22.957L 114.33 25.571C 114.33 26.614 114.305 27.353 114.607 28.278M 113.95 22.957L 111.222 22.957C 108.719 22.957 107.419 24.343 107.419 25.837C 107.419 27.331 108.657 28.341 110.273 28.341C 112.255 28.341 113.881 26.888 114.281 25.732M 122.765 18.609C 121.384 18.419 120.136 19.319 119.494 20.619M 119.139 18.773L 119.139 28.123M 133.082 26.254C 132.71 27.649 131.142 28.339 129.673 28.339C 127.536 28.339 125.77 27.028 125.77 23.456C 125.77 19.884 127.639 18.573 129.777 18.573C 131.284 18.573 132.934 19.41 133.167 20.915M 137.238 14.086L 137.238 28.128M 144.102 28.128L 144.102 22.074C 144.102 21.362 144.198 18.791 141.805 18.587C 140.051 18.439 138.366 19.547 137.579 20.928M 148.998 14.971L 149.022 14.971M 148.982 18.804L 148.982 28.145M 160.068 20.381C 159.772 19.404 158.618 18.584 157.008 18.584C 155.12 18.584 153.9 19.447 153.809 20.751C 153.704 22.246 154.938 22.822 156.868 23.339C 158.562 23.797 160.505 24.277 160.351 26.122C 160.252 27.31 159.275 28.346 156.918 28.346C 155.012 28.346 153.935 27.53 153.6 26.424M 171.532 26.254C 171.16 27.649 169.592 28.339 168.123 28.339C 165.986 28.339 164.22 27.028 164.22 23.456C 164.22 19.884 166.089 18.573 168.227 18.573C 169.734 18.573 171.384 19.41 171.617 20.915M 175.688 14.086L 175.688 28.128M 182.552 28.128L 182.552 22.074C 182.552 21.362 182.648 18.791 180.255 18.587C 178.501 18.439 176.816 19.547 176.029 20.928"></path></g></g></g></g></svg>