<?xml version="1.0" encoding="utf-8" standalone="yes"?>
<!DOCTYPE svg PUBLIC "-//W3C//DTD SVG 1.1//EN" "http://www.w3.org/Graphics/SVG/1.1/DTD/svg11.dtd">
<svg width="686" height="543" viewBox="0 0 686 543" style="fill:none;stroke:none;fill-rule:evenodd;clip-rule:evenodd;stroke-linecap:round;stroke-linejoin:round;stroke-miterlimit:1.5;" version="1.1" xmlns="http://www.w3.org/2000/svg" xmlns:xlink="http://www.w3.org/1999/xlink"><g id="blend" style="mix-blend-mode:multiply"><g id="g-root-5.arrow-5_sy_18hjxdw1s4x1xl-fill" data-item-order="-171767" data-item-id="5.arrow-5_sy_18hjxdw1s4x1xl" data-item-class="ScenePart Indexed Fill Stroke ColorStrokeGray" data-item-index="5" data-renderer-id="0" transform="translate(159.72500610351562, 62.112060546875)"><g id="5.arrow-5_sy_18hjxdw1s4x1xl-fill" stroke="none" fill="#CD6AFB"><g xmlns="http://www.w3.org/2000/svg"><path d="M 107.67 193.918C 108.299 191.201 109.052 188.489 109.931 185.787C 119.812 155.408 143.405 133.321 171.628 124.15L 179.028 146.988L 217.611 71.414L 134.64 10L 142.034 32.819C 85.588 51.16 38.402 95.334 18.639 156.092C 14.143 169.914 11.299 183.877 10 197.767L 69.228 155.469L 107.67 193.918Z"></path></g></g></g><g id="g-root-4.arrow-4_sy_1hd6xms1s4x14w-fill" data-item-order="-171765" data-item-id="4.arrow-4_sy_1hd6xms1s4x14w" data-item-class="ScenePart Indexed Fill Stroke ColorStrokeGray" data-item-index="4" data-renderer-id="0" transform="translate(134.947998046875, 207.5810546875)"><g id="4.arrow-4_sy_1hd6xms1s4x14w-fill" stroke="none" fill="#FD6A65"><g xmlns="http://www.w3.org/2000/svg"><path d="M 150.01 246.348L 128.112 176.98L 176.548 152.32C 147.557 134.937 129.964 103.435 129.974 70.004L 154 70.006L 94.006 10L 10 69.992L 33.948 69.994C 33.926 145.26 78.515 215.637 150.01 246.348Z"></path></g></g></g><g id="g-root-3.arrow-3_sy_1cxdfic1s4x15b-fill" data-item-order="-171763" data-item-id="3.arrow-3_sy_1cxdfic1s4x15b" data-item-class="ScenePart Indexed Fill Stroke ColorStrokeGray" data-item-index="3" data-renderer-id="0" transform="translate(253.06100463867188, 336.06201171875)"><g id="3.arrow-3_sy_1cxdfic1s4x15b-fill" stroke="none" fill="#FFE60A"><g xmlns="http://www.w3.org/2000/svg"><path d="M 179.46 67.632L 170.936 13.945C 146.332 35.326 111.447 43.64 78.193 32.823L 85.616 10L 10 48.499L 41.074 146.938L 48.498 124.115C 123.739 148.59 203.154 124.094 252.25 68.19L 179.46 67.632Z"></path></g></g></g><g id="g-root-2.arrow-2_sy_1lt0fr81s4x0cm-fill" data-item-order="-171761" data-item-id="2.arrow-2_sy_1lt0fr81s4x0cm" data-item-class="ScenePart Indexed Fill Stroke ColorStrokeGray" data-item-index="2" data-renderer-id="0" transform="translate(409.2139892578125, 169.531005859375)"><g id="2.arrow-2_sy_1lt0fr81s4x0cm-fill" stroke="none" fill="#44E095"><g xmlns="http://www.w3.org/2000/svg"><path d="M 23.307 234.163L 10 150.36L 29.443 164.474C 35.2 156.541 39.83 147.583 43.026 137.758C 50.491 114.808 48.844 91.082 40.079 70.494L 93.786 78.991L 116.806 10C 144.023 55.857 152.109 112.758 134.318 167.453C 127.926 187.103 118.666 205.019 107.152 220.887L 126.532 234.955L 23.307 234.163Z"></path></g></g></g><g id="g-root-1.arrow-1_sy_1lt0fr81s4x0cl-fill" data-item-order="-171759" data-item-id="1.arrow-1_sy_1lt0fr81s4x0cl" data-item-class="ScenePart Indexed Indexed_1 Fill Stroke ColorStrokeGray" data-item-index="1" data-renderer-id="0" transform="translate(308.8500061035156, 72.887939453125)"><g id="1.arrow-1_sy_1lt0fr81s4x0cl-fill" stroke="none" fill="#4F92FF"><g xmlns="http://www.w3.org/2000/svg"><path d="M 10 17.347C 42.554 10 77.448 11.05 111.487 22.122C 151.566 35.159 184.428 60.127 207.42 91.815L 226.822 77.713L 194.15 175.634L 110.339 162.375L 129.758 148.26C 118.263 132.417 101.832 119.932 81.792 113.414C 69.137 109.297 56.245 107.952 43.774 109.043L 68.486 60.638L 10 17.347Z"></path></g></g></g><g id="g-root-tx_zyklusvo_4lubo1s4x153-fill" data-item-order="0" data-item-id="tx_zyklusvo_4lubo1s4x153" data-item-class="Label Stroke SceneTarget SceneTitle ColorFillGray ColorStrokeGray" data-item-index="none" data-renderer-id="0" transform="translate(51, -8.5)"></g><g id="g-root-tx_auskonse_18hjxdw1s4x1xm-fill" data-item-order="0" data-item-id="tx_auskonse_18hjxdw1s4x1xm" data-item-class="Label Stroke SceneTarget Indexed ColorStrokeGray" data-item-index="5" data-renderer-id="0" transform="translate(51, 51.5)"></g><g id="g-root-tx_verpflic_dg2cp01s4wzk6-fill" data-item-order="0" data-item-id="tx_verpflic_dg2cp01s4wzk6" data-item-class="Label Stroke SceneTarget Indexed Indexed_1 ColorStrokeGray" data-item-index="1" data-renderer-id="0" transform="translate(507, 75.5)"></g><g id="g-root-worl_4hxg3o1s52nlw-fill" data-item-order="0" data-item-id="worl_4hxg3o1s52nlw" data-item-class="Icon Stroke SceneTarget Indexed InsideFill InsideColorFill ColorStrokeGray" data-item-index="5" data-renderer-id="0" transform="translate(243, 123.5)"></g><g id="g-root-chec_v63f0k1s52mm8-fill" data-item-order="0" data-item-id="chec_v63f0k1s52mm8" data-item-class="Icon Stroke SceneTarget Indexed Indexed_1 InsideFill InsideColorFill ColorStrokeGray" data-item-index="1" data-renderer-id="0" transform="translate(411, 123.5)"></g><g id="g-root-tx_verantwo_v6pw3o1s4x0cr-fill" data-item-order="0" data-item-id="tx_verantwo_v6pw3o1s4x0cr" data-item-class="Label Stroke SceneTarget Indexed ColorStrokeGray" data-item-index="4" data-renderer-id="0" transform="translate(-9, 291.5)"></g><g id="g-root-2_1q87gsk1s52ltx-fill" data-item-order="0" data-item-id="2_1q87gsk1s52ltx" data-item-class="Icon Stroke SceneTarget Indexed InsideFill InsideColorFill ColorStrokeGray" data-item-index="4" data-renderer-id="0" transform="translate(189, 279.5)"></g><g id="g-root-hamm_1413y6c1s52o7j-fill" data-item-order="0" data-item-id="hamm_1413y6c1s52o7j" data-item-class="Icon Stroke SceneTarget Indexed InsideFill InsideColorFill ColorStrokeGray" data-item-index="2" data-renderer-id="0" transform="translate(465, 279.5)"></g><g id="g-root-tx_arbeitau_hv9dqc1s4x1xp-fill" data-item-order="0" data-item-id="tx_arbeitau_hv9dqc1s4x1xp" data-item-class="Label Stroke SceneTarget Indexed ColorStrokeGray" data-item-index="2" data-renderer-id="0" transform="translate(567, 291.5)"></g><g id="g-root-door_1cwqyf81s52neu-fill" data-item-order="0" data-item-id="door_1cwqyf81s52neu" data-item-class="Icon Stroke SceneTarget Indexed InsideFill InsideColorFill ColorStrokeGray" data-item-index="3" data-renderer-id="0" transform="translate(327, 387.5)"></g><g id="g-root-tx_ergebnis_qqwdz81s4x150-fill" data-item-order="0" data-item-id="tx_ergebnis_qqwdz81s4x150" data-item-class="Label Stroke SceneTarget Indexed ColorStrokeGray" data-item-index="3" data-renderer-id="0" transform="translate(297, 483.5)"></g><g id="g-root-5.arrow-5_sy_18hjxdw1s4x1xl-stroke" data-item-order="-171767" data-item-id="5.arrow-5_sy_18hjxdw1s4x1xl" data-item-class="ScenePart Indexed Fill Stroke ColorStrokeGray" data-item-index="5" data-renderer-id="0" transform="translate(159.72500610351562, 62.112060546875)"><g id="5.arrow-5_sy_18hjxdw1s4x1xl-stroke" fill="none" stroke-linecap="round" stroke-linejoin="round" stroke-miterlimit="1.5" stroke="#2C2C2C" stroke-width="2"><g xmlns="http://www.w3.org/2000/svg"><path d="M 107.67 193.918C 108.299 191.201 109.052 188.489 109.931 185.787C 119.812 155.408 143.405 133.321 171.628 124.15L 179.028 146.988L 217.611 71.414L 134.64 10L 142.034 32.819C 85.588 51.16 38.402 95.334 18.639 156.092C 14.143 169.914 11.299 183.877 10 197.767L 69.228 155.469L 107.67 193.918Z"></path></g></g></g><g id="g-root-4.arrow-4_sy_1hd6xms1s4x14w-stroke" data-item-order="-171765" data-item-id="4.arrow-4_sy_1hd6xms1s4x14w" data-item-class="ScenePart Indexed Fill Stroke ColorStrokeGray" data-item-index="4" data-renderer-id="0" transform="translate(134.947998046875, 207.5810546875)"><g id="4.arrow-4_sy_1hd6xms1s4x14w-stroke" fill="none" stroke-linecap="round" stroke-linejoin="round" stroke-miterlimit="1.5" stroke="#2C2C2C" stroke-width="2"><g xmlns="http://www.w3.org/2000/svg"><path d="M 150.01 246.348L 128.112 176.98L 176.548 152.32C 147.557 134.937 129.964 103.435 129.974 70.004L 154 70.006L 94.006 10L 10 69.992L 33.948 69.994C 33.926 145.26 78.515 215.637 150.01 246.348Z"></path></g></g></g><g id="g-root-3.arrow-3_sy_1cxdfic1s4x15b-stroke" data-item-order="-171763" data-item-id="3.arrow-3_sy_1cxdfic1s4x15b" data-item-class="ScenePart Indexed Fill Stroke ColorStrokeGray" data-item-index="3" data-renderer-id="0" transform="translate(253.06100463867188, 336.06201171875)"><g id="3.arrow-3_sy_1cxdfic1s4x15b-stroke" fill="none" stroke-linecap="round" stroke-linejoin="round" stroke-miterlimit="1.5" stroke="#2C2C2C" stroke-width="2"><g xmlns="http://www.w3.org/2000/svg"><path d="M 179.46 67.632L 170.936 13.945C 146.332 35.326 111.447 43.64 78.193 32.823L 85.616 10L 10 48.499L 41.074 146.938L 48.498 124.115C 123.739 148.59 203.154 124.094 252.25 68.19L 179.46 67.632Z"></path></g></g></g><g id="g-root-2.arrow-2_sy_1lt0fr81s4x0cm-stroke" data-item-order="-171761" data-item-id="2.arrow-2_sy_1lt0fr81s4x0cm" data-item-class="ScenePart Indexed Fill Stroke ColorStrokeGray" data-item-index="2" data-renderer-id="0" transform="translate(409.2139892578125, 169.531005859375)"><g id="2.arrow-2_sy_1lt0fr81s4x0cm-stroke" fill="none" stroke-linecap="round" stroke-linejoin="round" stroke-miterlimit="1.5" stroke="#2C2C2C" stroke-width="2"><g xmlns="http://www.w3.org/2000/svg"><path d="M 23.307 234.163L 10 150.36L 29.443 164.474C 35.2 156.541 39.83 147.583 43.026 137.758C 50.491 114.808 48.844 91.082 40.079 70.494L 93.786 78.991L 116.806 10C 144.023 55.857 152.109 112.758 134.318 167.453C 127.926 187.103 118.666 205.019 107.152 220.887L 126.532 234.955L 23.307 234.163Z"></path></g></g></g><g id="g-root-1.arrow-1_sy_1lt0fr81s4x0cl-stroke" data-item-order="-171759" data-item-id="1.arrow-1_sy_1lt0fr81s4x0cl" data-item-class="ScenePart Indexed Indexed_1 Fill Stroke ColorStrokeGray" data-item-index="1" data-renderer-id="0" transform="translate(308.8500061035156, 72.887939453125)"><g id="1.arrow-1_sy_1lt0fr81s4x0cl-stroke" fill="none" stroke-linecap="round" stroke-linejoin="round" stroke-miterlimit="1.5" stroke="#2C2C2C" stroke-width="2"><g xmlns="http://www.w3.org/2000/svg"><path d="M 10 17.347C 42.554 10 77.448 11.05 111.487 22.122C 151.566 35.159 184.428 60.127 207.42 91.815L 226.822 77.713L 194.15 175.634L 110.339 162.375L 129.758 148.26C 118.263 132.417 101.832 119.932 81.792 113.414C 69.137 109.297 56.245 107.952 43.774 109.043L 68.486 60.638L 10 17.347Z"></path></g></g></g><g id="g-root-tx_zyklusvo_4lubo1s4x153-stroke" data-item-order="0" data-item-id="tx_zyklusvo_4lubo1s4x153" data-item-class="Label Stroke SceneTarget SceneTitle ColorFillGray ColorStrokeGray" data-item-index="none" data-renderer-id="0" transform="translate(51, -8.5)"><g id="tx_zyklusvo_4lubo1s4x153-stroke" fill="none" stroke-linecap="square" stroke-linejoin="miter" stroke-miterlimit="4" stroke="#c0c0c0" stroke-width="3"><g xmlns="http://www.w3.org/2000/svg"><path d="M 13.914 14.944L 22.629 14.944L 22.629 15.238L 13.914 27.863L 13.914 28.124L 23.216 28.124M 26.474 32.437C 28.028 32.683 28.95 31.233 29.307 30.286L 33.158 18.691M 26.298 18.691L 29.639 28.1M 37.081 14.125L 37.081 28.126M 43.003 18.61L 37.467 24.462M 43.664 28.284L 39.547 22.785M 47.881 14.125L 47.881 28.126M 59.602 28.115L 59.601 18.767M 52.767 18.767L 52.767 24.821C 52.767 25.533 52.672 28.096 55.055 28.308C 57.145 28.493 58.418 27.653 59.121 26.47M 70.563 20.381C 70.267 19.404 69.113 18.584 67.503 18.584C 65.615 18.584 64.395 19.447 64.304 20.751C 64.199 22.246 65.433 22.822 67.363 23.339C 69.057 23.797 71 24.277 70.846 26.122C 70.747 27.31 69.77 28.346 67.413 28.346C 65.507 28.346 64.43 27.53 64.095 26.424M 87.368 18.691L 83.998 28.119L 83.797 28.119L 80.393 18.691M 99.162 23.457C 99.162 26.522 97.291 28.34 94.983 28.34C 92.675 28.34 90.804 26.522 90.804 23.457C 90.804 20.392 92.675 18.573 94.983 18.573C 97.291 18.573 99.162 20.392 99.162 23.457ZM 103.354 18.78L 103.354 28.128M 110.189 28.128L 110.189 22.074C 110.189 21.362 110.284 18.79 107.901 18.587C 106.143 18.437 104.454 19.562 103.678 20.956M 120.209 28.145L 125.157 14.973L 125.745 14.973L 130.709 28.145M 122.026 24.294L 128.885 24.294M 141.492 28.115L 141.491 18.767M 134.657 18.767L 134.657 24.821C 134.657 25.533 134.562 28.096 136.944 28.308C 139.035 28.493 140.308 27.653 141.011 26.47M 150.409 13.926C 150.241 13.908 149.96 13.907 149.833 13.907C 148.253 13.907 147.255 15.035 147.255 16.425L 147.255 28.129M 149.68 18.664L 147.591 18.664M 145.403 18.664L 146.929 18.664M 160.384 18.652L 160.384 28.654C 160.384 33.351 155.091 33.001 153.656 31.47M 160.051 26.573C 159.37 27.661 158.146 28.214 156.86 28.214C 154.679 28.214 152.922 26.903 152.922 23.331C 152.922 19.76 154.573 18.449 156.755 18.449C 158.023 18.449 159.328 19.129 160.051 20.502M 165.263 20.246C 165.627 19.28 167.043 18.567 168.383 18.567C 170.237 18.567 171.739 19.88 171.739 21.499L 171.745 22.957L 171.745 25.571C 171.745 26.614 171.72 27.353 172.022 28.278M 171.365 22.957L 168.637 22.957C 166.134 22.957 164.834 24.343 164.834 25.837C 164.834 27.331 166.072 28.341 167.688 28.341C 169.67 28.341 171.296 26.888 171.696 25.732M 176.6 28.124L 176.6 14.123M 176.984 20.138C 177.673 19.102 178.869 18.575 180.124 18.575C 182.305 18.575 184.062 19.886 184.062 23.458C 184.062 27.029 182.411 28.34 180.229 28.34C 178.932 28.34 177.842 27.879 176.984 26.803M 195.043 27.218C 194.069 28.155 193.044 28.339 191.859 28.339C 189.79 28.339 187.927 27.028 187.927 23.456C 187.927 19.884 189.736 18.573 191.805 18.573C 193.874 18.573 195.477 19.63 195.477 23.201L 188.257 23.201M 199.524 18.78L 199.524 28.128M 206.359 28.128L 206.359 22.074C 206.359 21.362 206.454 18.79 204.071 18.587C 202.313 18.437 200.624 19.562 199.848 20.956M 223.942 28.115L 223.941 18.767M 217.107 18.767L 217.107 24.821C 217.107 25.533 217.012 28.096 219.395 28.308C 221.485 28.493 222.758 27.653 223.461 26.47M 228.744 18.78L 228.744 28.128M 235.579 28.128L 235.579 22.074C 235.579 21.362 235.674 18.79 233.291 18.587C 231.533 18.437 229.844 19.562 229.068 20.956M 247.355 28.124L 247.355 14.123M 246.995 26.773C 246.133 27.871 245.035 28.34 243.725 28.34C 241.544 28.34 239.893 27.029 239.893 23.458C 239.893 19.886 241.65 18.575 243.831 18.575C 245.1 18.575 246.31 19.114 246.995 20.175M 267.527 14.93L 262.79 28.103L 262.228 28.103L 257.505 14.93M 278.223 27.218C 277.249 28.155 276.224 28.339 275.039 28.339C 272.97 28.339 271.107 27.028 271.107 23.456C 271.107 19.884 272.916 18.573 274.985 18.573C 277.054 18.573 278.657 19.63 278.657 23.201L 271.437 23.201M 286.31 18.609C 284.929 18.419 283.681 19.319 283.039 20.619M 282.684 18.773L 282.684 28.123M 289.933 20.246C 290.297 19.28 291.713 18.567 293.053 18.567C 294.907 18.567 296.409 19.88 296.409 21.499L 296.415 22.957L 296.415 25.571C 296.415 26.614 296.39 27.353 296.692 28.278M 296.035 22.957L 293.307 22.957C 290.804 22.957 289.504 24.343 289.504 25.837C 289.504 27.331 290.742 28.341 292.358 28.341C 294.34 28.341 295.966 26.888 296.366 25.732M 301.244 18.78L 301.244 28.128M 308.079 28.128L 308.079 22.074C 308.079 21.362 308.174 18.79 305.791 18.587C 304.033 18.437 302.344 19.562 301.568 20.956M 315.824 28.326C 314.415 28.465 313.557 27.732 313.557 26.387L 313.557 16.081M 315.707 18.642L 313.943 18.642M 311.447 18.642L 313.181 18.642M 318.933 18.69L 321.648 28.119L 322.027 28.119L 324.968 18.782L 325.403 18.782L 328.409 28.119L 328.759 28.119L 331.476 18.69M 343.292 23.457C 343.292 26.522 341.421 28.34 339.113 28.34C 336.805 28.34 334.934 26.522 334.934 23.457C 334.934 20.392 336.805 18.573 339.113 18.573C 341.421 18.573 343.292 20.392 343.292 23.457ZM 351.09 18.609C 349.709 18.419 348.461 19.319 347.819 20.619M 347.464 18.773L 347.464 28.123M 357.564 28.326C 356.155 28.465 355.297 27.732 355.297 26.387L 355.297 16.081M 357.447 18.642L 355.683 18.642M 353.187 18.642L 354.921 18.642M 361.611 14.125L 361.611 28.126M 366.703 14.971L 366.727 14.971M 366.687 18.804L 366.687 28.145M 378.427 26.254C 378.055 27.649 376.487 28.339 375.018 28.339C 372.881 28.339 371.115 27.028 371.115 23.456C 371.115 19.884 372.984 18.573 375.122 18.573C 376.629 18.573 378.279 19.41 378.512 20.915M 382.583 14.086L 382.583 28.128M 389.447 28.128L 389.447 22.074C 389.447 21.362 389.543 18.791 387.15 18.587C 385.396 18.439 383.711 19.547 382.924 20.928M 394.161 14.125L 394.161 28.126M 400.083 18.61L 394.547 24.462M 400.744 28.284L 396.627 22.785M 411.473 27.218C 410.499 28.155 409.474 28.339 408.289 28.339C 406.22 28.339 404.357 27.028 404.357 23.456C 404.357 19.884 406.166 18.573 408.235 18.573C 410.303 18.573 411.907 19.63 411.907 23.201L 404.687 23.201M 416.134 14.971L 416.157 14.971M 416.117 18.804L 416.117 28.145M 424.014 28.326C 422.605 28.465 421.747 27.732 421.747 26.387L 421.747 16.081M 423.897 18.642L 422.133 18.642M 419.637 18.642L 421.371 18.642M 434.573 27.218C 433.599 28.155 432.574 28.339 431.389 28.339C 429.32 28.339 427.457 27.028 427.457 23.456C 427.457 19.884 429.266 18.573 431.335 18.573C 433.404 18.573 435.007 19.63 435.007 23.201L 427.787 23.201M 439.054 18.78L 439.054 28.128M 445.889 28.128L 445.889 22.074C 445.889 21.362 445.984 18.79 443.601 18.587C 441.843 18.437 440.154 19.562 439.378 20.956M 456.844 14.971L 456.867 14.971M 456.827 18.804L 456.827 28.145M 461.754 18.78L 461.754 28.128M 468.589 28.128L 468.589 22.074C 468.589 21.362 468.684 18.79 466.301 18.587C 464.543 18.437 462.854 19.562 462.078 20.956M 487.581 17.457C 487.15 15.893 485.53 14.732 483.441 14.732C 480.993 14.732 479.292 15.931 479.292 17.754C 479.292 19.724 480.756 20.685 483.261 21.406C 485.458 22.045 487.695 22.813 487.695 25.288C 487.695 26.951 486.382 28.346 483.325 28.346C 480.853 28.346 479.272 27.106 478.908 25.483M 498.667 26.254C 498.295 27.649 496.727 28.339 495.258 28.339C 493.121 28.339 491.355 27.028 491.355 23.456C 491.355 19.884 493.224 18.573 495.362 18.573C 496.869 18.573 498.519 19.41 498.752 20.915M 506.44 18.609C 505.059 18.419 503.811 19.319 503.169 20.619M 502.814 18.773L 502.814 28.123M 516.752 28.115L 516.751 18.767M 509.917 18.767L 509.917 24.821C 509.917 25.533 509.822 28.096 512.204 28.308C 514.295 28.493 515.568 27.653 516.271 26.47M 521.575 18.814L 521.575 28.162M 528.409 28.162L 528.398 21.47C 528.334 20.526 527.967 19.078 526.093 18.649C 524.153 18.205 522.673 19.248 521.937 20.595M 535.244 28.162L 535.244 22.108C 535.244 21.396 535.359 19.206 532.928 18.649C 530.899 18.184 529.365 19.347 528.664 20.783M 538.906 22.65L 542.161 22.65M 554.628 14.945C 551.365 14.945 548.102 14.95 544.839 14.95M 549.725 28.124L 549.725 15.456M 565.032 27.218C 564.059 28.155 563.034 28.339 561.849 28.339C 559.78 28.339 557.917 27.028 557.917 23.456C 557.917 19.884 559.726 18.573 561.795 18.573C 563.863 18.573 565.467 19.63 565.467 23.201L 558.247 23.201M 569.633 20.246C 569.997 19.28 571.413 18.567 572.753 18.567C 574.607 18.567 576.109 19.88 576.109 21.499L 576.115 22.957L 576.115 25.571C 576.115 26.614 576.09 27.353 576.391 28.278M 575.735 22.957L 573.007 22.957C 570.504 22.957 569.204 24.343 569.204 25.837C 569.204 27.331 570.442 28.341 572.057 28.341C 574.04 28.341 575.666 26.888 576.066 25.732M 580.965 18.814L 580.965 28.162M 587.799 28.162L 587.788 21.47C 587.724 20.526 587.357 19.078 585.483 18.649C 583.543 18.205 582.063 19.248 581.327 20.595M 594.634 28.162L 594.634 22.108C 594.634 21.396 594.749 19.206 592.318 18.649C 590.289 18.184 588.755 19.347 588.054 20.783M 605.573 20.381C 605.277 19.404 604.123 18.584 602.513 18.584C 600.625 18.584 599.405 19.447 599.314 20.751C 599.209 22.246 600.443 22.822 602.373 23.339C 604.067 23.797 606.01 24.277 605.856 26.122C 605.757 27.31 604.78 28.346 602.423 28.346C 600.517 28.346 599.44 27.53 599.105 26.424"></path></g></g></g><g id="g-root-tx_auskonse_18hjxdw1s4x1xm-stroke" data-item-order="0" data-item-id="tx_auskonse_18hjxdw1s4x1xm" data-item-class="Label Stroke SceneTarget Indexed ColorStrokeGray" data-item-index="5" data-renderer-id="0" transform="translate(51, 51.5)"><g id="tx_auskonse_18hjxdw1s4x1xm-stroke" fill="none" stroke-linecap="square" stroke-linejoin="miter" stroke-miterlimit="4" stroke="#c0c0c0" stroke-width="2"><g xmlns="http://www.w3.org/2000/svg"><path d="M 117.484 28.145L 122.432 14.973L 123.02 14.973L 127.984 28.145M 119.301 24.294L 126.16 24.294M 138.767 28.115L 138.766 18.767M 131.932 18.767L 131.932 24.821C 131.932 25.533 131.837 28.096 134.219 28.308C 136.31 28.493 137.583 27.653 138.285 26.47M 149.728 20.381C 149.432 19.404 148.278 18.584 146.668 18.584C 144.78 18.584 143.56 19.447 143.469 20.751C 143.364 22.246 144.598 22.822 146.528 23.339C 148.222 23.797 150.165 24.277 150.011 26.122C 149.912 27.31 148.935 28.346 146.578 28.346C 144.672 28.346 143.595 27.53 143.26 26.424M 16.525 38.945L 16.525 52.122M 24.799 38.675L 16.879 47.44M 25.298 52.331L 19.705 44.92M 37.177 47.457C 37.177 50.522 35.306 52.34 32.998 52.34C 30.69 52.34 28.819 50.522 28.819 47.457C 28.819 44.391 30.69 42.573 32.998 42.573C 35.306 42.573 37.177 44.391 37.177 47.457ZM 41.369 42.78L 41.369 52.128M 48.203 52.128L 48.203 46.074C 48.203 45.362 48.299 42.79 45.916 42.587C 44.158 42.437 42.469 43.562 41.693 44.956M 59.138 44.381C 58.842 43.404 57.688 42.584 56.078 42.584C 54.19 42.584 52.97 43.447 52.879 44.751C 52.774 46.246 54.008 46.822 55.938 47.339C 57.632 47.797 59.575 48.277 59.421 50.122C 59.322 51.311 58.345 52.346 55.988 52.346C 54.082 52.346 53.005 51.53 52.67 50.424M 70.437 51.218C 69.464 52.155 68.439 52.339 67.254 52.339C 65.185 52.339 63.322 51.028 63.322 47.456C 63.322 43.884 65.131 42.573 67.2 42.573C 69.268 42.573 70.872 43.63 70.872 47.201L 63.652 47.201M 81.94 42.774L 81.94 56.393M 81.519 44.057C 80.642 43.008 79.483 42.558 78.201 42.558C 76.02 42.558 74.441 43.904 74.441 47.476C 74.441 51.047 76.126 52.323 78.307 52.323C 79.546 52.323 80.799 51.81 81.519 50.799M 93.697 52.115L 93.696 42.767M 86.862 42.767L 86.862 48.821C 86.862 49.533 86.767 52.096 89.149 52.307C 91.24 52.493 92.513 51.653 93.215 50.47M 105.147 51.218C 104.174 52.155 103.149 52.339 101.964 52.339C 99.895 52.339 98.032 51.028 98.032 47.456C 98.032 43.884 99.841 42.573 101.91 42.573C 103.978 42.573 105.582 43.63 105.582 47.201L 98.362 47.201M 109.629 42.78L 109.629 52.128M 116.463 52.128L 116.463 46.074C 116.463 45.362 116.559 42.79 114.176 42.587C 112.418 42.437 110.729 43.562 109.953 44.956M 120.719 42.78L 127.396 42.78L 127.396 42.936L 120.634 51.904L 120.634 52.128L 127.689 52.128M 138.287 51.218C 137.314 52.155 136.289 52.339 135.104 52.339C 133.035 52.339 131.172 51.028 131.172 47.456C 131.172 43.884 132.981 42.573 135.05 42.573C 137.118 42.573 138.722 43.63 138.722 47.201L 131.502 47.201M 142.769 42.78L 142.769 52.128M 149.603 52.128L 149.603 46.074C 149.603 45.362 149.699 42.79 147.316 42.587C 145.558 42.437 143.869 43.562 143.093 44.956M 96.876 62.125L 96.876 76.126M 108.437 75.218C 107.464 76.155 106.439 76.339 105.254 76.339C 103.185 76.339 101.321 75.028 101.321 71.456C 101.321 67.884 103.131 66.573 105.2 66.573C 107.268 66.573 108.872 67.63 108.872 71.201L 101.652 71.201M 116.525 66.609C 115.144 66.419 113.896 67.319 113.254 68.619M 112.899 66.773L 112.899 76.123M 120.029 66.78L 120.029 76.128M 126.863 76.128L 126.863 70.074C 126.863 69.362 126.959 66.79 124.576 66.587C 122.818 66.437 121.129 67.562 120.353 68.956M 138.287 75.218C 137.314 76.155 136.289 76.339 135.104 76.339C 133.035 76.339 131.171 75.028 131.171 71.456C 131.171 67.884 132.981 66.573 135.05 66.573C 137.118 66.573 138.722 67.63 138.722 71.201L 131.502 71.201M 142.769 66.78L 142.769 76.128M 149.603 76.128L 149.603 70.074C 149.603 69.362 149.699 66.79 147.316 66.587C 145.558 66.437 143.869 67.562 143.093 68.956"></path></g></g></g><g id="g-root-tx_verpflic_dg2cp01s4wzk6-stroke" data-item-order="0" data-item-id="tx_verpflic_dg2cp01s4wzk6" data-item-class="Label Stroke SceneTarget Indexed Indexed_1 ColorStrokeGray" data-item-index="1" data-renderer-id="0" transform="translate(507, 75.5)"><g id="tx_verpflic_dg2cp01s4wzk6-stroke" fill="none" stroke-linecap="square" stroke-linejoin="miter" stroke-miterlimit="4" stroke="#c0c0c0" stroke-width="2"><g xmlns="http://www.w3.org/2000/svg"><path d="M 23.702 14.93L 18.964 28.103L 18.403 28.103L 13.68 14.93M 34.397 27.218C 33.424 28.155 32.399 28.339 31.214 28.339C 29.145 28.339 27.281 27.028 27.281 23.456C 27.281 19.884 29.091 18.573 31.16 18.573C 33.228 18.573 34.832 19.63 34.832 23.201L 27.612 23.201M 42.485 18.609C 41.104 18.419 39.856 19.319 39.214 20.619M 38.859 18.773L 38.859 28.123M 45.983 18.774L 45.983 32.393M 46.349 20.124C 47.232 19.027 48.413 18.558 49.722 18.558C 51.903 18.558 53.482 19.904 53.482 23.476C 53.482 27.047 51.798 28.323 49.616 28.323C 48.345 28.323 47.059 27.783 46.349 26.719M 61.874 13.926C 61.706 13.908 61.425 13.907 61.297 13.907C 59.718 13.907 58.72 15.035 58.72 16.425L 58.72 28.129M 61.145 18.664L 59.056 18.664M 56.868 18.664L 58.394 18.664M 64.976 14.125L 64.976 28.126M 70.068 14.971L 70.092 14.971M 70.052 18.804L 70.052 28.145M 81.792 26.254C 81.42 27.649 79.852 28.339 78.383 28.339C 76.246 28.339 74.48 27.028 74.48 23.456C 74.48 19.884 76.349 18.573 78.487 18.573C 79.994 18.573 81.644 19.41 81.877 20.915M 85.948 14.086L 85.948 28.128M 92.812 28.128L 92.812 22.074C 92.812 21.362 92.908 18.791 90.515 18.587C 88.761 18.439 87.076 19.547 86.289 20.928M 100.499 28.326C 99.09 28.465 98.232 27.732 98.232 26.387L 98.232 16.081M 100.382 18.642L 98.618 18.642M 96.122 18.642L 97.855 18.642M 111.217 28.115L 111.216 18.767M 104.382 18.767L 104.382 24.821C 104.382 25.533 104.287 28.096 106.669 28.308C 108.76 28.493 110.033 27.653 110.735 26.47M 116.019 18.78L 116.019 28.128M 122.853 28.128L 122.853 22.074C 122.853 21.362 122.949 18.79 120.566 18.587C 118.808 18.437 117.119 19.562 116.343 20.956M 134.639 18.652L 134.639 28.654C 134.639 33.351 129.346 33.001 127.911 31.47M 134.305 26.573C 133.625 27.661 132.401 28.214 131.115 28.214C 128.934 28.214 127.177 26.903 127.177 23.331C 127.177 19.76 128.828 18.449 131.01 18.449C 132.278 18.449 133.583 19.129 134.305 20.502M 13.859 42.78L 20.536 42.78L 20.536 42.936L 13.774 51.904L 13.774 52.128L 20.829 52.128M 31.587 52.115L 31.586 42.767M 24.752 42.767L 24.752 48.821C 24.752 49.533 24.657 52.096 27.039 52.307C 29.13 52.493 30.403 51.653 31.105 50.47M 39.995 42.609C 38.614 42.419 37.366 43.319 36.724 44.619M 36.369 42.773L 36.369 52.123M 48.744 52.145L 53.692 38.973L 54.28 38.973L 59.244 52.145M 50.561 48.294L 57.42 48.294M 70.027 52.115L 70.026 42.767M 63.192 42.767L 63.192 48.821C 63.192 49.533 63.097 52.096 65.479 52.307C 67.57 52.493 68.843 51.653 69.545 50.47M 78.944 37.926C 78.776 37.908 78.495 37.907 78.367 37.907C 76.788 37.907 75.79 39.035 75.79 40.425L 75.79 52.129M 78.215 42.664L 76.126 42.664M 73.938 42.664L 75.464 42.664M 88.919 42.652L 88.919 52.654C 88.919 57.351 83.626 57.001 82.191 55.47M 88.585 50.573C 87.905 51.661 86.681 52.214 85.395 52.214C 83.214 52.214 81.457 50.903 81.457 47.331C 81.457 43.76 83.108 42.449 85.29 42.449C 86.558 42.449 87.863 43.129 88.585 44.502M 93.798 44.246C 94.162 43.28 95.578 42.567 96.918 42.567C 98.772 42.567 100.274 43.88 100.274 45.499L 100.28 46.957L 100.28 49.571C 100.28 50.614 100.255 51.353 100.557 52.278M 99.9 46.957L 97.172 46.957C 94.669 46.957 93.369 48.343 93.369 49.837C 93.369 51.332 94.607 52.341 96.223 52.341C 98.205 52.341 99.831 50.888 100.231 49.732M 105.135 52.124L 105.135 38.123M 105.518 44.138C 106.208 43.102 107.404 42.575 108.659 42.575C 110.84 42.575 112.597 43.886 112.597 47.458C 112.597 51.029 110.945 52.34 108.764 52.34C 107.467 52.34 106.377 51.88 105.518 50.803M 123.577 51.218C 122.604 52.155 121.579 52.339 120.394 52.339C 118.325 52.339 116.462 51.028 116.462 47.456C 116.462 43.884 118.271 42.573 120.34 42.573C 122.408 42.573 124.012 43.63 124.012 47.201L 116.792 47.201"></path></g></g></g><g id="g-root-worl_4hxg3o1s52nlw-stroke" data-item-order="0" data-item-id="worl_4hxg3o1s52nlw" data-item-class="Icon Stroke SceneTarget Indexed InsideFill InsideColorFill ColorStrokeGray" data-item-index="5" data-renderer-id="0" transform="translate(243, 123.5)"><g id="worl_4hxg3o1s52nlw-stroke" fill="none" stroke-linecap="round" stroke-linejoin="round" stroke-miterlimit="1.5" stroke="#2C2C2C" stroke-width="2"><g xmlns="http://www.w3.org/2000/svg"><path d="M 34 38C 34 35.09 39.928 31.238 50.968 31.012C 51.529 31.003 51.991 31.451 52 32.012L 52 49.012C 52 49.564 51.552 50.012 51 50.012C 39.934 50.232 34 54.088 34 57.012C 34 54.098 28.058 50.242 17 50.012C 16.448 50.012 16 49.564 16 49.012L 16 32.012C 16.009 31.451 16.471 31.003 17.032 31.012C 28.07 31.24 34 35.092 34 38ZM 34 38.002L 34 56.752M 30 39.484C 27.103 38.449 24.097 37.75 21.04 37.4M 30 45.484C 27.076 44.441 24.042 43.738 20.958 43.388M 38 39.484C 40.925 38.44 43.96 37.737 47.046 37.388M 38 45.484C 40.925 44.44 43.961 43.737 47.048 43.388M 19.132 28C 18.359 22.215 21.012 16.507 25.933 13.369C 30.853 10.23 37.147 10.23 42.067 13.369C 46.988 16.507 49.641 22.215 48.868 28M 29.248 28L 28.378 24.518C 28.156 23.627 27.356 23.002 26.438 23.002L 19.302 23.002M 45.98 17L 40.562 17C 39.644 17 38.844 17.625 38.622 18.516L 37.622 22.516C 37.473 23.113 37.607 23.746 37.986 24.231C 38.365 24.716 38.946 25 39.562 25L 41.666 25L 42.156 27.938"></path></g></g></g><g id="g-root-chec_v63f0k1s52mm8-stroke" data-item-order="0" data-item-id="chec_v63f0k1s52mm8" data-item-class="Icon Stroke SceneTarget Indexed Indexed_1 InsideFill InsideColorFill ColorStrokeGray" data-item-index="1" data-renderer-id="0" transform="translate(411, 123.5)"><g id="chec_v63f0k1s52mm8-stroke" fill="none" stroke-linecap="round" stroke-linejoin="round" stroke-miterlimit="1.5" stroke="#2C2C2C" stroke-width="2"><g xmlns="http://www.w3.org/2000/svg"><path d="M 42.571 15.143L 47.714 15.143C 49.608 15.143 51.143 16.678 51.143 18.571L 51.143 52.857C 51.143 54.751 49.608 56.286 47.714 56.286L 20.286 56.286C 18.392 56.286 16.857 54.751 16.857 52.857L 16.857 18.571C 16.857 16.678 18.392 15.143 20.286 15.143L 25.429 15.143M 28.857 11.714L 39.143 11.714C 39.143 11.714 42.571 11.714 42.571 15.143L 42.571 16.857C 42.571 16.857 42.571 20.286 39.143 20.286L 28.857 20.286C 28.857 20.286 25.429 20.286 25.429 16.857L 25.429 15.143C 25.429 15.143 25.429 11.714 28.857 11.714M 25.429 39.143L 32.286 44.286L 40.857 30.571"></path></g></g></g><g id="g-root-tx_verantwo_v6pw3o1s4x0cr-stroke" data-item-order="0" data-item-id="tx_verantwo_v6pw3o1s4x0cr" data-item-class="Label Stroke SceneTarget Indexed ColorStrokeGray" data-item-index="4" data-renderer-id="0" transform="translate(-9, 291.5)"><g id="tx_verantwo_v6pw3o1s4x0cr-stroke" fill="none" stroke-linecap="square" stroke-linejoin="miter" stroke-miterlimit="4" stroke="#c0c0c0" stroke-width="2"><g xmlns="http://www.w3.org/2000/svg"><path d="M 25.442 14.93L 20.704 28.103L 20.143 28.103L 15.42 14.93M 36.137 27.218C 35.164 28.155 34.139 28.339 32.954 28.339C 30.885 28.339 29.022 27.028 29.022 23.456C 29.022 19.884 30.831 18.573 32.9 18.573C 34.968 18.573 36.572 19.63 36.572 23.201L 29.352 23.201M 44.225 18.609C 42.844 18.419 41.596 19.319 40.954 20.619M 40.599 18.773L 40.599 28.123M 47.848 20.246C 48.212 19.28 49.628 18.567 50.968 18.567C 52.822 18.567 54.324 19.88 54.324 21.499L 54.33 22.957L 54.33 25.571C 54.33 26.614 54.305 27.353 54.607 28.278M 53.95 22.957L 51.222 22.957C 48.719 22.957 47.419 24.343 47.419 25.837C 47.419 27.331 48.657 28.341 50.273 28.341C 52.255 28.341 53.881 26.888 54.281 25.732M 59.159 18.78L 59.159 28.128M 65.993 28.128L 65.993 22.074C 65.993 21.362 66.089 18.79 63.706 18.587C 61.948 18.437 60.259 19.562 59.483 20.956M 73.739 28.326C 72.33 28.465 71.472 27.732 71.472 26.387L 71.472 16.081M 73.622 18.642L 71.858 18.642M 69.362 18.642L 71.095 18.642M 76.848 18.69L 79.563 28.119L 79.941 28.119L 82.883 18.782L 83.318 18.782L 86.324 28.119L 86.674 28.119L 89.391 18.69M 101.207 23.457C 101.207 26.522 99.336 28.34 97.028 28.34C 94.72 28.34 92.849 26.522 92.849 23.457C 92.849 20.392 94.72 18.573 97.028 18.573C 99.336 18.573 101.207 20.392 101.207 23.457ZM 109.005 18.609C 107.624 18.419 106.376 19.319 105.734 20.619M 105.379 18.773L 105.379 28.123M 115.479 28.326C 114.07 28.465 113.212 27.732 113.212 26.387L 113.212 16.081M 115.362 18.642L 113.598 18.642M 111.102 18.642L 112.835 18.642M 126.197 28.115L 126.196 18.767M 119.362 18.767L 119.362 24.821C 119.362 25.533 119.267 28.096 121.649 28.308C 123.74 28.493 125.013 27.653 125.715 26.47M 130.999 18.78L 130.999 28.128M 137.833 28.128L 137.833 22.074C 137.833 21.362 137.929 18.79 135.546 18.587C 133.788 18.437 132.099 19.562 131.323 20.956M 149.619 18.652L 149.619 28.654C 149.619 33.351 144.326 33.001 142.891 31.47M 149.285 26.573C 148.605 27.661 147.381 28.214 146.095 28.214C 143.914 28.214 142.157 26.903 142.157 23.331C 142.157 19.76 143.808 18.449 145.99 18.449C 147.258 18.449 148.563 19.129 149.285 20.502M 38.463 38.932L 38.487 38.932M 42.895 38.932L 42.919 38.932M 37.182 42.767L 37.182 48.821C 37.182 49.533 37.087 52.096 39.469 52.307C 41.56 52.493 42.833 51.653 43.535 50.47M 44.017 52.115L 44.016 42.767M 48.825 52.124L 48.825 38.123M 49.208 44.138C 49.898 43.102 51.094 42.575 52.349 42.575C 54.53 42.575 56.287 43.886 56.287 47.458C 56.287 51.029 54.635 52.34 52.454 52.34C 51.157 52.34 50.067 51.88 49.208 50.803M 67.267 51.218C 66.294 52.155 65.269 52.339 64.084 52.339C 62.015 52.339 60.152 51.028 60.152 47.456C 60.152 43.884 61.961 42.573 64.03 42.573C 66.098 42.573 67.702 43.63 67.702 47.201L 60.482 47.201M 75.355 42.609C 73.974 42.419 72.726 43.319 72.084 44.619M 71.729 42.773L 71.729 52.123M 78.859 42.78L 78.859 52.128M 85.693 52.128L 85.693 46.074C 85.693 45.362 85.789 42.79 83.406 42.587C 81.648 42.437 79.959 43.562 79.183 44.956M 97.117 51.218C 96.144 52.155 95.119 52.339 93.934 52.339C 91.865 52.339 90.002 51.028 90.002 47.456C 90.002 43.884 91.811 42.573 93.88 42.573C 95.948 42.573 97.552 43.63 97.552 47.201L 90.332 47.201M 101.588 38.086L 101.588 52.128M 108.452 52.128L 108.452 46.074C 108.452 45.362 108.548 42.791 106.155 42.587C 104.401 42.439 102.716 43.547 101.929 44.928M 113.19 42.814L 113.19 52.162M 120.024 52.162L 120.013 45.47C 119.949 44.526 119.582 43.078 117.708 42.649C 115.768 42.205 114.288 43.248 113.552 44.595M 126.859 52.162L 126.859 46.108C 126.859 45.396 126.974 43.206 124.543 42.649C 122.514 42.184 120.979 43.347 120.279 44.783M 138.287 51.218C 137.314 52.155 136.289 52.339 135.104 52.339C 133.035 52.339 131.172 51.028 131.172 47.456C 131.172 43.884 132.981 42.573 135.05 42.573C 137.118 42.573 138.722 43.63 138.722 47.201L 131.502 47.201M 142.769 42.78L 142.769 52.128M 149.603 52.128L 149.603 46.074C 149.603 45.362 149.699 42.79 147.316 42.587C 145.558 42.437 143.869 43.562 143.093 44.956"></path></g></g></g><g id="g-root-2_1q87gsk1s52ltx-stroke" data-item-order="0" data-item-id="2_1q87gsk1s52ltx" data-item-class="Icon Stroke SceneTarget Indexed InsideFill InsideColorFill ColorStrokeGray" data-item-index="4" data-renderer-id="0" transform="translate(189, 279.5)"><g id="2_1q87gsk1s52ltx-stroke" fill="none" stroke-linecap="round" stroke-linejoin="round" stroke-miterlimit="1.5" stroke="#2C2C2C" stroke-width="2"><g xmlns="http://www.w3.org/2000/svg"><path d="M 37.154 55.291L 35.131 56.08C 34.402 56.354 33.598 56.354 32.869 56.08L 30.846 55.291C 20.361 51.181 13.454 41.079 13.429 29.817L 13.429 20.286C 21.338 21.413 29.231 18.124 34 11.714C 38.286 17.954 45.383 20.903 54.571 20.286L 54.571 29.817C 54.546 41.079 47.639 51.181 37.154 55.291Z"></path></g></g></g><g id="g-root-hamm_1413y6c1s52o7j-stroke" data-item-order="0" data-item-id="hamm_1413y6c1s52o7j" data-item-class="Icon Stroke SceneTarget Indexed InsideFill InsideColorFill ColorStrokeGray" data-item-index="2" data-renderer-id="0" transform="translate(465, 279.5)"><g id="hamm_1413y6c1s52o7j-stroke" fill="none" stroke-linecap="round" stroke-linejoin="round" stroke-miterlimit="1.5" stroke="#2C2C2C" stroke-width="2"><g xmlns="http://www.w3.org/2000/svg"><path d="M 22.994 21.578L 31.867 12.705C 31.867 12.705 34.291 10.281 36.715 12.705L 55.288 31.278C 55.288 31.278 57.712 33.702 55.288 36.126L 46.415 44.999C 46.415 44.999 43.991 47.423 41.567 44.999L 22.994 26.43C 22.994 26.43 20.57 24.002 22.994 21.578M 13.12 48.023C 11.227 49.917 11.227 52.986 13.121 54.879C 15.014 56.773 18.083 56.773 19.977 54.88L 35.714 39.143L 28.857 32.286Z"></path></g></g></g><g id="g-root-tx_arbeitau_hv9dqc1s4x1xp-stroke" data-item-order="0" data-item-id="tx_arbeitau_hv9dqc1s4x1xp" data-item-class="Label Stroke SceneTarget Indexed ColorStrokeGray" data-item-index="2" data-renderer-id="0" transform="translate(567, 291.5)"><g id="tx_arbeitau_hv9dqc1s4x1xp-stroke" fill="none" stroke-linecap="square" stroke-linejoin="miter" stroke-miterlimit="4" stroke="#c0c0c0" stroke-width="2"><g xmlns="http://www.w3.org/2000/svg"><path d="M 13.624 28.145L 18.572 14.973L 19.16 14.973L 24.124 28.145M 15.441 24.294L 22.3 24.294M 31.705 18.609C 30.324 18.419 29.076 19.319 28.434 20.619M 28.079 18.773L 28.079 28.123M 35.235 28.124L 35.235 14.123M 35.618 20.138C 36.308 19.102 37.504 18.575 38.759 18.575C 40.94 18.575 42.697 19.886 42.697 23.458C 42.697 27.029 41.045 28.34 38.864 28.34C 37.567 28.34 36.477 27.879 35.618 26.803M 53.677 27.218C 52.704 28.155 51.679 28.339 50.494 28.339C 48.425 28.339 46.562 27.028 46.562 23.456C 46.562 19.884 48.371 18.573 50.44 18.573C 52.508 18.573 54.112 19.63 54.112 23.201L 46.892 23.201M 58.338 14.971L 58.362 14.971M 58.322 18.804L 58.322 28.145M 66.219 28.326C 64.81 28.465 63.952 27.732 63.952 26.387L 63.952 16.081M 66.102 18.642L 64.338 18.642M 61.842 18.642L 63.575 18.642M 14.498 44.246C 14.862 43.28 16.278 42.567 17.618 42.567C 19.472 42.567 20.974 43.88 20.974 45.499L 20.98 46.957L 20.98 49.571C 20.98 50.614 20.955 51.353 21.257 52.278M 20.6 46.957L 17.872 46.957C 15.369 46.957 14.069 48.343 14.069 49.837C 14.069 51.332 15.307 52.341 16.923 52.341C 18.905 52.341 20.531 50.888 20.931 49.732M 32.617 52.115L 32.616 42.767M 25.782 42.767L 25.782 48.821C 25.782 49.533 25.687 52.096 28.069 52.307C 30.16 52.493 31.433 51.653 32.135 50.47M 43.578 44.381C 43.282 43.404 42.128 42.584 40.518 42.584C 38.63 42.584 37.41 43.447 37.319 44.751C 37.214 46.246 38.448 46.822 40.378 47.339C 42.072 47.797 44.015 48.277 43.861 50.122C 43.762 51.311 42.785 52.346 40.428 52.346C 38.522 52.346 37.445 51.53 37.11 50.424M 52.344 37.926C 52.176 37.908 51.895 37.907 51.767 37.907C 50.188 37.907 49.19 39.035 49.19 40.425L 49.19 52.129M 51.615 42.664L 49.526 42.664M 47.338 42.664L 48.864 42.664M 56.563 38.932L 56.587 38.932M 60.995 38.932L 61.019 38.932M 55.282 42.767L 55.282 48.821C 55.282 49.533 55.187 52.096 57.569 52.307C 59.66 52.493 60.933 51.653 61.635 50.47M 62.117 52.115L 62.116 42.767M 66.888 38.086L 66.888 52.128M 73.752 52.128L 73.752 46.074C 73.752 45.362 73.848 42.791 71.455 42.587C 69.701 42.439 68.016 43.547 67.229 44.928M 82.075 42.609C 80.694 42.419 79.446 43.319 78.804 44.619M 78.449 42.773L 78.449 52.123M 92.227 51.218C 91.254 52.155 90.229 52.339 89.044 52.339C 86.975 52.339 85.111 51.028 85.111 47.456C 85.111 43.884 86.921 42.573 88.99 42.573C 91.058 42.573 92.662 43.63 92.662 47.201L 85.442 47.201M 96.709 42.78L 96.709 52.128M 103.543 52.128L 103.543 46.074C 103.543 45.362 103.639 42.79 101.256 42.587C 99.498 42.437 97.809 43.562 97.033 44.956"></path></g></g></g><g id="g-root-door_1cwqyf81s52neu-stroke" data-item-order="0" data-item-id="door_1cwqyf81s52neu" data-item-class="Icon Stroke SceneTarget Indexed InsideFill InsideColorFill ColorStrokeGray" data-item-index="3" data-renderer-id="0" transform="translate(327, 387.5)"><g id="door_1cwqyf81s52neu-stroke" fill="none" stroke-linecap="round" stroke-linejoin="round" stroke-miterlimit="1.5" stroke="#2C2C2C" stroke-width="2"><g xmlns="http://www.w3.org/2000/svg"><path d="M 32 53L 15 53L 15 13C 15 11.895 15.895 11 17 11L 41 11C 42.105 11 43 11.895 43 13L 43 35M 32 57L 12 57C 11.448 57 11 56.552 11 56L 11 54C 11 53.448 11.448 53 12 53L 15 53M 37 31L 37 18C 37 17.448 36.552 17 36 17L 22 17C 21.448 17 21 17.448 21 18L 21 31ZM 29 17L 29 31M 39 39L 55 39C 55 39 57 39 57 41L 57 55C 57 55 57 57 55 57L 39 57C 39 57 37 57 37 55L 37 41C 37 41 37 39 39 39M 51 48L 47 46L 43 48L 43 39L 51 39L 51 48ZM 37 24L 21 24"></path></g></g></g><g id="g-root-tx_ergebnis_qqwdz81s4x150-stroke" data-item-order="0" data-item-id="tx_ergebnis_qqwdz81s4x150" data-item-class="Label Stroke SceneTarget Indexed ColorStrokeGray" data-item-index="3" data-renderer-id="0" transform="translate(297, 483.5)"><g id="tx_ergebnis_qqwdz81s4x150-stroke" fill="none" stroke-linecap="square" stroke-linejoin="miter" stroke-miterlimit="4" stroke="#c0c0c0" stroke-width="2"><g xmlns="http://www.w3.org/2000/svg"><path d="M 22.673 28.137L 15.109 28.142L 15.109 14.95C 16.057 14.95 21.231 14.95 22.631 14.95M 21.619 21.297L 15.573 21.297M 30.32 18.609C 28.939 18.419 27.691 19.319 27.049 20.619M 26.694 18.773L 26.694 28.123M 40.834 18.652L 40.834 28.654C 40.834 33.351 35.541 33.001 34.106 31.47M 40.5 26.573C 39.82 27.661 38.596 28.214 37.31 28.214C 35.129 28.214 33.372 26.903 33.372 23.331C 33.372 19.76 35.023 18.449 37.205 18.449C 38.473 18.449 39.778 19.129 40.5 20.502M 52.242 27.218C 51.269 28.155 50.244 28.339 49.059 28.339C 46.99 28.339 45.127 27.028 45.127 23.456C 45.127 19.884 46.936 18.573 49.005 18.573C 51.073 18.573 52.677 19.63 52.677 23.201L 45.457 23.201M 56.75 28.124L 56.75 14.123M 57.133 20.138C 57.823 19.102 59.019 18.575 60.274 18.575C 62.455 18.575 64.212 19.886 64.212 23.458C 64.212 27.029 62.56 28.34 60.379 28.34C 59.082 28.34 57.992 27.879 57.133 26.803M 68.544 18.78L 68.544 28.128M 75.378 28.128L 75.378 22.074C 75.378 21.362 75.474 18.79 73.091 18.587C 71.333 18.437 69.644 19.562 68.868 20.956M 80.333 14.971L 80.357 14.971M 80.317 18.804L 80.317 28.145M 91.403 20.381C 91.107 19.404 89.953 18.584 88.343 18.584C 86.455 18.584 85.235 19.447 85.144 20.751C 85.039 22.246 86.273 22.822 88.203 23.339C 89.897 23.797 91.84 24.277 91.686 26.122C 91.587 27.31 90.61 28.346 88.253 28.346C 86.347 28.346 85.27 27.53 84.935 26.424M 102.213 20.381C 101.917 19.404 100.763 18.584 99.153 18.584C 97.265 18.584 96.045 19.447 95.954 20.751C 95.849 22.246 97.083 22.822 99.013 23.339C 100.707 23.797 102.65 24.277 102.496 26.122C 102.397 27.31 101.42 28.346 99.063 28.346C 97.157 28.346 96.08 27.53 95.745 26.424M 113.512 27.218C 112.539 28.155 111.514 28.339 110.329 28.339C 108.26 28.339 106.396 27.028 106.396 23.456C 106.396 19.884 108.206 18.573 110.275 18.573C 112.343 18.573 113.947 19.63 113.947 23.201L 106.727 23.201M 37.416 38.125L 37.416 52.126M 42.508 38.971L 42.532 38.971M 42.492 42.804L 42.492 52.145M 54.067 51.218C 53.094 52.155 52.069 52.339 50.884 52.339C 48.815 52.339 46.951 51.028 46.951 47.456C 46.951 43.884 48.761 42.573 50.83 42.573C 52.898 42.573 54.502 43.63 54.502 47.201L 47.282 47.201M 62.664 37.926C 62.496 37.908 62.215 37.907 62.087 37.907C 60.508 37.907 59.51 39.035 59.51 40.425L 59.51 52.129M 61.935 42.664L 59.846 42.664M 57.658 42.664L 59.184 42.664M 72.277 51.218C 71.304 52.155 70.279 52.339 69.094 52.339C 67.025 52.339 65.161 51.028 65.161 47.456C 65.161 43.884 66.971 42.573 69.04 42.573C 71.108 42.573 72.712 43.63 72.712 47.201L 65.492 47.201M 80.365 42.609C 78.984 42.419 77.736 43.319 77.094 44.619M 76.739 42.773L 76.739 52.123M 83.869 42.78L 83.869 52.128M 90.703 52.128L 90.703 46.074C 90.703 45.362 90.799 42.79 88.416 42.587C 86.658 42.437 84.969 43.562 84.193 44.956"></path></g></g></g></g></svg>